{"glyphs":{"0":{"ha":793,"x_min":0,"x_max":0,"o":"m 58 489 b 407 1065 58 817 185 1065 b 735 553 661 1065 735 735 b 385 -24 735 233 611 -24 b 58 489 168 -24 58 240 m 171 546 b 413 28 171 303 242 28 b 622 493 538 28 622 219 b 379 1014 622 757 536 1014 b 171 546 250 1014 171 828 "},"1":{"ha":793,"x_min":0,"x_max":0,"o":"m 472 418 b 479 99 471 279 472 160 b 535 25 485 56 490 35 b 626 17 556 21 614 17 b 639 6 632 17 639 11 b 615 -4 639 -1 632 -4 b 415 0 511 -4 422 0 b 203 -4 408 0 292 -4 b 179 6 188 -4 179 -1 b 190 17 179 11 185 17 b 301 26 207 17 275 21 b 360 99 347 35 357 56 b 364 418 364 160 364 279 l 364 661 b 364 872 364 736 364 796 b 339 915 364 900 361 915 b 181 849 313 915 215 865 b 164 843 174 844 169 843 b 154 856 160 843 154 850 b 164 869 154 860 158 865 l 432 1049 b 465 1065 444 1057 456 1065 b 481 1036 476 1065 481 1050 b 474 675 481 1025 475 888 "},"2":{"ha":793,"x_min":0,"x_max":0,"o":"m 68 0 b 49 19 58 0 49 8 b 74 53 49 31 63 43 b 558 758 351 300 558 492 b 338 1015 558 957 431 1015 b 189 963 271 1015 229 1000 b 140 828 156 931 140 882 b 128 807 140 815 135 807 b 117 825 122 807 118 813 b 108 996 115 838 108 953 b 122 1017 108 1004 110 1008 b 367 1065 174 1040 254 1065 b 681 785 576 1065 681 932 b 197 93 681 497 369 240 b 200 83 190 88 193 83 l 301 83 b 539 90 325 83 489 85 b 701 224 640 100 685 150 b 718 244 706 239 710 244 b 726 224 725 244 726 232 b 685 42 726 197 699 89 b 594 0 674 4 653 0 "},"3":{"ha":793,"x_min":0,"x_max":0,"o":"m 583 282 b 326 551 583 468 417 533 b 290 569 300 557 290 560 b 322 586 290 579 304 583 b 543 828 390 599 543 665 b 343 1015 543 886 507 1015 b 168 851 242 1015 168 958 b 158 835 168 838 163 835 b 149 850 154 835 150 838 b 139 989 143 894 139 957 b 157 1018 139 1001 140 1007 b 382 1065 200 1039 278 1065 b 657 857 608 1065 657 926 b 471 607 657 718 514 626 l 471 600 b 700 333 558 579 700 494 b 285 -24 700 139 532 -24 b 115 10 228 -24 144 -7 b 93 49 96 22 93 32 b 103 222 93 114 99 192 b 114 243 104 236 107 243 b 124 224 121 243 122 239 b 332 36 133 117 186 36 b 583 282 472 36 583 117 "},"4":{"ha":793,"x_min":0,"x_max":0,"o":"m 578 388 l 683 388 b 740 403 721 388 735 403 b 747 386 747 403 747 393 b 735 331 747 379 740 347 b 706 313 728 317 722 313 l 578 313 b 581 99 578 267 575 160 b 640 22 585 57 596 33 b 701 17 660 18 688 17 b 714 6 708 17 714 11 b 692 -4 714 -1 707 -4 b 517 0 615 -4 526 0 b 356 -4 507 0 432 -4 b 333 6 340 -4 333 -1 b 344 17 333 11 338 17 b 410 21 357 17 388 18 b 469 99 456 28 465 57 b 472 313 475 160 472 267 l 49 313 b 19 329 32 313 19 317 b 32 358 19 340 26 351 b 536 1040 40 368 492 979 b 565 1065 547 1056 556 1065 b 579 1042 575 1065 579 1056 b 578 833 579 1021 578 910 m 472 879 l 469 879 b 117 388 449 843 143 422 l 472 388 "},"5":{"ha":793,"x_min":0,"x_max":0,"o":"m 244 740 b 678 360 421 714 678 607 b 261 -24 678 181 542 -24 b 133 1 219 -24 168 -18 b 107 40 110 14 107 26 b 113 215 107 88 106 171 b 125 240 115 229 119 240 b 136 217 133 240 136 233 b 326 38 136 68 225 38 b 571 307 443 38 571 115 b 218 644 571 531 325 639 b 182 669 190 646 181 654 l 214 1024 b 240 1042 215 1038 225 1042 l 567 1042 b 647 1047 606 1042 631 1044 b 676 1051 664 1049 672 1051 b 686 1038 682 1051 686 1049 b 668 863 686 1025 682 964 b 657 847 667 856 663 847 b 649 865 651 847 649 856 b 526 954 649 918 636 954 l 264 954 "},"6":{"ha":793,"x_min":0,"x_max":0,"o":"m 619 271 b 410 563 619 464 494 563 b 306 544 374 563 338 560 b 288 539 301 543 292 539 b 282 550 283 539 282 543 b 294 567 282 557 286 561 b 456 615 322 586 378 615 b 735 333 649 615 735 457 b 635 69 735 224 696 129 b 394 -24 569 7 497 -24 b 68 376 200 -24 68 124 b 549 1056 68 646 279 939 b 578 1065 561 1061 572 1065 b 589 1053 583 1065 589 1061 b 563 1028 589 1042 576 1036 b 189 376 385 929 189 706 b 421 29 189 214 261 29 b 619 271 532 29 619 118 "},"7":{"ha":793,"x_min":0,"x_max":0,"o":"m 731 1042 b 756 1028 749 1042 756 1036 b 747 1001 756 1022 754 1013 b 385 110 635 835 406 290 b 385 61 382 86 385 76 b 249 -24 385 33 276 -24 b 236 -10 240 -24 236 -19 b 244 38 236 4 240 25 b 658 954 299 219 449 590 l 317 954 b 188 919 276 954 221 947 b 135 813 158 896 139 851 b 122 793 133 800 129 793 b 114 815 115 793 114 800 b 135 1036 114 860 135 1022 b 149 1056 135 1050 140 1056 b 281 1042 157 1056 190 1042 "},"8":{"ha":793,"x_min":0,"x_max":0,"o":"m 74 246 b 321 556 74 401 194 506 b 126 817 213 619 126 693 b 422 1065 126 922 219 1065 b 676 853 567 1065 676 989 b 478 585 676 707 556 624 b 719 282 569 538 719 453 b 389 -24 719 121 588 -24 b 74 246 215 -24 74 78 m 400 29 b 613 250 528 29 613 126 b 368 533 613 401 493 468 b 181 260 265 483 181 399 b 400 29 181 136 271 29 m 406 1018 b 225 843 281 1018 225 919 b 431 607 225 726 317 668 b 579 836 485 639 579 694 b 406 1018 579 942 513 1018 "},"9":{"ha":793,"x_min":0,"x_max":0,"o":"m 400 1065 b 718 688 596 1065 718 899 b 238 -28 718 297 407 57 b 215 -33 229 -32 221 -33 b 204 -19 210 -33 204 -28 b 218 0 204 -11 210 -4 b 596 647 382 90 596 321 b 367 1014 596 890 489 1014 b 176 801 242 1014 176 911 b 385 525 176 571 347 525 b 496 550 450 525 478 539 b 514 558 504 556 510 558 b 521 549 518 558 521 553 b 515 538 521 544 519 542 b 349 474 475 494 404 474 b 68 742 151 474 68 625 b 400 1065 68 933 208 1065 "}," ":{"ha":451,"x_min":0,"x_max":0,"o":""},"!":{"ha":444,"x_min":0,"x_max":0,"o":"m 176 656 b 156 918 175 676 167 875 b 150 944 153 929 150 938 b 157 964 150 951 153 957 b 260 1058 176 997 221 1039 b 281 1065 271 1064 275 1065 b 289 1051 286 1065 289 1063 b 268 868 289 1042 275 971 b 236 258 267 843 239 292 b 219 214 235 239 233 214 b 199 286 206 214 201 232 m 222 -24 b 153 47 174 -24 153 15 b 224 118 153 76 174 118 b 294 51 264 118 294 92 b 222 -24 294 10 265 -24 "},"\"":{"ha":451,"x_min":0,"x_max":0,"o":"m 139 1049 b 197 1029 174 1049 197 1049 b 154 785 197 1007 167 938 b 139 722 150 729 146 722 b 124 785 132 722 128 729 b 81 1029 111 938 81 1007 b 139 1049 81 1049 104 1049 m 313 1049 b 371 1029 347 1049 371 1049 b 328 785 371 1007 340 938 b 313 722 324 729 319 722 b 297 785 306 722 301 729 b 254 1029 285 938 254 1007 b 313 1049 254 1049 278 1049 "},"#":{"ha":793,"x_min":0,"x_max":0,"o":"m 582 639 l 549 411 l 707 411 l 707 333 l 536 333 l 486 0 l 438 0 l 489 333 l 263 333 l 210 0 l 161 0 l 214 333 l 44 333 l 44 411 l 226 411 l 261 639 l 89 639 l 89 717 l 272 717 l 318 1047 l 368 1047 l 322 717 l 544 717 l 589 1047 l 638 1047 l 593 717 l 749 717 l 749 639 m 311 639 l 276 411 l 500 411 l 533 639 "},"$":{"ha":793,"x_min":0,"x_max":0,"o":"m 379 -112 b 365 -124 378 -119 372 -122 l 339 -132 b 329 -118 331 -133 328 -129 l 340 0 b 158 33 304 0 213 10 b 119 83 124 49 119 54 b 135 247 119 158 131 231 b 150 274 138 264 143 274 b 157 243 157 274 158 267 b 193 114 156 194 158 154 b 344 53 229 71 289 53 l 385 497 b 150 804 231 606 150 679 b 438 1054 150 975 318 1054 l 447 1165 b 456 1178 447 1172 450 1176 l 488 1188 b 499 1181 494 1189 499 1188 l 486 1054 b 642 1035 554 1054 617 1044 b 653 1014 650 1031 653 1026 b 647 851 653 986 650 875 b 636 838 646 840 642 838 b 625 858 629 838 625 842 b 585 968 625 893 621 935 b 481 1008 561 990 514 1008 l 440 594 b 683 276 572 508 683 432 b 389 0 683 69 486 0 m 432 1008 b 243 840 383 1008 243 981 b 396 629 243 757 296 699 m 394 53 b 583 246 513 58 583 133 b 431 465 583 339 525 404 "},"%":{"ha":1208,"x_min":0,"x_max":0,"o":"m 899 0 b 668 244 738 0 668 136 b 908 510 668 372 739 510 b 1139 265 1067 510 1139 375 b 899 0 1139 139 1065 0 m 904 39 b 1053 246 1011 39 1053 135 b 901 471 1053 354 1000 471 b 754 264 796 471 754 376 b 904 39 754 156 803 39 m 353 -17 b 338 -1 338 -19 333 -10 b 776 1019 476 310 764 990 b 449 997 689 1015 472 996 l 449 994 b 539 796 499 960 539 885 b 300 531 539 669 464 531 b 69 775 139 531 69 667 b 317 1042 69 904 149 1042 b 844 1074 553 1042 808 1074 b 854 1068 850 1074 854 1072 b 839 1028 854 1061 847 1049 l 431 11 b 417 -6 425 -1 424 -4 m 306 569 b 453 776 413 569 453 665 b 303 1003 453 885 401 1003 b 156 794 197 1003 156 907 b 306 569 156 686 204 569 "},"&":{"ha":1076,"x_min":0,"x_max":0,"o":"m 407 -24 b 69 283 164 -24 69 163 b 282 618 69 446 174 554 b 214 810 231 690 214 747 b 513 1065 214 919 326 1065 b 681 1031 583 1065 643 1051 b 699 996 697 1021 699 1013 b 689 836 699 954 693 857 b 675 813 685 815 681 813 b 667 839 668 813 667 818 b 624 957 667 875 658 921 b 485 1018 593 989 546 1018 b 308 836 401 1018 308 967 b 528 481 308 728 383 638 b 790 232 575 429 746 269 b 861 463 829 285 861 378 b 835 531 861 483 856 510 b 767 553 817 549 788 553 b 750 563 758 553 750 556 b 772 572 750 569 761 572 b 939 563 806 572 861 571 b 964 535 960 560 964 549 b 826 207 964 422 888 282 b 1018 69 918 129 979 92 b 1183 15 1063 43 1133 15 b 1203 6 1196 15 1203 14 b 1179 -4 1203 0 1192 -4 l 1043 -4 b 754 126 940 -4 907 6 b 407 -24 722 94 613 -24 m 456 50 b 718 153 585 50 671 104 b 467 388 640 217 503 349 b 303 582 431 426 342 525 b 178 349 231 535 178 460 b 456 50 178 175 300 50 "},"’":{"ha":278,"x_min":0,"x_max":0,"o":"m 118 1017 b 90 1107 118 1060 100 1096 b 78 1131 79 1119 78 1124 b 90 1139 78 1135 85 1139 b 188 1114 113 1139 165 1122 b 211 1078 204 1106 211 1099 b 92 804 211 979 140 863 b 74 793 86 796 81 793 b 67 800 71 793 67 796 b 72 818 67 804 68 808 b 118 1017 93 863 118 938 "},"(":{"ha":500,"x_min":0,"x_max":0,"o":"m 190 443 b 388 -146 190 157 272 -8 b 397 -162 393 -153 397 -157 b 388 -172 397 -168 393 -172 b 375 -165 385 -172 381 -169 b 86 425 267 -85 86 131 b 374 1025 86 721 288 964 b 389 1033 379 1029 385 1033 b 399 1022 394 1033 399 1028 b 389 1007 399 1018 394 1013 b 190 443 322 940 190 725 "},")":{"ha":500,"x_min":0,"x_max":0,"o":"m 310 418 b 113 1007 310 704 228 869 b 103 1024 107 1014 103 1018 b 113 1033 103 1029 107 1033 b 125 1026 115 1033 119 1031 b 414 439 233 946 414 731 b 126 -164 414 140 213 -103 b 111 -172 121 -168 115 -172 b 101 -161 106 -172 101 -167 b 111 -146 101 -157 106 -151 b 310 418 178 -79 310 136 "},"*":{"ha":486,"x_min":0,"x_max":0,"o":"m 288 1107 b 250 931 288 1072 267 983 b 250 921 249 928 249 924 b 257 921 251 919 253 919 b 388 997 319 938 376 985 b 401 1007 394 1003 397 1007 b 440 919 411 1007 440 947 b 424 907 440 913 436 910 b 264 901 418 906 306 903 b 256 899 260 901 258 900 b 257 889 254 897 254 893 b 374 792 274 861 357 797 b 389 779 386 788 389 785 b 318 710 389 757 339 710 b 299 729 313 710 306 717 b 239 872 283 757 250 838 b 233 881 238 875 236 881 b 228 876 232 881 229 881 b 175 761 221 865 182 781 b 167 729 172 751 167 740 b 150 722 167 725 161 722 b 63 740 107 722 63 731 b 72 763 63 746 64 751 b 211 889 88 783 193 874 b 215 897 214 892 215 894 b 210 901 215 900 213 901 b 78 911 178 910 96 911 b 61 907 69 911 64 907 b 46 1000 50 907 46 978 b 60 1011 46 1007 51 1011 b 217 922 101 1011 201 935 b 228 921 221 919 224 919 b 229 931 229 924 229 926 b 193 1067 231 949 200 1051 b 188 1082 190 1072 188 1079 b 276 1122 188 1096 251 1122 b 288 1107 283 1122 288 1118 "},"+":{"ha":708,"x_min":0,"x_max":0,"o":"m 392 338 l 392 78 l 319 78 l 319 338 l 58 338 l 58 408 l 318 408 l 318 668 l 390 668 l 390 408 l 650 408 l 650 338 "},",":{"ha":347,"x_min":0,"x_max":0,"o":"m 154 -3 b 107 96 154 61 107 79 b 193 171 107 135 157 171 b 218 144 200 171 204 167 b 242 85 236 117 242 97 b 228 31 242 74 235 49 b 139 -118 214 -1 178 -75 b 121 -131 133 -125 126 -131 b 111 -121 117 -131 111 -126 b 121 -101 111 -115 118 -107 b 154 -3 144 -61 154 -29 "},"-":{"ha":542,"x_min":0,"x_max":0,"o":"m 451 431 b 493 417 475 431 493 428 b 444 393 493 400 467 397 b 114 342 407 388 161 354 b 57 321 88 335 64 321 b 50 342 49 321 47 329 l 71 419 b 101 431 74 429 79 431 "},".":{"ha":347,"x_min":0,"x_max":0,"o":"m 172 0 b 97 76 119 0 97 42 b 174 153 97 108 119 153 b 250 81 217 153 250 125 b 172 0 250 36 219 0 "},"/":{"ha":767,"x_min":0,"x_max":0,"o":"m 32 8 b 33 29 26 11 26 18 l 674 1056 b 693 1061 679 1064 683 1067 l 735 1036 b 738 1022 740 1032 740 1026 l 93 -14 b 76 -21 88 -24 82 -24 "},":":{"ha":347,"x_min":0,"x_max":0,"o":"m 172 42 b 97 118 119 42 97 83 b 174 194 97 150 119 194 b 250 122 217 194 250 167 b 172 42 250 78 219 42 m 172 511 b 97 588 119 511 97 553 b 174 664 97 619 119 664 b 250 592 217 664 250 636 b 172 511 250 547 219 511 "},";":{"ha":347,"x_min":0,"x_max":0,"o":"m 161 -3 b 114 96 161 61 114 79 b 200 171 114 135 164 171 b 225 144 207 171 211 167 b 249 85 243 117 249 97 b 235 31 249 74 242 49 b 146 -118 221 -1 185 -75 b 128 -131 140 -125 133 -131 b 118 -121 124 -131 118 -126 b 128 -101 118 -115 125 -107 b 161 -3 151 -61 161 -29 m 172 511 b 97 588 119 511 97 553 b 174 664 97 619 119 664 b 250 592 217 664 250 636 b 172 511 250 547 219 511 "},"<":{"ha":708,"x_min":0,"x_max":0,"o":"m 35 403 l 626 675 l 626 601 l 111 365 l 626 128 l 626 54 l 35 329 "},"=":{"ha":708,"x_min":0,"x_max":0,"o":"m 58 457 l 58 528 l 650 528 l 650 457 m 58 213 l 58 283 l 650 283 l 650 213 "},">":{"ha":708,"x_min":0,"x_max":0,"o":"m 58 54 l 58 128 l 575 365 l 58 601 l 58 675 l 650 403 l 650 329 "},"?":{"ha":678,"x_min":0,"x_max":0,"o":"m 310 1018 b 174 964 242 1018 196 992 b 125 835 140 924 129 882 b 114 811 124 821 121 811 b 103 825 107 811 104 815 b 97 988 99 844 97 933 b 113 1010 97 996 99 1001 b 343 1065 154 1035 236 1065 b 594 849 526 1065 594 949 b 356 450 594 686 489 615 b 299 339 304 385 299 363 b 325 268 299 318 306 294 b 338 244 335 256 338 249 b 322 232 338 239 328 232 b 264 281 310 232 281 260 b 224 363 236 315 224 338 b 254 432 224 382 233 406 b 350 547 286 474 319 508 b 472 839 447 671 472 747 b 310 1018 472 907 436 1018 m 311 -24 b 242 47 263 -24 242 15 b 313 118 242 76 263 118 b 383 51 353 118 383 92 b 311 -24 383 10 354 -24 "},"@":{"ha":1258,"x_min":0,"x_max":0,"o":"m 1167 543 b 981 193 1167 399 1096 269 b 807 135 922 154 864 135 b 710 206 764 135 722 161 b 701 344 699 246 697 272 l 697 346 b 444 140 606 208 503 140 b 371 272 404 140 371 200 b 536 603 371 469 496 572 b 715 681 597 649 671 681 b 793 664 757 681 781 669 b 874 724 806 679 847 715 b 885 708 882 726 888 717 b 833 597 878 697 850 656 b 797 385 818 546 801 440 b 885 193 789 286 790 193 b 1103 539 996 193 1103 326 b 707 901 1103 740 968 901 b 185 315 382 901 185 646 b 582 -99 185 54 350 -99 b 947 28 767 -99 854 -47 b 985 38 969 46 982 44 b 963 0 988 32 983 21 b 551 -150 890 -71 738 -150 b 92 304 303 -150 92 -7 b 717 936 92 640 381 936 b 1167 543 1021 936 1167 772 m 757 607 b 672 632 743 615 701 632 b 514 504 604 632 553 593 b 472 304 488 442 472 365 b 506 219 472 269 483 219 b 707 415 556 219 658 335 b 757 607 724 496 731 531 "},"A":{"ha":972,"x_min":0,"x_max":0,"o":"m 447 1011 b 478 1065 464 1057 469 1065 b 508 1015 486 1065 492 1058 b 832 178 529 963 747 389 b 951 24 882 54 922 32 b 1007 15 972 17 993 15 b 1021 7 1015 15 1021 14 b 993 -4 1021 -1 1008 -4 b 775 -1 972 -4 871 -4 b 733 8 749 0 733 0 b 743 18 733 14 738 17 b 751 56 751 21 760 33 l 622 397 b 610 406 619 403 617 406 l 311 406 b 297 394 304 406 300 401 l 214 149 b 194 56 201 114 194 81 b 247 15 194 28 224 15 l 261 15 b 275 7 271 15 275 13 b 254 -4 275 -1 267 -4 b 146 0 221 -4 161 0 b -11 -4 131 0 54 -4 b -37 7 -29 -4 -37 -1 b -25 15 -37 13 -32 15 b 15 18 -15 15 4 17 b 132 149 79 26 107 79 m 592 456 b 597 465 599 456 599 460 l 465 840 b 444 840 458 861 451 861 l 322 465 b 326 456 319 458 322 456 "},"B":{"ha":954,"x_min":0,"x_max":0,"o":"m 247 643 b 244 943 247 860 247 899 b 185 1022 242 990 231 1013 b 138 1026 174 1025 150 1026 b 126 1035 132 1026 126 1029 b 149 1046 126 1043 133 1046 b 306 1042 211 1046 299 1042 b 457 1046 339 1042 393 1046 b 735 838 685 1046 735 907 b 604 588 735 724 669 656 b 844 294 707 556 844 457 b 490 -8 844 146 728 -8 b 390 -4 475 -8 431 -6 b 306 0 350 -1 311 0 b 250 -1 303 0 279 0 b 169 -4 222 -1 190 -4 b 147 7 154 -4 147 -1 b 158 15 147 11 150 15 b 200 21 171 15 188 18 b 240 97 228 26 235 57 b 247 399 247 156 247 265 m 358 613 b 368 597 358 603 361 600 b 453 592 376 596 401 592 b 579 628 531 592 550 594 b 629 768 608 661 629 711 b 442 1007 629 883 578 1007 b 375 1000 426 1007 397 1006 b 358 985 363 997 358 993 m 358 465 b 360 165 358 358 358 186 b 407 57 364 97 364 78 b 529 36 444 39 504 36 b 725 233 604 36 725 76 b 590 511 725 317 697 438 b 475 551 543 543 508 547 b 367 554 457 554 388 554 b 358 544 361 554 358 551 "},"C":{"ha":1118,"x_min":0,"x_max":0,"o":"m 715 -24 b 257 126 507 -24 367 28 b 89 538 122 247 89 406 b 244 917 89 631 121 793 b 668 1065 328 1000 454 1065 b 869 1049 724 1065 801 1061 b 1011 1028 922 1039 967 1031 b 1029 1013 1026 1026 1029 1021 b 1022 935 1029 1001 1025 985 b 1018 792 1019 889 1019 813 b 1006 763 1017 771 1014 763 b 994 792 996 763 994 772 b 936 933 994 846 972 903 b 658 1013 888 975 781 1013 b 339 911 474 1013 388 958 b 214 549 238 814 214 690 b 715 40 214 283 418 40 b 957 110 819 40 901 53 b 1008 226 986 140 1004 201 b 1022 247 1011 242 1014 247 b 1032 226 1029 247 1032 238 b 1001 49 1032 217 1015 96 b 965 8 993 22 990 19 b 715 -24 910 -14 804 -24 "},"D":{"ha":1274,"x_min":0,"x_max":0,"o":"m 247 643 b 244 943 247 860 247 899 b 185 1022 242 990 231 1013 b 138 1026 174 1025 150 1026 b 126 1035 132 1026 126 1029 b 149 1046 126 1043 133 1046 b 306 1042 211 1046 299 1042 b 493 1046 322 1042 410 1046 b 1050 888 631 1046 885 1058 b 1185 535 1119 815 1185 700 b 1035 143 1185 360 1113 225 b 614 -17 975 81 850 -17 b 421 -8 554 -17 481 -12 b 306 0 360 -4 313 0 b 250 -1 303 0 279 0 b 169 -4 222 -1 190 -4 b 147 7 154 -4 147 -1 b 158 15 147 11 150 15 b 200 21 171 15 188 18 b 240 97 228 26 235 57 b 247 399 247 156 247 265 m 364 493 b 367 192 364 346 365 218 b 382 86 368 157 371 101 b 618 31 400 60 454 31 b 949 160 747 31 867 78 b 1060 492 1021 231 1060 364 b 926 842 1060 668 983 782 b 472 999 796 979 638 999 b 382 989 444 999 393 994 b 365 961 369 983 365 976 b 364 665 364 914 364 772 "},"E":{"ha":847,"x_min":0,"x_max":0,"o":"m 247 643 b 244 943 247 860 247 899 b 185 1022 242 990 231 1013 b 138 1026 174 1025 150 1026 b 126 1035 132 1026 126 1029 b 149 1046 126 1043 133 1046 b 249 1044 181 1046 218 1046 l 306 1042 b 624 1043 315 1042 592 1042 b 683 1050 650 1044 672 1047 b 703 1057 690 1051 696 1057 b 708 1044 707 1057 708 1051 b 697 979 708 1035 701 1018 b 690 888 696 965 693 904 b 681 872 689 881 686 872 b 669 890 672 872 669 879 b 661 940 669 900 668 924 b 563 988 651 963 638 979 b 372 992 539 990 388 992 b 364 978 367 992 364 988 l 364 594 b 372 581 364 585 365 581 b 593 583 390 581 561 581 b 658 603 626 586 646 589 b 679 621 668 614 674 621 b 686 610 683 621 686 618 b 675 532 686 601 679 578 b 669 443 672 504 669 453 b 660 417 669 432 669 417 b 650 429 653 417 650 422 b 644 475 650 443 650 457 b 572 524 639 494 626 518 b 374 531 535 528 397 531 b 364 521 367 531 364 526 l 364 399 b 364 161 364 351 363 190 b 525 47 368 65 389 47 b 658 63 561 47 622 47 b 721 163 694 78 711 106 b 733 183 724 178 726 183 b 742 163 742 183 742 172 b 724 28 742 151 731 57 b 649 -8 714 -8 703 -8 b 414 -4 544 -8 468 -6 b 306 0 360 -1 326 0 b 250 -1 303 0 279 0 b 169 -4 222 -1 190 -4 b 147 7 154 -4 147 -1 b 158 15 147 11 150 15 b 200 21 171 15 188 18 b 240 97 228 26 235 57 b 247 399 247 156 247 265 "},"F":{"ha":822,"x_min":0,"x_max":0,"o":"m 247 643 b 244 943 247 860 247 899 b 185 1022 242 990 231 1013 b 138 1026 174 1025 150 1026 b 126 1035 132 1026 126 1029 b 149 1046 126 1043 133 1046 b 249 1044 181 1046 218 1046 l 306 1042 b 647 1043 333 1040 615 1042 b 708 1049 674 1044 696 1044 b 728 1057 717 1051 722 1057 b 736 1044 733 1057 736 1051 b 725 979 736 1035 729 1018 b 718 888 724 965 721 904 b 707 872 717 881 714 872 b 697 889 700 872 697 879 b 685 942 697 900 693 924 b 590 986 676 960 644 985 l 376 990 b 364 975 368 990 364 986 l 364 592 b 374 579 364 583 365 579 l 551 581 b 614 582 575 581 594 581 b 678 607 647 585 665 589 b 693 621 683 614 688 621 b 700 610 699 621 700 617 b 689 532 700 601 693 578 b 683 439 686 504 683 449 b 674 413 683 426 683 413 b 664 425 667 413 664 418 b 656 475 663 439 661 458 b 583 525 649 494 626 519 b 374 529 549 529 397 529 b 364 517 367 529 364 526 l 364 399 b 371 97 364 265 364 156 b 425 21 375 57 383 26 b 488 15 444 18 475 15 b 499 7 496 15 499 11 b 476 -4 499 0 492 -4 b 306 0 400 -4 313 0 b 169 -4 299 0 211 -4 b 147 7 154 -4 147 -1 b 158 15 147 11 150 15 b 200 21 171 15 188 18 b 240 97 228 26 235 57 b 247 399 247 156 247 265 "},"G":{"ha":1197,"x_min":0,"x_max":0,"o":"m 907 350 b 844 493 907 463 900 478 b 797 497 833 496 810 497 b 786 506 792 497 786 500 b 808 517 786 514 793 517 b 965 513 871 517 958 513 b 1101 517 972 513 1060 517 b 1124 506 1117 517 1124 514 b 1113 497 1124 500 1118 497 b 1078 493 1103 497 1094 496 b 1026 414 1040 486 1029 463 b 1024 269 1024 369 1024 328 l 1024 114 b 1006 39 1024 51 1022 49 b 711 -24 917 -8 792 -24 b 254 125 606 -24 408 -10 b 89 521 169 199 89 347 b 321 978 89 743 197 900 b 690 1065 446 1056 583 1065 b 903 1042 778 1065 876 1047 b 1015 1028 932 1035 981 1029 b 1032 1015 1029 1026 1032 1021 b 1022 818 1032 996 1022 957 b 1010 789 1022 796 1019 789 b 1000 810 1003 789 1001 797 b 971 901 999 829 992 868 b 644 1014 936 954 824 1014 b 347 922 557 1014 453 1006 b 210 569 267 858 210 732 b 357 185 210 374 308 232 b 721 36 467 78 593 36 b 879 65 771 36 843 44 b 907 114 897 75 907 90 "},"H":{"ha":1333,"x_min":0,"x_max":0,"o":"m 1086 399 b 1093 97 1086 265 1086 156 b 1147 21 1097 57 1106 26 b 1210 15 1167 18 1197 15 b 1221 7 1218 15 1221 11 b 1199 -4 1221 0 1214 -4 b 1028 0 1122 -4 1035 0 b 892 -4 1021 0 933 -4 b 869 7 876 -4 869 -1 b 881 15 869 11 872 15 b 922 21 893 15 910 18 b 963 97 950 26 957 57 b 969 399 969 156 969 265 l 969 544 b 961 553 969 550 965 553 l 372 553 b 364 544 368 553 364 551 l 364 399 b 371 97 364 265 364 156 b 425 21 375 57 383 26 b 488 15 444 18 475 15 b 499 7 496 15 499 11 b 476 -4 499 0 492 -4 b 306 0 400 -4 313 0 b 169 -4 299 0 211 -4 b 147 7 154 -4 147 -1 b 158 15 147 11 150 15 b 200 21 171 15 188 18 b 240 97 228 26 235 57 b 247 399 247 156 247 265 l 247 643 b 244 943 247 860 247 899 b 185 1022 242 990 231 1013 b 138 1026 174 1025 150 1026 b 126 1035 132 1026 126 1029 b 149 1046 126 1043 133 1046 b 306 1042 211 1046 299 1042 b 442 1046 313 1042 400 1046 b 464 1035 457 1046 464 1043 b 453 1026 464 1029 458 1026 b 418 1022 443 1026 435 1025 b 367 943 381 1015 369 992 b 364 643 364 899 364 860 l 364 614 b 372 606 364 607 368 606 l 961 606 b 969 614 965 606 969 607 l 969 643 b 967 943 969 860 969 899 b 907 1022 964 990 953 1013 b 860 1026 896 1025 872 1026 b 849 1035 854 1026 849 1029 b 871 1046 849 1043 856 1046 b 1028 1042 933 1046 1021 1042 b 1164 1046 1035 1042 1122 1046 b 1186 1035 1179 1046 1186 1043 b 1175 1026 1186 1029 1181 1026 b 1140 1022 1165 1026 1157 1025 b 1089 943 1103 1015 1092 992 b 1086 643 1086 899 1086 860 "},"I":{"ha":611,"x_min":0,"x_max":0,"o":"m 364 399 b 371 97 364 265 364 156 b 425 21 375 57 383 26 b 488 15 444 18 475 15 b 499 7 496 15 499 11 b 476 -4 499 0 492 -4 b 306 0 400 -4 313 0 b 169 -4 299 0 211 -4 b 147 7 154 -4 147 -1 b 158 15 147 11 150 15 b 200 21 171 15 188 18 b 240 97 228 26 235 57 b 247 399 247 156 247 265 l 247 643 b 244 943 247 860 247 899 b 197 1021 242 990 228 1014 b 154 1026 182 1025 164 1026 b 143 1035 149 1026 143 1029 b 165 1046 143 1043 150 1046 b 306 1042 211 1046 299 1042 b 442 1046 313 1042 400 1046 b 464 1035 457 1046 464 1043 b 453 1026 464 1029 458 1026 b 418 1022 443 1026 435 1025 b 367 943 381 1015 369 992 b 364 643 364 899 364 860 "},"J":{"ha":575,"x_min":0,"x_max":0,"o":"m 364 310 b 322 -100 364 85 364 -1 b 119 -312 293 -169 232 -235 b 65 -347 101 -325 79 -340 b 56 -350 63 -349 60 -350 b 46 -342 51 -350 46 -347 b 65 -321 46 -333 53 -329 b 114 -282 82 -311 101 -294 b 247 242 204 -190 247 -117 l 247 643 b 244 943 247 860 247 899 b 185 1022 242 990 231 1013 b 138 1026 174 1025 150 1026 b 126 1035 132 1026 126 1029 b 149 1046 126 1043 133 1046 b 306 1042 211 1046 299 1042 b 442 1046 313 1042 400 1046 b 464 1035 457 1046 464 1043 b 453 1026 464 1029 458 1026 b 418 1022 443 1026 435 1025 b 367 943 381 1015 369 992 b 364 643 364 899 364 860 "},"K":{"ha":1044,"x_min":0,"x_max":0,"o":"m 247 643 b 244 943 247 860 247 899 b 185 1022 242 990 231 1013 b 138 1026 174 1025 150 1026 b 126 1035 132 1026 126 1029 b 149 1046 126 1043 133 1046 b 301 1042 211 1046 293 1042 b 436 1046 314 1042 394 1046 b 458 1035 451 1046 458 1043 b 447 1026 458 1029 453 1026 b 413 1022 438 1026 429 1025 b 361 943 375 1015 364 992 b 358 643 358 899 358 860 l 358 560 l 364 560 b 689 896 388 586 639 842 b 764 996 728 936 764 972 b 746 1025 764 1013 757 1021 b 733 1036 739 1028 733 1031 b 750 1046 733 1043 740 1046 b 854 1042 778 1046 821 1042 b 988 1046 861 1042 953 1046 b 1008 1036 1003 1046 1008 1043 b 994 1026 1008 1029 1006 1026 b 917 1007 974 1026 944 1019 b 767 888 860 982 829 947 b 461 583 732 854 490 618 b 843 192 497 543 786 244 b 1050 33 960 83 983 61 b 1136 15 1086 18 1126 15 b 1154 7 1146 15 1154 13 b 1124 -4 1154 0 1147 -4 l 1053 -4 b 957 -1 1014 -4 988 -4 b 789 83 883 6 849 36 b 365 535 726 135 432 453 l 358 535 l 358 399 b 365 97 358 265 358 156 b 419 21 369 57 378 26 b 474 15 439 18 461 15 b 485 7 482 15 485 11 b 463 -4 485 0 478 -4 b 303 0 394 -4 314 0 b 169 -4 292 0 211 -4 b 147 7 154 -4 147 -1 b 158 15 147 11 150 15 b 200 21 171 15 188 18 b 240 97 228 26 235 57 b 247 399 247 156 247 265 "},"L":{"ha":822,"x_min":0,"x_max":0,"o":"m 364 396 b 394 78 364 192 369 103 b 561 46 417 56 453 46 b 729 88 635 46 696 47 b 765 171 747 110 761 144 b 778 189 767 182 769 189 b 786 168 785 189 786 183 b 765 29 786 153 776 69 b 678 -8 756 -3 751 -8 b 447 -4 578 -8 506 -6 b 306 0 389 -1 346 0 b 249 -1 300 0 276 -1 b 169 -4 221 -3 190 -4 b 147 7 154 -4 147 -1 b 158 15 147 11 150 15 b 200 21 171 15 188 18 b 240 97 228 26 235 57 b 247 399 247 156 247 265 l 247 643 b 244 943 247 860 247 899 b 185 1022 242 990 231 1013 b 138 1026 174 1025 150 1026 b 126 1035 132 1026 126 1029 b 149 1046 126 1043 133 1046 b 306 1042 211 1046 299 1042 b 456 1046 313 1042 414 1046 b 478 1035 471 1046 478 1043 b 467 1026 478 1029 472 1026 b 421 1022 457 1026 438 1025 b 367 943 381 1015 369 992 b 364 643 364 899 364 860 "},"M":{"ha":1458,"x_min":0,"x_max":0,"o":"m 1281 175 b 1356 28 1286 125 1296 47 b 1446 15 1396 15 1432 15 b 1457 8 1453 15 1457 14 b 1428 -4 1457 0 1444 -4 b 1196 4 1397 -4 1247 0 b 1157 18 1164 7 1157 11 b 1167 28 1157 24 1160 26 b 1172 78 1174 29 1175 53 l 1106 794 l 1101 794 l 761 72 b 715 -1 732 11 728 -1 b 672 63 706 -1 699 13 b 510 385 636 131 517 371 b 326 781 497 410 342 743 l 321 781 l 265 136 b 264 65 264 114 264 89 b 300 22 264 44 279 26 b 353 15 324 17 344 15 b 364 8 358 15 364 13 b 339 -4 364 -1 356 -4 b 210 0 288 -4 221 0 b 93 -4 197 0 131 -4 b 69 8 79 -4 69 -1 b 83 15 69 13 76 15 b 125 19 94 15 104 15 b 181 135 171 28 175 82 l 281 1040 b 296 1065 282 1056 288 1065 b 317 1044 304 1065 310 1060 l 742 171 l 1150 1043 b 1171 1065 1156 1056 1161 1065 b 1188 1028 1181 1065 1185 1054 "},"N":{"ha":1315,"x_min":0,"x_max":0,"o":"m 285 185 b 339 24 288 71 301 35 b 408 15 365 17 396 15 b 419 7 415 15 419 13 b 394 -4 419 -1 411 -4 b 247 0 315 -4 260 0 b 114 -4 235 0 176 -4 b 92 7 100 -4 92 -3 b 103 15 92 13 96 15 b 160 24 114 15 139 17 b 201 200 194 33 201 74 l 203 996 b 218 1065 203 1050 207 1065 b 267 1021 229 1065 253 1035 b 708 544 288 997 494 774 b 1042 182 846 397 997 228 l 1026 888 b 972 1019 1025 978 1015 1008 b 904 1026 947 1025 915 1026 b 893 1036 894 1026 893 1031 b 921 1046 893 1044 904 1046 b 1065 1042 983 1046 1050 1042 b 1183 1046 1081 1042 1126 1046 b 1208 1036 1199 1046 1208 1044 b 1193 1026 1208 1031 1203 1026 b 1160 1022 1186 1026 1176 1026 b 1108 899 1114 1013 1108 982 l 1106 85 b 1093 -14 1106 -7 1103 -14 b 992 75 1082 -14 1065 1 b 629 451 976 89 776 293 b 267 850 468 625 311 800 "},"O":{"ha":1271,"x_min":0,"x_max":0,"o":"m 89 522 b 636 1065 89 747 253 1065 b 1182 544 949 1065 1182 868 b 628 -24 1182 233 963 -24 b 89 522 247 -24 89 272 m 221 561 b 665 29 221 238 415 29 b 1049 506 790 29 1049 101 b 626 1018 1049 839 846 1018 b 221 561 394 1018 221 865 "},"P":{"ha":892,"x_min":0,"x_max":0,"o":"m 247 643 b 244 943 247 860 247 899 b 185 1022 242 990 231 1013 b 138 1026 174 1025 150 1026 b 126 1035 132 1026 126 1029 b 149 1046 126 1043 133 1046 b 306 1042 211 1046 294 1042 b 481 1046 336 1042 417 1046 b 739 967 654 1046 717 988 b 808 801 769 938 808 875 b 467 471 808 604 664 471 b 438 472 460 471 444 471 b 422 482 431 472 422 475 b 460 494 422 493 431 494 b 700 721 594 494 700 593 b 622 935 700 767 696 860 b 432 1004 549 1010 464 1004 b 372 996 408 1004 385 1001 b 361 969 364 993 361 983 l 361 399 b 368 97 361 265 361 156 b 422 21 372 57 381 26 b 485 15 442 18 472 15 b 496 7 493 15 496 11 b 474 -4 496 0 489 -4 b 303 0 397 -4 310 0 b 169 -4 299 0 211 -4 b 147 7 154 -4 147 -1 b 158 15 147 11 150 15 b 200 21 171 15 188 18 b 240 97 228 26 235 57 b 247 399 247 156 247 265 "},"Q":{"ha":1278,"x_min":0,"x_max":0,"o":"m 850 24 b 632 -24 800 -3 706 -24 b 89 522 247 -24 89 272 b 636 1065 89 747 253 1065 b 1182 544 949 1065 1182 867 b 936 78 1182 300 1028 138 l 1221 -69 b 1806 -233 1525 -226 1736 -233 b 2079 -179 1875 -233 1983 -218 b 2099 -174 2088 -176 2094 -174 b 2107 -182 2104 -174 2107 -178 b 2096 -196 2107 -187 2104 -192 b 1656 -292 2017 -232 1861 -292 b 1083 -106 1488 -292 1308 -231 m 221 561 b 665 29 221 238 415 29 b 1049 506 790 29 1049 101 b 626 1018 1049 839 846 1018 b 221 561 394 1018 221 865 "},"R":{"ha":1047,"x_min":0,"x_max":0,"o":"m 247 643 b 244 943 247 860 247 899 b 185 1022 242 990 231 1013 b 138 1026 174 1025 150 1026 b 126 1035 132 1026 126 1029 b 149 1046 126 1043 133 1046 b 306 1042 211 1046 299 1042 b 469 1046 321 1042 426 1046 b 724 985 557 1046 650 1038 b 819 796 758 960 819 892 b 651 475 819 693 776 590 b 940 119 765 329 860 206 b 1110 19 1015 40 1075 25 b 1164 15 1136 15 1156 15 b 1176 7 1171 15 1176 11 b 1143 -4 1176 -1 1168 -4 l 1044 -4 b 896 22 967 -4 932 3 b 708 226 836 54 788 122 b 557 432 650 303 585 396 b 539 440 551 438 547 440 l 368 443 b 358 432 361 443 358 439 l 358 399 b 365 97 358 265 358 156 b 419 21 369 57 378 26 b 482 15 439 18 469 15 b 493 7 490 15 493 11 b 471 -4 493 0 486 -4 b 300 0 394 -4 307 0 b 169 -4 299 0 211 -4 b 147 7 154 -4 147 -1 b 158 15 147 11 150 15 b 200 21 171 15 188 18 b 240 97 228 26 235 57 b 247 399 247 156 247 265 m 358 522 b 368 506 358 515 361 510 b 514 483 389 493 453 483 b 618 510 547 483 586 488 b 703 724 667 543 703 618 b 463 1001 703 897 611 1001 b 369 993 421 1001 383 997 b 358 976 363 990 358 985 "},"S":{"ha":792,"x_min":0,"x_max":0,"o":"m 344 -24 b 158 14 279 -24 215 -14 b 138 67 139 24 138 29 b 144 214 138 136 143 192 b 156 236 146 229 149 236 b 165 221 164 236 165 232 b 169 169 165 208 165 189 b 375 28 190 67 282 28 b 574 213 508 28 574 124 b 414 463 574 308 533 364 l 351 514 b 171 815 204 635 171 721 b 458 1065 171 964 282 1065 b 588 1051 513 1065 553 1060 b 636 1044 614 1046 625 1044 b 650 1035 647 1044 650 1042 b 644 888 650 1028 644 982 b 635 856 644 865 642 856 b 624 874 626 856 625 863 b 606 943 622 890 614 928 b 432 1017 597 958 560 1017 b 261 856 336 1017 261 957 b 431 622 261 776 297 726 l 469 592 b 672 265 633 463 672 376 b 554 35 672 208 650 103 b 344 -24 494 -7 419 -24 "},"T":{"ha":960,"x_min":0,"x_max":0,"o":"m 543 399 b 550 97 543 265 543 156 b 604 21 554 57 563 26 b 667 15 624 18 654 15 b 678 7 675 15 678 11 b 656 -4 678 0 671 -4 b 485 0 579 -4 492 0 b 349 -4 478 0 390 -4 b 326 7 333 -4 326 -1 b 338 15 326 11 329 15 b 379 21 350 15 367 18 b 419 97 407 26 414 57 b 426 399 426 156 426 265 l 426 986 l 221 983 b 79 939 135 982 101 972 b 56 896 64 915 60 906 b 42 882 51 885 47 882 b 35 894 38 882 35 886 b 65 1039 35 908 63 1028 b 79 1065 68 1047 74 1065 b 140 1049 89 1065 103 1051 b 250 1042 181 1044 233 1042 l 771 1042 b 869 1049 815 1042 847 1044 b 908 1056 890 1051 903 1056 b 915 1039 915 1056 915 1047 b 911 886 915 997 911 901 b 901 868 911 874 907 868 b 890 892 894 868 892 872 l 889 907 b 718 983 885 949 851 981 l 543 986 "},"U":{"ha":1153,"x_min":0,"x_max":0,"o":"m 167 643 b 164 943 167 860 167 899 b 104 1022 161 990 150 1013 b 57 1026 93 1025 69 1026 b 46 1035 51 1026 46 1029 b 68 1046 46 1043 53 1046 b 228 1042 131 1046 215 1042 b 365 1046 240 1042 324 1046 b 388 1035 381 1046 388 1043 b 376 1026 388 1029 382 1026 b 342 1022 367 1026 358 1025 b 290 943 304 1017 293 992 b 288 643 288 899 288 860 l 288 449 b 392 106 288 249 332 163 b 601 29 460 42 522 29 b 819 129 686 29 769 69 b 900 469 883 208 900 326 l 900 643 b 897 943 900 860 900 899 b 838 1022 894 990 883 1013 b 790 1026 826 1025 803 1026 b 779 1035 785 1026 779 1029 b 801 1046 779 1043 786 1046 b 949 1042 864 1046 940 1042 b 1065 1046 958 1042 1024 1046 b 1088 1035 1081 1046 1088 1043 b 1076 1026 1088 1029 1082 1026 b 1042 1022 1067 1026 1058 1025 b 990 943 1004 1014 993 992 b 988 643 988 899 988 860 l 988 494 b 860 79 988 344 971 178 b 574 -24 760 -10 656 -24 b 288 75 526 -24 386 -18 b 167 440 219 140 167 238 "},"V":{"ha":1031,"x_min":0,"x_max":0,"o":"m 549 165 b 846 936 629 351 815 836 b 858 989 853 957 858 976 b 840 1021 858 1000 854 1014 b 788 1026 824 1026 803 1026 b 772 1035 779 1026 772 1028 b 803 1046 772 1043 781 1046 b 939 1042 858 1046 922 1042 b 1047 1046 947 1042 1007 1046 b 1071 1036 1063 1046 1071 1043 b 1054 1026 1071 1029 1065 1026 b 988 1010 1044 1026 1014 1026 b 911 879 969 997 949 974 b 756 503 896 840 826 674 b 576 82 671 300 608 150 b 518 -24 538 -1 532 -24 b 468 63 501 -24 494 -4 l 128 914 b 28 1021 97 992 76 1007 b -25 1026 7 1026 -17 1026 b -36 1036 -33 1026 -36 1031 b 0 1046 -36 1044 -22 1046 b 163 1042 67 1046 146 1042 b 292 1046 176 1042 239 1046 b 329 1036 317 1046 329 1043 b 315 1026 329 1029 325 1026 b 263 1019 300 1026 275 1025 b 244 992 247 1013 244 1001 b 282 876 244 974 261 931 "},"W":{"ha":1528,"x_min":0,"x_max":0,"o":"m 1108 188 l 1114 188 b 1328 896 1151 315 1279 718 b 1343 985 1342 947 1343 967 b 1264 1026 1343 1010 1328 1026 b 1251 1036 1257 1026 1251 1031 b 1275 1046 1251 1043 1258 1046 b 1417 1042 1346 1046 1404 1042 b 1529 1046 1426 1042 1486 1046 b 1549 1038 1542 1046 1549 1043 b 1536 1026 1549 1031 1544 1026 b 1489 1019 1531 1026 1504 1025 b 1399 869 1447 1004 1425 946 b 1143 96 1338 693 1197 251 b 1085 -24 1107 -7 1100 -24 b 1043 49 1071 -24 1063 -6 l 771 821 l 768 821 b 478 50 718 688 528 179 b 432 -24 456 -8 449 -24 b 383 86 418 -24 411 -8 l 136 910 b 60 1018 114 983 96 1004 b -3 1026 42 1025 7 1026 b -15 1036 -10 1026 -15 1028 b 7 1046 -15 1043 -7 1046 b 171 1042 79 1046 156 1042 b 314 1046 183 1042 244 1046 b 339 1036 333 1046 339 1042 b 325 1026 339 1028 332 1026 b 271 1018 314 1026 288 1026 b 253 985 263 1014 253 1003 b 279 857 253 967 265 918 b 465 185 300 768 444 258 l 468 185 l 763 976 b 797 1040 783 1033 789 1040 b 832 975 807 1040 815 1022 "},"X":{"ha":964,"x_min":0,"x_max":0,"o":"m 424 532 l 201 906 b 93 1017 169 960 140 1000 b 35 1026 71 1024 43 1026 b 22 1036 26 1026 22 1031 b 46 1046 22 1043 28 1046 b 208 1042 85 1046 197 1042 b 339 1046 221 1042 292 1046 b 363 1036 358 1046 363 1043 b 350 1026 363 1029 358 1026 b 313 1022 342 1026 324 1026 b 296 999 300 1018 296 1008 b 310 953 296 985 301 968 b 497 621 368 843 425 740 b 701 947 539 681 688 918 b 715 997 711 968 715 981 b 692 1022 715 1007 706 1018 b 650 1026 678 1026 658 1026 b 638 1036 642 1026 638 1029 b 661 1046 638 1042 644 1046 b 785 1042 714 1046 772 1042 b 901 1046 797 1042 854 1046 b 924 1036 917 1046 924 1042 b 908 1026 924 1031 918 1026 b 863 1019 899 1026 878 1025 b 756 907 822 1007 796 967 l 532 571 b 825 86 558 528 796 124 b 907 24 847 57 867 36 b 956 15 926 18 947 15 b 967 7 963 15 967 13 b 947 -4 967 0 960 -4 b 725 -1 863 -4 796 -4 b 682 10 689 0 682 3 b 690 21 682 15 685 19 b 697 60 697 24 710 38 b 458 474 622 196 542 333 l 242 106 b 224 44 229 83 224 58 b 246 18 224 31 233 21 b 272 15 254 17 265 15 b 283 6 279 15 283 11 b 267 -4 283 -1 276 -4 b 133 0 233 -4 146 0 b 7 -4 121 0 53 -4 b -7 6 -4 -4 -7 0 b 4 15 -7 11 -3 15 b 57 22 15 15 36 17 b 172 135 99 33 128 64 "},"Y":{"ha":908,"x_min":0,"x_max":0,"o":"m 401 356 b 369 501 401 431 388 461 b 125 901 360 524 174 829 b 31 1004 90 953 56 988 b -29 1026 10 1018 -17 1026 b -43 1036 -36 1026 -43 1029 b -25 1046 -43 1042 -37 1046 b 113 1042 1 1046 106 1042 b 229 1046 122 1042 175 1046 b 247 1036 244 1046 247 1042 b 226 1024 247 1031 239 1029 b 208 999 215 1018 208 1010 b 226 944 208 982 215 965 b 482 506 249 904 457 546 b 713 914 508 564 685 868 b 736 985 731 943 736 967 b 714 1024 736 1004 731 1019 b 693 1038 701 1028 693 1031 b 715 1046 693 1043 701 1046 b 807 1042 751 1046 796 1042 b 942 1046 815 1042 915 1046 b 960 1038 951 1046 960 1043 b 942 1026 960 1031 953 1026 b 878 1007 926 1026 900 1021 b 804 936 850 990 835 974 b 539 494 758 881 564 554 b 518 356 518 444 518 401 l 518 236 b 522 97 518 214 518 156 b 579 21 525 57 538 26 b 642 15 599 18 629 15 b 653 7 650 15 653 11 b 631 -4 653 0 646 -4 b 460 0 554 -4 467 0 b 324 -4 453 0 365 -4 b 301 7 308 -4 301 -1 b 313 15 301 11 304 15 b 354 21 325 15 342 18 b 397 97 382 26 394 57 b 401 236 401 156 401 214 "},"Z":{"ha":961,"x_min":0,"x_max":0,"o":"m 633 56 b 853 124 779 56 824 82 b 881 199 865 142 878 179 b 893 221 883 213 886 221 b 904 189 901 221 904 215 b 876 29 904 146 885 64 b 835 -7 868 -4 867 -7 b 126 0 603 -7 369 0 b 101 11 110 0 101 1 b 121 50 101 18 104 25 b 731 989 328 363 538 675 l 429 989 b 229 961 358 989 274 985 b 150 851 179 935 154 883 b 135 826 147 831 142 826 b 126 844 128 826 126 833 b 154 1029 126 861 147 988 b 168 1056 157 1049 160 1056 b 226 1046 181 1056 189 1047 b 468 1042 358 1040 425 1042 l 856 1042 b 883 1031 876 1042 883 1039 b 878 1014 883 1025 883 1022 b 256 56 676 694 467 375 "},"[":{"ha":500,"x_min":0,"x_max":0,"o":"m 135 1015 b 158 1033 135 1031 138 1033 l 394 1033 b 411 1024 406 1033 411 1031 b 388 1013 411 1018 404 1014 b 236 983 346 1008 279 1003 b 226 854 229 954 226 913 l 226 7 b 236 -122 226 -51 229 -93 b 386 -151 278 -142 344 -147 b 410 -162 403 -153 410 -156 b 393 -172 410 -169 404 -172 l 157 -172 b 135 -150 136 -172 135 -171 "},"\\":{"ha":728,"x_min":0,"x_max":0,"o":"m 657 -19 b 642 -14 651 -22 647 -24 l 29 971 b 32 985 26 975 26 981 l 71 1008 b 90 1003 81 1014 85 1011 l 699 28 b 699 8 706 17 704 11 "},"]":{"ha":500,"x_min":0,"x_max":0,"o":"m 365 -154 b 342 -172 365 -169 363 -172 l 106 -172 b 89 -162 94 -172 89 -169 b 113 -151 89 -157 96 -153 b 264 -122 154 -147 221 -142 b 274 7 271 -93 274 -51 l 274 854 b 264 983 274 913 271 954 b 114 1013 222 1003 156 1008 b 90 1024 97 1014 90 1017 b 107 1033 90 1031 96 1033 l 343 1033 b 365 1011 364 1033 365 1032 "},"^":{"ha":708,"x_min":0,"x_max":0,"o":"m 390 1043 l 667 451 l 592 451 l 354 967 l 117 451 l 42 451 l 318 1043 "},"_":{"ha":694,"x_min":0,"x_max":0,"o":"m 694 -104 l 694 -174 l 0 -174 l 0 -104 "},"‘":{"ha":278,"x_min":0,"x_max":0,"o":"m 160 915 b 188 825 160 872 178 836 b 200 801 199 813 200 808 b 188 793 200 797 193 793 b 90 818 165 793 113 810 b 67 854 74 826 67 833 b 186 1128 67 953 138 1069 b 204 1139 192 1136 197 1139 b 211 1132 207 1139 211 1136 b 206 1114 211 1128 210 1124 b 160 915 185 1069 160 994 "},"a":{"ha":867,"x_min":0,"x_max":0,"o":"m 401 865 b 431 911 417 904 422 911 b 460 868 443 911 447 894 b 753 151 482 818 678 331 b 857 22 797 46 831 31 b 906 15 875 17 893 15 b 921 6 913 15 921 13 b 893 -4 921 -1 907 -4 b 700 -1 875 -4 785 -4 b 657 7 676 0 657 0 b 665 15 657 13 660 13 b 676 47 672 18 685 28 l 567 318 b 556 325 564 324 563 325 l 274 325 b 261 315 268 325 264 322 l 192 126 b 174 47 181 97 174 68 b 215 15 174 24 194 15 l 226 15 b 239 6 236 15 239 11 b 221 -4 239 -1 232 -4 b 111 0 192 -4 125 0 b -12 -4 99 0 38 -4 b -36 6 -28 -4 -36 -1 b -25 15 -36 11 -31 15 b 11 18 -17 15 1 17 b 114 126 67 25 90 67 m 538 374 b 542 382 543 374 543 376 l 421 706 b 400 706 414 724 407 724 l 286 382 b 290 374 285 376 286 374 "},"b":{"ha":853,"x_min":0,"x_max":0,"o":"m 215 547 b 213 801 215 731 215 764 b 163 869 210 842 203 864 b 121 872 153 871 132 872 b 111 879 117 872 111 875 b 131 889 111 886 117 889 b 272 886 186 889 265 886 b 415 889 301 886 358 889 b 672 708 619 889 672 771 b 549 501 672 615 611 557 b 764 256 642 474 764 389 b 457 -7 764 124 665 -7 b 351 -3 435 -7 390 -6 b 272 0 313 -1 278 0 b 222 -1 269 0 247 -1 b 149 -4 197 -3 168 -4 b 129 6 136 -4 129 -1 b 139 13 129 10 132 13 b 176 18 150 13 165 17 b 208 83 200 22 203 49 b 215 339 215 132 215 225 m 321 522 b 329 510 321 514 324 511 b 404 504 336 508 358 504 b 524 535 472 504 499 507 b 571 661 550 564 571 604 b 399 851 571 751 521 851 b 336 846 385 851 356 850 b 321 833 325 843 321 840 m 321 392 b 322 140 321 300 321 158 b 364 51 326 83 326 69 b 471 35 397 36 449 35 b 650 217 551 35 650 65 b 533 432 650 269 629 371 b 424 463 492 458 453 457 b 328 465 408 465 347 465 b 321 457 324 465 321 463 "},"c":{"ha":983,"x_min":0,"x_max":0,"o":"m 628 -19 b 225 107 444 -19 321 24 b 76 457 106 210 76 344 b 214 779 76 536 106 674 b 586 906 288 850 399 906 b 764 892 635 906 704 901 b 889 874 810 883 849 875 b 904 861 901 874 904 868 b 899 794 904 851 901 838 b 896 674 897 756 897 690 b 882 649 894 656 889 649 b 872 674 874 649 872 657 b 821 792 872 719 853 767 b 581 857 778 828 689 857 b 306 775 424 857 349 815 b 196 467 215 692 196 586 b 636 39 196 240 375 39 b 838 94 728 39 789 46 b 885 193 864 121 881 171 b 897 210 888 206 889 210 b 908 193 903 210 908 201 b 879 42 908 185 892 82 b 849 7 872 19 869 15 b 628 -19 799 -12 707 -19 "},"d":{"ha":1124,"x_min":0,"x_max":0,"o":"m 215 547 b 213 801 215 731 215 764 b 163 867 210 842 203 861 b 121 869 153 868 132 869 b 111 879 117 869 111 875 b 131 889 111 886 117 889 b 272 886 186 889 265 886 b 436 889 286 886 364 889 b 926 754 558 889 782 900 b 1046 454 988 693 1046 594 b 914 122 1046 306 982 192 b 543 -14 861 68 751 -14 b 372 -7 490 -14 425 -10 b 272 0 319 -3 278 0 b 222 -1 269 0 247 -1 b 149 -4 197 -3 168 -4 b 129 6 136 -4 129 -1 b 139 15 129 10 132 15 b 176 21 150 15 165 18 b 208 83 200 26 203 49 b 215 339 215 132 215 225 m 326 419 b 328 163 326 294 326 185 b 342 78 329 133 332 90 b 544 31 357 56 400 31 b 831 138 657 31 757 68 b 926 418 894 197 926 310 b 811 714 926 568 861 664 b 415 846 696 831 561 846 b 342 838 392 846 353 842 b 326 814 331 833 326 828 "},"e":{"ha":765,"x_min":0,"x_max":0,"o":"m 215 547 b 213 801 215 731 215 764 b 163 867 210 842 203 861 b 121 869 153 868 132 869 b 111 879 117 869 111 875 b 131 889 111 886 117 889 b 272 886 186 889 265 886 b 564 886 281 886 536 885 b 619 893 588 888 610 892 b 636 899 625 894 631 899 b 642 888 640 899 642 893 b 632 832 642 879 635 865 b 625 754 631 821 628 768 b 614 742 624 749 619 742 b 604 757 607 742 604 747 b 597 799 604 765 603 785 b 510 835 589 818 576 826 b 333 839 489 838 347 839 b 326 826 328 839 326 835 l 326 506 b 333 493 326 497 326 493 b 538 496 349 493 510 493 b 597 513 567 499 585 500 b 615 528 606 521 611 528 b 622 518 619 528 622 525 b 613 453 622 511 615 492 b 607 376 610 429 607 385 b 596 354 607 367 604 354 b 588 365 590 354 588 358 b 582 404 588 376 588 389 b 519 440 578 421 567 435 b 335 446 486 444 356 446 b 326 438 328 446 326 442 l 326 339 b 326 138 326 299 325 161 b 472 43 329 58 351 43 b 594 56 504 43 563 43 b 650 138 626 69 643 90 b 663 156 653 151 656 156 b 671 138 669 156 671 146 b 654 24 671 129 661 49 b 586 -7 646 -7 633 -7 b 374 -3 494 -7 424 -4 b 272 0 322 0 290 0 b 219 -1 269 0 246 0 b 149 -4 196 -3 168 -4 b 129 6 136 -4 129 -1 b 139 15 129 10 132 15 b 176 21 150 15 165 19 b 208 83 200 25 203 49 b 215 339 215 132 215 225 "},"f":{"ha":743,"x_min":0,"x_max":0,"o":"m 215 547 b 213 801 215 731 215 764 b 163 867 210 842 203 861 b 121 869 153 868 132 869 b 111 879 117 869 111 875 b 131 889 111 886 117 889 b 269 886 186 889 263 886 b 586 886 293 886 558 885 b 642 892 610 888 631 888 b 658 899 649 893 654 899 b 667 888 664 899 667 893 b 657 832 667 879 661 865 b 651 754 656 821 654 768 b 640 742 650 749 646 742 b 631 756 635 742 631 747 b 619 800 631 765 626 785 b 536 835 613 815 583 835 l 336 838 b 326 825 329 838 326 835 l 326 503 b 335 492 326 496 326 492 l 501 493 b 557 494 522 493 540 493 b 614 515 586 497 603 501 b 629 528 619 522 625 528 b 636 518 635 528 636 524 b 625 453 636 511 628 492 b 621 374 622 429 621 382 b 610 350 621 363 618 350 b 601 361 603 350 601 356 b 593 404 600 374 599 390 b 531 442 588 421 568 436 b 335 444 500 446 356 444 b 326 433 328 444 326 442 l 326 339 b 332 83 326 222 326 129 b 376 21 336 49 343 26 b 432 15 394 18 421 15 b 442 6 439 15 442 10 b 422 -4 442 0 436 -4 b 269 0 354 -4 275 0 b 149 -4 263 0 186 -4 b 129 6 136 -4 129 -1 b 139 15 129 10 132 15 b 176 21 150 15 165 19 b 208 83 200 25 203 49 b 215 339 215 132 215 225 "},"g":{"ha":1054,"x_min":0,"x_max":0,"o":"m 790 297 b 738 417 790 393 788 407 b 696 419 728 418 707 419 b 686 429 692 419 686 425 b 706 439 686 438 692 439 b 850 436 761 439 843 436 b 969 439 856 436 932 439 b 989 429 983 439 989 438 b 979 419 989 425 983 419 b 949 417 971 419 963 419 b 903 351 915 411 906 393 b 901 229 901 314 901 279 l 901 97 b 885 33 901 43 900 42 b 625 -19 807 -7 696 -19 b 222 107 532 -19 358 -8 b 76 443 147 169 76 296 b 281 831 76 632 172 765 b 606 906 390 897 513 906 b 793 886 683 906 769 892 b 892 874 818 881 861 874 b 907 863 904 874 907 868 b 900 696 907 846 900 814 b 886 671 900 676 894 671 b 878 689 879 671 878 678 b 850 767 876 704 869 739 b 568 858 819 811 726 858 b 313 782 494 858 406 853 b 192 485 242 728 192 622 b 321 158 192 318 278 199 b 633 35 418 68 521 35 b 765 57 676 35 733 39 b 790 93 781 65 790 71 "},"h":{"ha":1176,"x_min":0,"x_max":0,"o":"m 961 339 b 968 83 961 225 963 132 b 1013 21 972 49 975 26 b 1067 15 1029 18 1057 15 b 1078 6 1075 15 1078 10 b 1057 -4 1078 0 1071 -4 b 906 0 990 -4 913 0 b 785 -4 900 0 821 -4 b 765 6 771 -4 765 -1 b 775 15 765 10 768 15 b 811 21 786 15 800 18 b 844 85 836 26 840 50 b 850 336 850 133 850 222 l 850 454 b 843 461 850 460 847 461 l 333 461 b 326 454 329 461 326 460 l 326 336 b 332 83 326 222 326 132 b 376 21 336 49 340 26 b 432 15 394 18 421 15 b 442 6 439 15 442 10 b 422 -4 442 0 436 -4 b 271 0 354 -4 276 0 b 149 -4 264 0 186 -4 b 129 6 136 -4 129 -1 b 139 15 129 10 132 15 b 176 21 150 15 165 18 b 208 83 200 26 203 49 b 215 339 215 132 215 225 l 215 547 b 213 801 215 731 215 764 b 163 867 210 842 203 861 b 121 869 153 868 132 869 b 111 879 117 869 111 875 b 131 889 111 886 117 889 b 271 886 186 889 264 886 b 392 889 276 886 354 889 b 411 879 406 889 411 886 b 401 869 411 875 406 869 b 371 867 393 869 385 869 b 328 801 338 860 331 843 b 326 544 326 764 326 728 l 326 519 b 333 513 326 513 329 513 l 843 513 b 850 519 847 513 850 513 l 850 544 b 847 801 850 728 849 764 b 799 867 844 842 839 861 b 757 869 789 868 768 869 b 747 879 751 869 747 875 b 767 889 747 886 753 889 b 906 886 821 889 900 886 b 1026 889 913 886 990 889 b 1047 879 1040 889 1047 886 b 1036 869 1047 875 1042 869 b 1006 867 1028 869 1021 869 b 964 801 974 860 967 843 b 961 547 961 764 961 731 "},"i":{"ha":540,"x_min":0,"x_max":0,"o":"m 326 339 b 332 83 326 225 326 132 b 376 21 336 49 340 26 b 432 15 394 18 421 15 b 442 6 439 15 442 10 b 422 -4 442 0 436 -4 b 269 0 354 -4 275 0 b 149 -4 263 0 186 -4 b 129 6 136 -4 129 -1 b 139 15 129 10 132 15 b 176 21 150 15 165 18 b 208 83 200 26 204 49 b 215 339 214 132 215 225 l 215 547 b 213 801 215 731 215 764 b 174 865 210 842 200 860 b 136 869 160 868 144 869 b 126 879 131 869 126 875 b 146 889 126 886 132 889 b 269 886 186 889 263 886 b 392 889 275 886 354 889 b 411 879 406 889 411 886 b 401 869 411 875 406 869 b 371 867 393 869 385 869 b 328 801 338 860 331 843 b 326 547 326 764 326 731 "},"j":{"ha":513,"x_min":0,"x_max":0,"o":"m 326 264 b 286 -85 326 72 322 -1 b 107 -265 260 -144 206 -200 b 57 -296 90 -276 69 -289 b 49 -297 56 -296 53 -297 b 40 -290 46 -297 40 -296 b 56 -271 40 -283 44 -278 b 99 -239 71 -262 88 -249 b 215 206 178 -160 215 -99 l 215 547 b 213 801 215 731 215 764 b 163 867 210 842 203 861 b 121 869 153 868 132 869 b 111 879 117 869 111 875 b 131 889 111 886 117 889 b 272 886 186 889 265 886 b 392 889 278 886 354 889 b 411 879 406 889 411 886 b 401 869 411 875 406 869 b 371 867 393 869 385 869 b 328 801 338 860 331 843 b 326 547 326 764 326 731 "},"k":{"ha":925,"x_min":0,"x_max":0,"o":"m 215 547 b 213 801 215 731 215 764 b 163 867 210 842 203 861 b 121 869 153 868 132 869 b 111 879 117 869 111 875 b 131 889 111 886 117 889 b 268 886 186 889 261 886 b 389 889 279 886 353 889 b 408 879 403 889 408 886 b 399 869 408 875 404 869 b 368 867 390 869 383 869 b 325 801 336 860 328 843 b 322 547 322 764 322 731 l 322 476 l 328 476 b 611 761 347 499 565 714 b 678 846 646 796 678 826 b 663 869 678 861 672 868 b 651 881 656 871 651 876 b 665 889 651 886 657 889 b 757 886 690 889 728 886 b 875 889 764 886 844 889 b 893 881 888 889 893 886 b 881 871 893 875 890 871 b 813 854 863 871 836 864 b 685 754 763 832 739 806 b 419 497 654 726 446 526 b 756 163 451 463 706 208 b 931 32 858 71 872 56 b 1006 15 963 19 997 15 b 1021 6 1014 15 1021 11 b 994 -4 1021 0 1015 -4 l 932 -4 b 847 -1 897 -4 875 -4 b 699 71 783 4 751 31 b 328 454 643 114 386 385 l 322 454 l 322 339 b 328 83 322 225 322 132 b 375 21 332 49 338 26 b 422 15 392 18 411 15 b 432 6 429 15 432 10 b 413 -4 432 0 426 -4 b 269 0 353 -4 279 0 b 149 -4 260 0 186 -4 b 129 6 136 -4 129 -1 b 139 15 129 10 132 15 b 176 21 150 15 165 18 b 208 83 200 26 203 49 b 215 339 215 132 215 225 "},"l":{"ha":743,"x_min":0,"x_max":0,"o":"m 326 336 b 351 71 326 163 329 92 b 514 43 371 51 418 43 b 661 79 578 43 632 44 b 690 146 676 97 686 122 b 703 161 692 154 696 161 b 711 143 708 161 711 156 b 693 25 711 131 703 60 b 615 -7 685 -3 681 -7 b 403 -3 528 -7 460 -6 b 269 0 347 -1 306 0 b 219 -1 264 0 243 0 b 149 -4 194 -3 168 -4 b 129 6 136 -4 129 -1 b 139 15 129 10 132 15 b 176 21 150 15 165 18 b 208 83 200 26 203 49 b 215 339 215 132 215 225 l 215 547 b 213 801 215 731 215 764 b 163 867 210 842 203 861 b 121 869 153 868 132 869 b 111 879 117 869 111 875 b 131 889 111 886 117 889 b 269 886 186 889 263 886 b 404 889 275 886 367 889 b 424 879 417 889 424 886 b 414 871 424 875 418 871 b 374 868 406 871 388 869 b 328 801 338 861 331 843 b 326 547 326 764 326 731 "},"m":{"ha":1283,"x_min":0,"x_max":0,"o":"m 1131 149 b 1193 26 1135 107 1143 43 b 1272 15 1228 15 1260 15 b 1282 7 1278 15 1282 13 b 1257 -4 1282 0 1271 -4 b 1049 3 1229 -4 1093 -1 b 1014 15 1019 6 1014 10 b 1022 25 1014 19 1017 24 b 1028 67 1029 26 1031 44 l 969 664 l 967 664 l 672 61 b 629 -1 647 10 640 -1 b 588 53 618 -1 611 10 b 444 326 556 111 475 263 b 289 649 408 401 310 600 l 283 649 l 236 115 b 235 56 235 97 235 75 b 264 22 235 38 246 26 b 311 15 285 17 303 15 b 321 7 315 15 321 11 b 299 -4 321 -1 313 -4 b 185 0 253 -4 194 0 b 82 -4 174 0 115 -4 b 61 7 69 -4 61 -1 b 74 15 61 11 67 15 b 110 19 83 15 92 17 b 157 114 150 26 151 69 l 246 885 b 260 906 247 897 253 906 b 285 888 268 906 278 901 l 654 154 l 1010 886 b 1029 906 1015 897 1021 906 b 1047 874 1038 906 1044 896 "},"n":{"ha":1157,"x_min":0,"x_max":0,"o":"m 267 157 b 314 22 269 60 281 31 b 375 15 336 17 364 15 b 385 6 381 15 385 11 b 363 -4 385 -1 376 -4 b 233 0 293 -4 244 0 b 115 -4 222 0 171 -4 b 96 6 103 -4 96 -3 b 106 15 96 11 100 15 b 156 22 115 15 138 17 b 190 169 186 31 190 63 l 190 846 b 207 906 190 893 197 906 b 254 869 221 906 242 882 b 640 467 274 850 451 661 b 929 163 761 342 892 201 l 917 754 b 871 864 915 831 908 857 b 811 869 849 868 821 869 b 801 881 803 869 801 876 b 825 889 801 888 811 889 b 953 886 881 889 939 886 b 1057 889 967 886 1007 889 b 1079 881 1069 889 1079 888 b 1065 869 1079 876 1074 869 b 1036 867 1060 869 1050 869 b 993 764 996 858 993 835 l 990 72 b 981 -12 990 -6 989 -12 b 888 60 968 -12 956 -3 b 569 379 875 71 699 244 b 253 714 428 528 290 672 "},"o":{"ha":1122,"x_min":0,"x_max":0,"o":"m 76 444 b 561 906 76 635 224 906 b 1044 463 836 906 1044 738 b 554 -19 1044 199 849 -19 b 76 444 219 -19 76 232 m 203 476 b 589 29 203 201 368 29 b 919 429 699 29 919 88 b 554 861 919 713 747 861 b 203 476 350 861 203 733 "},"p":{"ha":814,"x_min":0,"x_max":0,"o":"m 215 547 b 213 801 215 731 215 764 b 163 867 210 842 203 861 b 121 869 153 868 132 869 b 111 879 117 869 111 875 b 131 889 111 886 117 889 b 272 886 186 889 263 886 b 446 889 299 886 390 889 b 679 822 603 889 658 840 b 740 681 707 797 740 744 b 425 399 740 511 613 399 b 390 400 418 399 397 399 b 378 411 385 400 378 406 b 410 424 378 421 385 424 b 636 614 542 424 636 507 b 567 793 636 653 632 729 b 401 850 503 857 429 850 b 333 842 381 850 346 844 b 324 819 326 840 324 832 l 324 339 b 329 83 324 225 324 132 b 378 21 333 49 340 26 b 432 15 394 18 421 15 b 442 6 439 15 442 10 b 422 -4 442 0 436 -4 b 269 0 356 -4 275 0 b 149 -4 265 0 186 -4 b 129 6 136 -4 129 -1 b 139 15 129 10 132 15 b 176 21 150 15 165 18 b 208 83 200 26 203 49 b 215 339 215 132 215 225 "},"q":{"ha":1125,"x_min":0,"x_max":0,"o":"m 747 17 b 554 -19 703 -6 619 -19 b 75 444 217 -19 75 232 b 560 906 75 635 222 906 b 1043 463 835 906 1043 736 b 828 67 1043 256 908 117 l 1078 -57 b 1590 -196 1344 -189 1529 -196 b 1829 -150 1651 -196 1744 -181 b 1847 -146 1838 -147 1843 -146 b 1854 -154 1851 -146 1854 -151 b 1844 -167 1854 -160 1851 -164 b 1456 -249 1775 -197 1636 -249 b 950 -93 1307 -249 1147 -200 m 200 476 b 586 29 200 204 365 29 b 918 429 696 29 918 89 b 551 861 918 710 744 861 b 200 476 347 861 200 735 "},"r":{"ha":933,"x_min":0,"x_max":0,"o":"m 215 547 b 213 801 215 731 215 764 b 163 867 210 842 203 861 b 121 869 153 868 132 869 b 111 879 117 869 111 875 b 131 889 111 886 117 889 b 275 886 186 889 268 886 b 428 889 288 886 390 889 b 656 838 506 889 592 882 b 740 676 686 815 740 758 b 590 407 740 589 704 504 b 846 101 690 282 775 175 b 982 19 911 35 951 24 b 1025 15 1006 15 1018 15 b 1036 6 1032 15 1036 10 b 1007 -4 1036 -1 1029 -4 l 931 -4 b 800 19 861 -4 831 3 b 633 193 747 47 703 104 b 501 365 582 257 528 333 b 485 372 496 371 493 372 l 329 375 b 321 365 324 375 321 372 l 321 338 b 326 83 321 224 321 132 b 375 21 331 49 338 26 b 429 15 392 18 418 15 b 439 6 438 15 439 10 b 419 -4 439 0 433 -4 b 269 0 353 -4 275 0 b 149 -4 268 0 186 -4 b 129 6 136 -4 129 -1 b 139 15 129 10 132 15 b 176 21 150 15 165 18 b 208 83 200 26 203 49 b 215 339 215 132 215 225 m 321 447 b 329 432 321 440 324 436 b 464 414 347 422 410 414 b 556 435 493 414 526 415 b 629 615 597 463 629 525 b 418 847 629 763 549 847 b 331 840 382 847 343 843 b 321 826 325 838 321 833 "},"s":{"ha":728,"x_min":0,"x_max":0,"o":"m 290 -19 b 113 13 233 -19 163 -11 b 94 57 96 21 94 25 b 101 182 94 115 100 163 b 111 201 101 194 104 201 b 122 188 118 201 122 197 b 126 144 122 178 122 161 b 319 28 146 58 238 28 b 503 185 440 28 503 96 b 349 390 503 269 457 310 l 293 432 b 118 685 161 531 118 603 b 389 907 118 824 228 907 b 515 893 438 907 486 900 b 558 888 539 888 549 888 b 571 879 568 888 571 886 b 565 754 571 874 565 835 b 556 728 565 736 564 728 b 544 743 547 728 546 733 b 526 801 543 757 533 789 b 368 860 518 815 478 860 b 206 732 279 860 206 815 b 364 532 206 657 243 614 l 399 508 b 599 224 547 407 599 325 b 485 22 599 154 572 79 b 290 -19 433 -11 357 -19 "},"t":{"ha":847,"x_min":0,"x_max":0,"o":"m 482 339 b 488 83 482 225 482 132 b 535 21 492 49 497 26 b 590 15 551 18 579 15 b 600 6 599 15 600 10 b 581 -4 600 0 594 -4 b 429 0 514 -4 436 0 b 303 -4 424 0 339 -4 b 283 6 289 -4 283 -1 b 293 14 283 10 286 14 b 329 19 304 14 318 17 b 365 83 354 25 361 49 b 371 339 371 132 371 225 l 371 835 l 194 832 b 71 794 118 831 89 822 b 51 757 57 774 56 765 b 39 746 49 747 44 746 b 31 756 36 746 31 749 b 57 883 31 768 56 874 b 69 906 60 890 65 906 b 124 892 78 906 90 896 b 219 886 158 888 206 886 l 681 886 b 768 892 721 886 749 889 b 803 897 786 894 797 897 b 808 883 808 897 808 890 b 804 749 808 847 804 763 b 793 733 804 739 799 733 b 783 754 788 733 785 738 l 782 767 b 635 832 778 803 751 829 l 482 835 "},"u":{"ha":1017,"x_min":0,"x_max":0,"o":"m 153 547 b 150 801 153 731 153 764 b 100 867 147 839 140 861 b 58 869 90 868 69 869 b 49 879 54 869 49 875 b 68 889 49 886 54 889 b 208 886 124 889 197 886 b 332 889 219 886 296 889 b 353 879 346 889 353 886 b 342 869 353 875 347 869 b 311 867 333 869 326 869 b 269 801 279 861 272 840 b 267 547 267 764 267 731 l 267 382 b 357 93 267 211 304 140 b 539 29 417 39 469 29 b 728 113 614 29 686 63 b 797 399 785 181 797 278 l 797 547 b 794 801 797 731 796 764 b 746 867 793 839 786 861 b 704 869 736 868 715 869 b 694 879 699 869 694 875 b 714 889 694 886 700 889 b 846 886 768 889 839 886 b 949 889 854 886 913 889 b 968 879 963 889 968 886 b 958 869 968 875 964 869 b 928 867 950 869 943 869 b 885 801 894 860 888 840 b 883 547 882 764 883 731 l 883 421 b 769 67 883 293 867 150 b 514 -19 681 -10 586 -19 b 260 64 474 -19 346 -17 b 153 374 200 119 153 201 "},"v":{"ha":907,"x_min":0,"x_max":0,"o":"m 483 150 b 740 796 554 308 714 711 b 751 840 746 814 751 831 b 735 865 751 850 747 861 b 693 869 721 869 707 869 b 679 879 686 869 679 874 b 707 889 679 886 688 889 b 826 886 756 889 811 886 b 922 889 833 886 886 889 b 942 881 935 889 942 886 b 928 869 942 875 938 869 b 869 856 919 869 892 869 b 801 747 853 844 833 828 b 665 428 788 714 728 572 b 508 69 590 256 536 128 b 456 -19 475 -1 468 -19 b 410 53 442 -19 433 -4 l 110 776 b 25 865 82 843 65 856 b -22 869 6 869 -15 869 b -32 881 -29 869 -32 876 b 0 889 -32 888 -19 889 b 143 886 58 889 128 886 b 257 889 156 886 210 889 b 290 881 279 889 290 886 b 278 869 290 875 286 869 b 233 864 264 869 244 868 b 219 843 221 858 219 851 b 253 744 219 828 235 792 "},"w":{"ha":1344,"x_min":0,"x_max":0,"o":"m 975 171 l 981 171 b 1164 761 1011 268 1121 610 b 1178 835 1176 806 1178 819 b 1113 869 1178 856 1168 869 b 1101 881 1106 869 1101 876 b 1122 889 1101 886 1107 889 b 1247 886 1185 889 1236 886 b 1346 889 1256 886 1308 889 b 1363 882 1357 889 1363 886 b 1351 869 1363 876 1360 869 b 1310 864 1347 869 1324 868 b 1231 739 1274 851 1254 804 b 1007 82 1176 589 1056 214 b 954 -19 975 -6 968 -19 b 914 42 942 -19 931 -4 l 675 688 b 424 43 633 585 468 153 b 381 -19 403 -7 394 -19 b 333 74 368 -19 358 -7 l 117 774 b 53 863 97 836 85 851 b -3 869 36 868 6 869 b -14 881 -8 869 -14 874 b 6 889 -14 886 -6 889 b 150 886 69 889 138 886 b 278 889 161 886 217 889 b 300 881 294 889 300 886 b 288 869 300 874 293 869 b 244 863 278 869 258 869 b 228 838 236 860 228 853 b 251 728 228 822 238 781 b 411 171 271 653 396 219 l 414 171 l 669 831 b 703 885 688 878 696 885 b 736 829 711 885 721 869 "},"x":{"ha":849,"x_min":0,"x_max":0,"o":"m 369 453 l 175 769 b 82 861 147 815 124 849 b 31 869 63 867 38 869 b 19 881 24 869 19 876 b 40 889 19 886 25 889 b 183 886 75 889 174 886 b 303 889 194 886 261 889 b 324 881 319 889 324 886 b 313 869 324 875 319 869 b 279 867 304 869 289 869 b 264 849 268 865 264 857 b 276 810 264 838 269 822 b 438 531 328 717 374 632 b 614 806 474 582 603 781 b 626 847 624 822 626 833 b 606 867 626 856 618 863 b 572 869 593 869 579 869 b 561 881 565 869 561 875 b 582 889 561 886 567 889 b 690 886 628 889 679 886 b 793 889 701 886 751 889 b 813 881 807 889 813 886 b 800 869 813 876 808 869 b 758 864 790 869 772 868 b 667 771 724 853 701 822 l 471 485 b 729 74 494 449 703 106 b 799 22 749 49 763 32 b 840 15 815 18 833 15 b 850 6 847 15 850 11 b 833 -4 850 0 844 -4 b 633 -1 758 -4 700 -4 b 596 8 601 0 596 3 b 603 18 596 13 599 17 b 610 51 610 19 621 32 b 403 400 543 167 476 281 l 215 90 b 200 38 204 71 200 50 b 219 18 200 26 208 21 b 242 15 226 17 236 15 b 253 4 249 15 253 10 b 238 -4 253 -1 246 -4 b 117 0 208 -4 128 0 b 6 -4 107 0 46 -4 b -6 4 -4 -4 -6 0 b 4 15 -6 10 -3 15 b 50 22 14 15 32 18 b 150 114 86 32 111 54 "},"y":{"ha":800,"x_min":0,"x_max":0,"o":"m 354 303 b 328 424 354 367 346 390 b 111 767 318 442 153 704 b 31 853 82 811 53 838 b -21 869 13 864 -11 869 b -33 881 -28 869 -33 875 b -18 889 -33 886 -29 889 b 103 886 6 889 97 886 b 208 889 111 886 161 889 b 225 881 222 889 225 886 b 206 868 225 876 217 872 b 190 849 196 864 190 858 b 207 803 190 832 199 818 l 429 435 b 629 776 454 485 607 738 b 650 838 644 803 650 822 b 631 868 650 854 644 864 b 613 882 619 871 613 876 b 632 889 613 886 619 889 b 717 886 664 889 707 886 b 836 889 725 886 813 889 b 851 882 844 889 851 886 b 836 869 851 876 846 869 b 779 854 822 869 799 865 b 718 796 756 840 744 828 b 481 421 678 749 506 471 b 465 303 460 379 465 342 l 465 201 b 469 83 465 182 465 132 b 517 21 472 49 481 26 b 572 15 533 18 561 15 b 582 6 579 15 582 10 b 563 -4 582 0 575 -4 b 408 0 494 -4 415 0 b 289 -4 403 0 325 -4 b 269 6 275 -4 269 -1 b 279 15 269 10 272 15 b 315 21 290 15 304 18 b 351 83 340 26 349 49 b 354 201 354 132 354 182 "},"z":{"ha":846,"x_min":0,"x_max":0,"o":"m 564 51 b 754 106 693 51 726 72 b 779 169 767 121 775 153 b 793 188 782 181 786 188 b 803 161 800 188 803 183 b 778 25 803 124 786 54 b 742 -6 771 -4 769 -6 b 117 0 538 -6 331 0 b 94 10 103 0 94 1 b 111 46 94 15 96 24 b 643 836 294 311 475 574 l 385 836 b 211 817 322 836 250 838 b 142 724 168 794 146 751 b 125 703 139 706 132 703 b 118 718 119 703 118 708 b 143 875 118 732 136 839 b 154 897 144 892 147 897 b 206 889 165 897 174 890 b 419 886 322 885 381 886 l 761 886 b 786 876 779 886 786 883 b 779 856 786 871 785 863 b 239 51 601 583 424 319 "},"{":{"ha":500,"x_min":0,"x_max":0,"o":"m 186 485 b 267 375 215 469 251 431 b 281 167 281 324 281 279 b 385 -147 281 -67 338 -128 b 415 -165 411 -157 415 -160 b 390 -172 415 -171 411 -172 b 247 -79 364 -172 299 -150 b 176 238 211 -29 176 40 b 186 386 176 279 186 340 b 176 431 186 404 183 419 b 94 465 163 454 133 458 b 78 476 79 468 78 469 b 94 489 78 485 79 488 b 190 583 167 493 190 499 b 176 732 190 635 176 699 b 265 976 176 872 213 928 b 396 1033 308 1015 367 1033 b 414 1026 408 1033 414 1031 b 392 1014 414 1021 408 1019 b 281 840 358 1004 281 958 b 269 590 281 715 285 647 b 186 485 257 542 215 496 "},"|":{"ha":708,"x_min":0,"x_max":0,"o":"m 317 -347 l 317 1042 l 392 1042 l 392 -347 "},"}":{"ha":500,"x_min":0,"x_max":0,"o":"m 314 485 b 231 590 285 496 243 542 b 219 840 215 647 219 715 b 108 1014 219 958 140 1004 b 86 1025 92 1019 86 1019 b 104 1033 86 1031 92 1033 b 235 976 133 1033 192 1015 b 324 732 288 928 324 872 b 325 511 324 678 292 543 b 406 489 351 486 385 490 b 422 476 421 488 422 485 b 406 465 422 469 421 468 b 324 431 367 458 338 454 b 324 238 301 394 324 297 b 253 -79 324 40 289 -29 b 110 -172 201 -150 136 -172 b 85 -167 89 -172 85 -171 b 115 -147 85 -160 89 -157 b 219 167 163 -131 219 -67 b 233 375 219 268 217 315 b 314 485 249 431 285 469 "},"~":{"ha":708,"x_min":0,"x_max":0,"o":"m 85 278 b 217 443 82 392 140 443 b 368 396 263 443 297 429 b 497 350 421 371 461 350 b 554 442 535 349 553 382 l 622 442 b 494 276 628 317 565 276 b 342 324 451 276 413 289 b 214 371 292 349 251 371 b 153 279 176 371 154 343 "},"¡":{"ha":444,"x_min":0,"x_max":0,"o":"m 225 926 b 294 856 274 926 294 888 b 224 785 294 826 274 785 b 153 851 183 785 153 811 b 225 926 153 893 182 926 m 263 247 b 283 -15 264 226 272 28 b 289 -42 286 -26 289 -35 b 282 -61 289 -49 286 -54 b 179 -156 263 -94 218 -136 b 158 -162 168 -161 164 -162 b 150 -149 153 -162 150 -160 b 171 35 150 -139 164 -68 b 203 644 172 60 200 611 b 219 689 204 664 206 689 b 240 617 233 689 238 671 "},"¢":{"ha":793,"x_min":0,"x_max":0,"o":"m 443 226 b 511 224 467 225 488 224 b 692 331 608 224 672 242 b 704 351 694 344 699 351 b 713 335 710 351 713 344 b 694 207 713 325 700 233 b 676 183 690 192 688 186 b 492 161 614 167 543 161 b 432 163 469 161 453 161 l 413 -25 b 400 -40 411 -35 407 -39 l 368 -47 b 356 -39 358 -50 354 -47 l 381 172 b 85 529 215 203 85 328 b 193 788 85 663 153 753 b 463 881 267 850 339 875 l 478 1019 b 492 1032 479 1026 481 1029 l 519 1038 b 533 1029 529 1039 535 1036 l 515 879 b 707 844 561 879 640 869 b 717 825 717 839 717 836 b 708 697 717 793 711 717 b 697 681 707 685 703 681 b 690 697 692 681 690 686 b 663 775 688 721 683 749 b 506 829 644 796 589 825 m 453 831 b 188 567 288 831 188 715 b 390 242 188 371 294 276 "},"£":{"ha":793,"x_min":0,"x_max":0,"o":"m 25 0 b -15 14 4 0 -15 1 b 13 38 -15 28 -3 35 b 200 350 151 67 181 194 l 218 496 l 114 496 b 85 493 97 496 90 493 b 81 506 79 493 78 499 l 97 535 b 117 546 101 544 107 546 l 226 546 l 240 643 b 385 988 257 763 290 906 b 594 1065 461 1054 542 1065 b 715 1049 639 1065 686 1058 b 753 1042 729 1046 740 1043 b 763 1025 760 1040 763 1033 b 756 867 763 957 758 883 b 744 850 754 857 751 850 b 733 871 738 850 733 856 b 700 964 733 890 722 935 b 563 1017 675 997 631 1017 b 357 756 454 1017 376 924 l 332 546 l 483 546 b 549 553 522 546 542 553 b 556 539 556 553 560 549 l 540 506 b 518 494 536 497 529 494 l 324 494 l 317 436 b 163 81 307 360 276 179 l 165 78 l 599 82 b 728 196 675 83 714 113 b 739 210 729 206 733 210 b 749 189 744 210 749 206 b 725 21 749 174 735 69 b 640 -7 719 -3 719 -7 b 500 -3 589 -7 546 -6 b 349 0 454 -1 407 0 "},"⁄":{"ha":111,"x_min":0,"x_max":0,"o":"m -343 4 b -342 22 -349 7 -349 14 l 411 1004 b 426 1008 417 1011 418 1014 l 453 989 b 456 975 458 985 458 979 l -299 -15 b -315 -19 -304 -24 -310 -24 "},"¥":{"ha":793,"x_min":0,"x_max":0,"o":"m 449 229 b 449 93 449 179 447 124 b 513 21 450 50 465 28 b 575 17 532 18 563 17 b 588 6 581 17 588 11 b 565 -4 588 -1 581 -4 b 399 0 492 -4 403 0 b 232 -4 392 0 306 -4 b 208 6 214 -4 208 -1 b 218 17 208 11 211 17 b 282 21 232 17 264 18 b 347 93 331 28 346 50 b 349 229 349 124 349 179 l 349 425 l 124 425 b 114 440 111 425 111 431 l 124 469 b 139 478 126 476 131 478 l 346 478 b 90 904 311 529 133 829 b 4 1007 61 954 26 992 b -57 1025 -19 1022 -49 1025 b -72 1035 -64 1025 -72 1028 b -58 1046 -72 1042 -67 1046 b 74 1042 -33 1046 67 1042 b 185 1046 82 1042 132 1046 b 203 1035 193 1046 203 1043 b 183 1022 203 1029 193 1025 b 164 997 172 1019 164 1008 b 182 944 164 983 171 965 b 418 532 204 906 388 576 b 628 915 447 581 600 868 b 654 989 646 946 654 968 b 632 1021 654 1004 649 1014 b 610 1036 621 1025 610 1028 b 632 1046 610 1043 619 1046 b 718 1042 667 1046 708 1042 b 847 1046 726 1042 822 1046 b 865 1036 856 1046 865 1043 b 849 1025 865 1029 858 1025 b 789 1008 833 1025 807 1018 b 717 938 758 993 744 975 b 450 478 672 881 500 561 l 675 478 b 688 465 686 478 690 472 l 679 433 b 660 425 676 426 669 425 l 449 425 "},"ƒ":{"ha":793,"x_min":0,"x_max":0,"o":"m 221 475 b 117 471 160 475 132 474 b 104 483 107 469 100 475 l 118 511 b 138 528 122 519 129 528 b 201 524 144 528 168 524 l 286 524 b 421 956 304 722 343 861 b 649 1065 471 1015 531 1065 b 788 1040 706 1065 749 1057 b 804 1019 803 1033 804 1026 b 789 869 804 1000 800 950 b 776 843 786 850 782 843 b 767 869 768 843 767 850 b 744 961 767 906 758 933 b 631 1018 729 990 690 1018 b 460 903 554 1018 494 983 b 390 524 426 825 406 661 l 551 524 b 649 529 614 524 639 529 b 656 508 658 529 663 521 l 640 482 b 613 468 635 472 624 468 b 483 474 603 468 536 474 l 386 474 b 321 1 369 358 344 118 b 142 -301 288 -162 235 -257 b 42 -322 114 -315 74 -322 b -10 -310 6 -322 -10 -318 b 0 -296 -10 -301 -6 -296 b 163 -221 69 -296 122 -287 b 233 85 194 -168 214 -86 l 278 475 "},"§":{"ha":828,"x_min":0,"x_max":0,"o":"m 567 129 b 639 -43 622 72 639 18 b 524 -249 639 -110 610 -192 b 339 -297 471 -283 390 -297 b 139 -265 243 -297 189 -289 b 121 -221 122 -257 121 -253 b 128 -96 121 -162 126 -115 b 138 -76 128 -83 131 -76 b 149 -90 144 -76 149 -81 b 153 -133 149 -100 149 -117 b 353 -250 172 -219 257 -250 b 543 -82 465 -250 543 -185 b 361 151 543 18 472 71 l 317 183 b 118 450 182 281 118 338 b 278 661 118 557 203 631 b 183 839 218 719 183 775 b 465 1064 183 993 324 1064 b 597 1050 539 1064 568 1057 b 640 1044 621 1044 631 1044 b 653 1036 650 1044 653 1043 b 647 911 653 1031 647 992 b 638 885 647 893 646 885 b 626 900 629 885 628 890 b 608 958 625 914 615 946 b 443 1017 600 972 571 1017 b 271 871 356 1017 271 972 b 464 654 271 783 347 735 l 500 629 b 708 361 639 533 708 465 b 567 129 708 249 647 175 m 532 161 b 628 318 592 194 628 265 b 447 529 628 410 557 451 l 389 571 b 315 628 361 590 339 608 b 196 481 251 608 196 544 b 375 275 196 397 256 356 l 414 249 b 532 161 456 221 501 190 "},"¤":{"ha":793,"x_min":0,"x_max":0,"o":"m 582 539 b 621 400 603 507 621 458 b 581 251 619 335 603 283 l 671 165 l 613 106 l 529 200 b 393 149 493 167 439 149 b 257 197 344 147 289 167 l 175 106 l 119 165 l 207 250 b 163 392 183 282 163 332 b 208 539 163 457 185 506 l 117 624 l 174 683 l 257 592 b 394 640 292 622 342 640 l 396 640 b 532 593 451 640 499 622 l 618 683 l 676 624 m 528 397 b 393 556 528 479 479 556 l 392 556 b 257 394 310 556 257 485 b 392 233 257 282 332 233 b 528 397 457 233 528 279 "},"'":{"ha":278,"x_min":0,"x_max":0,"o":"m 139 1049 b 197 1029 174 1049 197 1049 b 154 785 197 1007 167 938 b 139 722 150 729 146 722 b 124 785 132 722 128 729 b 81 1029 111 938 81 1007 b 139 1049 81 1049 104 1049 "},"“":{"ha":451,"x_min":0,"x_max":0,"o":"m 338 915 b 365 825 338 872 356 836 b 378 801 376 813 378 808 b 365 793 378 797 371 793 b 268 818 343 793 290 810 b 244 854 251 826 244 833 b 364 1128 244 953 315 1069 b 382 1139 369 1136 375 1139 b 389 1132 385 1139 389 1136 b 383 1114 389 1128 388 1124 b 338 915 363 1069 338 994 m 157 915 b 185 825 157 872 175 836 b 197 801 196 813 197 808 b 185 793 197 797 190 793 b 88 818 163 793 110 810 b 64 854 71 826 64 833 b 183 1128 64 953 135 1069 b 201 1139 189 1136 194 1139 b 208 1132 204 1139 208 1136 b 203 1114 208 1128 207 1124 b 157 915 182 1069 157 994 "},"«":{"ha":778,"x_min":0,"x_max":0,"o":"m 626 149 b 615 142 624 144 618 142 b 583 172 613 142 604 149 b 389 383 551 208 417 356 b 364 417 371 401 364 408 b 390 447 364 421 371 431 b 638 689 419 472 625 676 b 663 704 649 699 656 704 b 675 693 668 704 675 699 b 667 675 675 686 671 679 b 457 424 660 667 499 481 b 654 225 478 399 586 285 b 674 204 669 211 674 207 b 668 194 674 201 671 197 m 367 149 b 356 142 364 144 358 142 b 324 172 353 142 344 149 b 129 383 292 208 157 356 b 104 417 111 401 104 408 b 131 447 104 421 111 431 b 378 689 160 472 365 676 b 403 704 389 699 396 704 b 415 693 408 704 415 699 b 407 675 415 686 411 679 b 197 424 400 667 239 481 b 394 225 218 399 326 285 b 414 204 410 211 414 207 b 408 194 414 201 411 197 "},"‹":{"ha":521,"x_min":0,"x_max":0,"o":"m 367 149 b 356 142 364 144 358 142 b 324 172 353 142 344 149 b 129 383 292 208 157 356 b 104 417 111 401 104 408 b 131 447 104 421 111 431 b 378 689 160 472 365 676 b 403 704 389 699 396 704 b 415 693 408 704 415 699 b 407 675 415 686 411 679 b 197 424 400 667 239 481 b 394 225 218 399 326 285 b 414 204 410 211 414 207 b 408 194 414 201 411 197 "},"›":{"ha":521,"x_min":0,"x_max":0,"o":"m 154 697 b 165 704 157 701 163 704 b 197 674 168 704 176 697 b 392 463 229 638 364 490 b 417 429 410 444 417 438 b 390 399 417 425 410 415 b 143 157 361 374 156 169 b 118 142 132 147 125 142 b 106 153 113 142 106 147 b 114 171 106 160 110 167 b 324 422 121 179 282 365 b 126 621 303 447 194 561 b 107 642 111 635 107 639 b 113 651 107 644 110 649 "},"ﬁ":{"ha":1283,"x_min":0,"x_max":0,"o":"m 215 547 b 213 801 215 731 215 764 b 163 867 210 842 203 861 b 121 869 153 868 132 869 b 111 879 117 869 111 875 b 131 889 111 886 117 889 b 269 886 186 889 263 886 b 586 886 293 886 558 885 b 642 892 610 888 631 888 b 658 899 649 893 654 899 b 667 888 664 899 667 893 b 657 832 667 879 661 865 b 651 754 656 821 654 768 b 640 742 650 749 646 742 b 631 756 635 742 631 747 b 619 800 631 765 626 785 b 536 835 613 815 583 835 l 336 838 b 326 825 329 838 326 835 l 326 503 b 335 492 326 496 326 492 l 501 493 b 557 494 522 493 540 493 b 614 515 586 497 603 501 b 629 528 619 522 625 528 b 636 518 635 528 636 524 b 625 453 636 511 628 492 b 621 374 622 429 621 382 b 610 350 621 363 618 350 b 601 361 603 350 601 356 b 593 404 600 374 599 390 b 531 442 588 421 568 436 b 335 444 500 446 356 444 b 326 433 328 444 326 442 l 326 339 b 332 83 326 222 326 129 b 376 21 336 49 343 26 b 432 15 394 18 421 15 b 442 6 439 15 442 10 b 422 -4 442 0 436 -4 b 269 0 354 -4 275 0 b 149 -4 263 0 186 -4 b 129 6 136 -4 129 -1 b 139 15 129 10 132 15 b 176 21 150 15 165 19 b 208 83 200 25 203 49 b 215 339 215 132 215 225 m 1069 339 b 1075 83 1069 225 1069 132 b 1119 21 1079 49 1083 26 b 1175 15 1138 18 1164 15 b 1185 6 1182 15 1185 10 b 1165 -4 1185 0 1179 -4 b 1013 0 1097 -4 1018 0 b 892 -4 1006 0 929 -4 b 872 6 879 -4 872 -1 b 882 15 872 10 875 15 b 919 21 893 15 908 18 b 951 83 943 26 947 49 b 958 339 957 132 958 225 l 958 547 b 956 801 958 731 958 764 b 917 865 953 842 943 860 b 879 869 903 868 888 869 b 869 879 874 869 869 875 b 889 889 869 886 875 889 b 1013 886 929 889 1006 886 b 1135 889 1018 886 1097 889 b 1154 879 1149 889 1154 886 b 1144 869 1154 875 1149 869 b 1114 867 1136 869 1128 869 b 1071 801 1081 860 1074 843 b 1069 547 1069 764 1069 731 "},"ﬂ":{"ha":1486,"x_min":0,"x_max":0,"o":"m 215 547 b 213 801 215 731 215 764 b 163 867 210 842 203 861 b 121 869 153 868 132 869 b 111 879 117 869 111 875 b 131 889 111 886 117 889 b 269 886 186 889 263 886 b 586 886 293 886 558 885 b 642 892 610 888 631 888 b 658 899 649 893 654 899 b 667 888 664 899 667 893 b 657 832 667 879 661 865 b 651 754 656 821 654 768 b 640 742 650 749 646 742 b 631 756 635 742 631 747 b 619 800 631 765 626 785 b 536 835 613 815 583 835 l 336 838 b 326 825 329 838 326 835 l 326 503 b 335 492 326 496 326 492 l 501 493 b 557 494 522 493 540 493 b 614 515 586 497 603 501 b 629 528 619 522 625 528 b 636 518 635 528 636 524 b 625 453 636 511 628 492 b 621 374 622 429 621 382 b 610 350 621 363 618 350 b 601 361 603 350 601 356 b 593 404 600 374 599 390 b 531 442 588 421 568 436 b 335 444 500 446 356 444 b 326 433 328 444 326 442 l 326 339 b 332 83 326 222 326 129 b 376 21 336 49 343 26 b 432 15 394 18 421 15 b 442 6 439 15 442 10 b 422 -4 442 0 436 -4 b 269 0 354 -4 275 0 b 149 -4 263 0 186 -4 b 129 6 136 -4 129 -1 b 139 15 129 10 132 15 b 176 21 150 15 165 19 b 208 83 200 25 203 49 b 215 339 215 132 215 225 m 1069 336 b 1094 71 1069 163 1072 92 b 1257 43 1114 51 1161 43 b 1404 79 1321 43 1375 44 b 1433 146 1419 97 1429 122 b 1446 161 1435 154 1439 161 b 1454 143 1451 161 1454 156 b 1436 25 1454 131 1446 60 b 1358 -7 1428 -3 1424 -7 b 1146 -3 1271 -7 1203 -6 b 1013 0 1090 -1 1049 0 b 963 -1 1007 0 986 0 b 892 -4 938 -3 911 -4 b 872 6 879 -4 872 -1 b 882 15 872 10 875 15 b 919 21 893 15 908 18 b 951 83 943 26 946 49 b 958 339 958 132 958 225 l 958 547 b 956 801 958 731 958 764 b 906 867 953 842 946 861 b 864 869 896 868 875 869 b 854 879 860 869 854 875 b 874 889 854 886 860 889 b 1013 886 929 889 1006 886 b 1147 889 1018 886 1110 889 b 1167 879 1160 889 1167 886 b 1157 871 1167 875 1161 871 b 1117 868 1149 871 1131 869 b 1071 801 1081 861 1074 843 b 1069 547 1069 764 1069 731 "},"–":{"ha":694,"x_min":0,"x_max":0,"o":"m 0 456 l 694 456 l 694 392 l 0 392 "},"†":{"ha":847,"x_min":0,"x_max":0,"o":"m 371 610 b 360 929 368 742 367 904 b 354 956 357 940 354 949 b 361 975 354 963 357 968 b 457 1058 381 1003 418 1039 b 478 1065 468 1064 472 1065 b 486 1051 483 1065 486 1063 b 474 868 486 1042 481 971 b 467 610 474 861 471 753 l 675 614 b 772 624 738 615 763 624 b 779 603 782 624 785 617 l 757 542 b 729 528 753 532 740 528 b 613 543 719 528 663 542 l 465 547 b 443 -278 454 213 444 -256 b 418 -322 442 -297 438 -322 b 389 -250 399 -322 393 -304 b 372 547 386 -206 372 525 l 301 546 b 89 529 240 544 189 538 b 79 549 79 528 75 533 l 97 607 b 117 624 100 615 108 624 b 181 614 124 624 147 615 l 371 610 "},"‡":{"ha":847,"x_min":0,"x_max":0,"o":"m 454 207 b 443 -278 447 -56 444 -264 b 417 -322 442 -297 436 -322 b 392 -250 397 -322 393 -304 b 382 207 390 -226 386 -8 l 301 206 b 103 192 240 204 203 200 b 93 211 93 190 89 196 l 106 257 b 125 274 108 265 117 274 b 192 267 132 274 158 267 l 381 264 b 375 621 378 426 375 578 l 301 619 b 89 606 240 618 189 614 b 79 625 79 604 74 610 l 94 672 b 114 689 97 681 106 689 b 181 682 121 689 147 683 l 375 678 b 369 956 372 742 376 931 b 364 982 367 967 364 975 b 371 1001 364 989 364 994 b 453 1058 390 1021 414 1043 b 474 1065 464 1063 468 1065 b 482 1051 479 1065 482 1063 b 472 868 482 1042 476 971 b 465 678 472 861 468 753 l 675 682 b 769 689 738 683 760 689 b 776 668 779 689 782 682 l 757 619 b 729 606 753 610 740 606 b 604 617 719 606 654 615 l 464 621 l 456 264 l 664 268 b 754 275 726 269 744 275 b 761 254 764 275 765 268 l 747 208 b 719 194 744 199 731 194 b 604 203 710 194 654 201 "},"·":{"ha":347,"x_min":0,"x_max":0,"o":"m 172 322 b 97 399 119 322 97 364 b 174 475 97 431 119 475 b 250 403 217 475 250 447 b 172 322 250 358 219 322 "},"¶":{"ha":989,"x_min":0,"x_max":0,"o":"m 533 949 b 510 1004 533 985 528 1004 b 365 919 464 1004 399 972 b 317 721 325 857 317 767 b 421 454 317 593 356 497 b 461 428 444 439 461 443 b 446 418 461 421 453 418 b 417 417 439 417 424 417 b 74 721 219 417 74 535 b 168 942 74 818 119 896 b 486 1046 225 996 318 1046 b 633 1042 513 1046 603 1042 b 857 1046 647 1042 794 1046 b 879 1035 872 1046 879 1043 b 868 1026 879 1029 874 1026 b 829 1022 856 1026 840 1025 b 779 943 793 1013 782 990 b 776 643 776 899 776 860 l 776 97 b 779 -181 776 -36 775 -122 b 769 -200 779 -187 775 -194 b 703 -229 751 -217 721 -229 b 694 -222 696 -229 694 -226 b 701 -169 694 -215 700 -199 b 708 97 704 -139 708 -36 l 708 950 b 654 1004 708 979 694 1004 b 603 953 622 1004 606 990 b 601 643 600 899 601 860 l 601 103 b 606 -233 601 -31 600 -175 b 597 -251 607 -240 603 -246 b 528 -281 579 -268 549 -281 b 517 -272 522 -281 517 -279 b 525 -219 517 -269 521 -258 b 533 103 531 -162 533 -31 l 533 949 "},"•":{"ha":583,"x_min":0,"x_max":0,"o":"m 239 549 b 190 643 239 613 207 635 b 171 658 179 649 171 650 b 188 669 171 667 176 669 b 372 639 211 669 303 654 b 414 615 401 633 414 625 b 406 588 414 604 410 594 b 250 422 364 524 307 474 b 222 403 240 414 229 403 b 215 410 219 403 215 406 b 224 438 215 415 221 429 b 239 549 233 471 239 521 "},"‚":{"ha":278,"x_min":0,"x_max":0,"o":"m 118 68 b 90 158 118 111 100 147 b 78 182 79 171 78 175 b 90 190 78 186 85 190 b 188 165 113 190 165 174 b 211 129 204 157 211 150 b 92 -144 211 31 140 -86 b 74 -156 86 -153 81 -156 b 67 -149 71 -156 67 -153 b 72 -131 67 -144 68 -140 b 118 68 93 -86 118 -11 "},"„":{"ha":451,"x_min":0,"x_max":0,"o":"m 114 68 b 86 158 114 111 96 147 b 74 182 75 171 74 175 b 86 190 74 186 81 190 b 183 165 108 190 161 174 b 207 129 200 157 207 150 b 88 -144 207 31 136 -86 b 69 -156 82 -153 76 -156 b 63 -149 67 -156 63 -153 b 68 -131 63 -144 64 -140 b 114 68 89 -86 114 -11 m 294 68 b 267 158 294 111 276 147 b 254 182 256 171 254 175 b 267 190 254 186 261 190 b 364 165 289 190 342 174 b 388 129 381 157 388 150 b 268 -144 388 31 317 -86 b 250 -156 263 -153 257 -156 b 243 -149 247 -156 243 -153 b 249 -131 243 -144 244 -140 b 294 68 269 -86 294 -11 "},"”":{"ha":451,"x_min":0,"x_max":0,"o":"m 114 1017 b 86 1107 114 1060 96 1096 b 74 1131 75 1119 74 1124 b 86 1139 74 1135 81 1139 b 183 1114 108 1139 161 1122 b 207 1078 200 1106 207 1099 b 88 804 207 979 136 863 b 69 793 82 796 76 793 b 63 800 67 793 63 796 b 68 818 63 804 64 808 b 114 1017 89 863 114 938 m 294 1017 b 267 1107 294 1060 276 1096 b 254 1131 256 1119 254 1124 b 267 1139 254 1135 261 1139 b 364 1114 289 1139 342 1122 b 388 1078 381 1106 388 1099 b 268 804 388 979 317 863 b 250 793 263 796 257 793 b 243 800 247 793 243 796 b 249 818 243 804 244 808 b 294 1017 269 863 294 938 "},"»":{"ha":778,"x_min":0,"x_max":0,"o":"m 151 697 b 163 704 154 701 160 704 b 194 674 165 704 174 697 b 389 463 226 638 361 490 b 414 429 407 444 414 438 b 388 399 414 425 407 415 b 140 157 358 374 153 169 b 115 142 129 147 122 142 b 103 153 110 142 103 147 b 111 171 103 160 107 167 b 321 422 118 179 279 365 b 124 621 300 447 192 561 b 104 642 108 635 104 639 b 110 651 104 644 107 649 m 411 697 b 422 704 414 701 419 704 b 454 674 425 704 433 697 b 649 463 486 638 621 490 b 674 429 667 444 674 438 b 647 399 674 425 667 415 b 400 157 618 374 413 169 b 375 142 389 147 382 142 b 363 153 369 142 363 147 b 371 171 363 160 367 167 b 581 422 378 179 539 365 b 383 621 560 447 451 561 b 364 642 368 635 364 639 b 369 651 364 644 367 649 "},"…":{"ha":1389,"x_min":0,"x_max":0,"o":"m 231 0 b 157 74 179 0 157 40 b 231 149 157 106 179 149 b 306 78 274 149 306 121 b 231 0 306 35 275 0 m 694 0 b 621 74 643 0 621 40 b 694 149 621 106 643 149 b 769 78 738 149 769 121 b 694 0 769 35 739 0 m 1158 0 b 1085 74 1107 0 1085 40 b 1158 149 1085 106 1107 149 b 1233 78 1201 149 1233 121 b 1158 0 1233 35 1203 0 "},"‰":{"ha":1689,"x_min":0,"x_max":0,"o":"m 854 0 b 635 232 701 0 635 129 b 863 485 635 353 701 485 b 1082 251 1013 485 1082 356 b 854 0 1082 132 1013 0 m 858 38 b 1000 233 960 38 1000 128 b 857 447 1000 336 950 447 b 717 250 757 447 717 357 b 858 38 717 147 763 38 m 335 -15 b 321 -1 321 -18 317 -10 b 738 968 453 294 725 940 b 426 947 654 964 449 946 l 426 944 b 513 756 474 911 513 840 b 285 504 513 636 440 504 b 65 736 132 504 65 633 b 301 989 65 858 142 989 b 803 1019 525 989 768 1019 b 811 1015 808 1019 811 1019 b 797 976 811 1008 806 996 l 408 11 b 396 -6 403 -1 403 -4 m 290 540 b 431 738 392 540 431 632 b 288 953 431 840 381 953 b 147 754 188 953 147 861 b 290 540 147 651 194 540 m 1394 0 b 1175 232 1242 0 1175 129 b 1404 485 1175 353 1243 485 b 1622 251 1554 485 1622 356 b 1394 0 1622 132 1553 0 m 1400 38 b 1542 233 1501 38 1542 128 b 1397 447 1542 336 1490 447 b 1257 250 1297 447 1257 357 b 1400 38 1257 147 1304 38 "},"¿":{"ha":678,"x_min":0,"x_max":0,"o":"m 368 -115 b 504 -61 436 -115 482 -89 b 553 68 538 -21 549 21 b 564 92 554 82 557 92 b 575 78 571 92 574 88 b 581 -85 579 60 581 -31 b 565 -107 581 -93 579 -99 b 335 -162 524 -132 442 -162 b 83 54 150 -162 83 -43 b 322 453 83 215 189 288 b 379 564 374 518 379 540 b 353 635 379 585 372 608 b 340 658 343 647 340 654 b 356 671 340 664 350 671 b 414 622 368 671 397 643 b 454 540 442 588 454 565 b 424 471 454 521 444 497 b 328 356 392 429 358 394 b 206 61 231 232 206 160 b 368 -115 206 -4 242 -115 m 365 926 b 435 856 414 926 435 888 b 364 785 435 826 414 785 b 293 851 324 785 293 811 b 365 926 293 893 322 926 "},"`":{"ha":1265,"x_min":0,"x_max":0,"o":"m 703 1153 b 451 1235 678 1153 474 1226 b 411 1258 422 1246 411 1251 b 426 1269 411 1265 417 1267 b 510 1296 456 1278 493 1289 b 532 1303 521 1300 526 1303 b 553 1281 539 1303 540 1293 b 689 1179 564 1269 632 1215 b 715 1160 703 1169 715 1165 b 703 1153 715 1156 710 1153 "},"´":{"ha":1265,"x_min":0,"x_max":0,"o":"m 810 1296 b 844 1235 819 1282 829 1263 b 839 1218 851 1222 844 1218 b 797 1218 835 1218 821 1221 b 586 1160 729 1211 632 1179 b 565 1153 576 1156 568 1153 b 558 1161 563 1153 558 1156 b 568 1172 558 1165 561 1168 b 757 1290 618 1207 747 1285 b 796 1308 781 1304 789 1308 b 810 1296 800 1308 803 1306 "},"ˆ":{"ha":1265,"x_min":0,"x_max":0,"o":"m 779 1143 b 767 1135 774 1138 771 1135 b 756 1142 763 1135 760 1136 b 639 1238 728 1172 656 1228 b 625 1243 633 1240 629 1243 b 603 1236 619 1243 614 1242 b 485 1149 571 1219 518 1176 b 460 1135 474 1139 464 1135 b 450 1146 454 1135 450 1140 b 458 1161 450 1151 454 1156 b 614 1306 472 1175 599 1292 b 636 1319 625 1315 632 1319 b 658 1306 642 1319 647 1314 b 799 1200 669 1297 781 1214 b 815 1186 811 1192 815 1189 b 808 1174 815 1182 811 1178 "},"˜":{"ha":1265,"x_min":0,"x_max":0,"o":"m 731 1153 b 621 1189 685 1153 640 1179 b 526 1221 596 1200 569 1221 b 442 1171 478 1221 451 1182 b 422 1158 435 1163 428 1158 b 414 1167 417 1158 414 1163 b 424 1188 414 1174 418 1179 b 543 1286 443 1218 499 1286 b 660 1243 576 1286 617 1264 b 740 1219 679 1233 718 1219 b 825 1260 792 1219 821 1254 b 842 1275 831 1268 838 1275 b 851 1267 847 1275 851 1271 b 846 1249 851 1261 850 1257 b 731 1153 835 1226 774 1153 "},"¯":{"ha":1265,"x_min":0,"x_max":0,"o":"m 803 1250 b 814 1236 814 1250 817 1243 l 803 1206 b 790 1197 801 1200 797 1197 l 464 1197 b 450 1207 454 1197 449 1199 l 461 1242 b 476 1250 463 1249 468 1250 "},"˘":{"ha":1265,"x_min":0,"x_max":0,"o":"m 483 1289 b 496 1296 488 1292 492 1296 b 514 1274 504 1296 506 1283 b 644 1208 561 1213 626 1208 b 767 1249 701 1208 740 1228 b 824 1293 807 1278 814 1293 b 835 1282 831 1293 835 1289 b 749 1193 835 1267 781 1213 b 608 1153 706 1167 668 1153 b 479 1193 565 1153 517 1167 b 429 1243 458 1208 429 1233 b 439 1256 429 1250 435 1253 "},"˙":{"ha":1265,"x_min":0,"x_max":0,"o":"m 632 1153 b 561 1224 582 1153 561 1192 b 632 1296 561 1254 582 1296 b 704 1228 672 1296 704 1269 b 632 1153 704 1186 675 1153 "},"¨":{"ha":1265,"x_min":0,"x_max":0,"o":"m 771 1153 b 713 1213 729 1153 713 1186 b 772 1272 713 1238 729 1272 b 832 1217 806 1272 832 1251 b 771 1153 832 1181 808 1153 m 492 1153 b 433 1213 450 1153 433 1186 b 493 1272 433 1238 450 1272 b 553 1217 526 1272 553 1251 b 492 1153 553 1181 529 1153 "},"˚":{"ha":1265,"x_min":0,"x_max":0,"o":"m 603 1139 b 494 1221 533 1139 494 1174 b 658 1340 494 1283 563 1340 b 772 1261 729 1340 772 1308 b 603 1139 774 1185 683 1139 m 625 1172 b 707 1243 671 1172 707 1204 b 635 1307 707 1276 685 1307 b 556 1239 603 1307 556 1286 b 625 1172 556 1197 592 1172 "},"¸":{"ha":1265,"x_min":0,"x_max":0,"o":"m 711 0 b 607 -94 697 -8 619 -81 b 746 -193 693 -103 746 -136 b 647 -307 746 -247 694 -287 b 539 -332 610 -324 565 -332 b 521 -321 529 -332 521 -328 b 549 -306 521 -308 533 -307 b 651 -221 597 -300 651 -271 b 551 -119 651 -181 633 -143 b 531 -107 536 -115 531 -112 b 549 -87 531 -103 536 -97 l 656 0 "},"˝":{"ha":1265,"x_min":0,"x_max":0,"o":"m 546 1310 b 569 1338 560 1328 564 1338 b 588 1333 575 1338 581 1336 b 639 1303 603 1326 619 1315 b 643 1290 649 1297 647 1292 b 601 1272 638 1288 621 1283 b 465 1168 560 1246 499 1203 b 446 1153 456 1157 451 1153 b 442 1165 442 1153 439 1158 b 546 1310 446 1178 533 1294 m 726 1313 b 753 1338 742 1329 747 1338 b 772 1332 758 1338 764 1336 b 821 1297 786 1324 800 1314 b 822 1283 828 1290 826 1285 b 779 1269 818 1282 799 1281 b 632 1165 732 1244 665 1194 b 613 1153 622 1154 617 1153 b 608 1164 608 1153 606 1157 b 726 1313 613 1176 714 1299 "},"˛":{"ha":1265,"x_min":0,"x_max":0,"o":"m 682 0 b 601 -179 643 -36 601 -101 b 672 -249 601 -224 633 -249 b 767 -199 715 -249 758 -199 b 778 -207 775 -199 778 -203 b 767 -226 778 -217 774 -218 b 603 -312 753 -242 682 -312 b 493 -215 529 -312 493 -269 b 642 0 493 -110 624 -11 "},"ˇ":{"ha":1265,"x_min":0,"x_max":0,"o":"m 486 1308 b 499 1317 492 1314 494 1317 b 510 1310 503 1317 506 1315 b 626 1214 538 1279 608 1222 b 640 1208 632 1211 636 1208 b 663 1215 646 1208 651 1210 b 781 1303 694 1232 747 1275 b 806 1317 792 1313 801 1317 b 815 1306 811 1317 815 1311 b 807 1290 815 1300 811 1296 b 651 1146 793 1276 667 1160 b 628 1132 640 1136 633 1132 b 607 1146 624 1132 618 1136 b 467 1251 596 1154 485 1238 b 450 1265 454 1260 450 1263 b 457 1278 450 1269 454 1274 "},"—":{"ha":1389,"x_min":0,"x_max":0,"o":"m 0 392 l 0 456 l 1389 456 l 1389 392 "},"Æ":{"ha":1267,"x_min":0,"x_max":0,"o":"m 413 474 b 388 464 401 474 394 474 b 229 207 372 443 253 247 b 169 67 182 129 169 92 b 197 26 169 47 181 33 b 258 15 215 19 243 15 b 275 6 268 15 275 13 b 251 -4 275 0 264 -4 b 78 0 174 -4 92 0 b -79 -4 67 0 -12 -4 b -97 7 -93 -4 -97 0 b -82 15 -97 13 -92 15 b -24 29 -72 15 -46 18 b 122 178 38 60 69 104 b 632 968 167 239 378 569 b 663 1026 657 1007 660 1017 b 681 1046 665 1038 671 1046 b 701 1044 686 1046 693 1044 b 725 1042 708 1043 718 1042 b 1043 1043 735 1042 1011 1042 b 1103 1050 1069 1044 1092 1047 b 1122 1057 1110 1051 1115 1057 b 1128 1044 1126 1057 1128 1051 b 1117 979 1128 1035 1121 1018 b 1110 888 1115 965 1113 904 b 1100 872 1108 881 1106 872 b 1089 890 1092 872 1089 879 b 1081 940 1089 900 1088 924 b 982 988 1071 963 1057 979 b 792 992 958 990 807 992 b 783 978 786 992 783 988 l 783 538 b 792 524 783 528 785 524 b 1013 526 810 524 981 524 b 1078 546 1046 529 1065 532 b 1099 564 1088 557 1093 564 b 1106 553 1103 564 1106 561 b 1094 475 1106 544 1099 521 b 1089 396 1092 447 1089 406 b 1079 374 1089 389 1089 374 b 1068 389 1072 374 1069 379 b 1064 422 1068 396 1068 407 b 982 471 1058 442 1038 465 b 793 474 954 474 817 474 b 783 461 785 474 783 471 l 783 399 b 783 160 783 351 782 190 b 944 47 788 65 808 47 b 1078 63 981 47 1042 47 b 1140 161 1114 78 1131 104 b 1153 182 1143 176 1146 182 b 1161 161 1161 182 1161 171 b 1143 28 1161 150 1150 56 b 1068 -8 1133 -8 1122 -8 b 833 -4 964 -8 888 -6 b 725 0 779 -1 746 0 b 671 -1 718 0 696 -1 b 594 -4 644 -3 615 -4 b 572 7 579 -4 572 -1 b 583 15 572 11 575 15 b 622 21 596 15 610 18 b 663 97 650 26 657 57 b 669 399 669 156 669 265 l 669 463 b 657 474 669 471 665 474 m 669 910 b 657 910 669 918 663 918 b 429 536 632 872 440 558 b 435 524 424 526 426 524 l 657 524 b 669 535 667 524 669 528 "},"ª":{"ha":556,"x_min":0,"x_max":0,"o":"m 174 725 b 167 718 169 725 168 722 l 136 635 b 128 599 132 622 128 607 b 147 579 128 586 139 579 l 154 579 b 163 574 160 579 163 578 b 150 567 163 568 157 567 b 88 569 132 567 100 569 b 0 567 74 569 36 567 b -14 574 -10 567 -14 568 b -7 579 -14 578 -11 579 b 15 581 -1 579 8 579 b 78 639 47 583 64 606 l 254 1049 b 272 1065 260 1061 265 1065 b 292 1042 278 1065 282 1063 b 471 651 303 1018 419 749 b 531 582 499 600 514 586 b 561 579 542 579 553 579 b 568 574 565 579 568 578 b 553 567 568 568 561 567 b 417 569 542 567 486 567 b 393 574 401 569 393 571 b 399 581 393 578 396 579 b 404 594 403 582 407 588 l 349 719 b 340 725 346 724 344 725 m 321 767 b 325 772 325 767 326 769 l 261 928 b 247 928 257 938 251 938 l 188 772 b 190 767 186 769 188 767 "},"Ł":{"ha":822,"x_min":0,"x_max":0,"o":"m 364 396 b 394 78 364 208 368 104 b 561 46 417 56 453 46 b 729 88 635 46 696 47 b 765 171 747 110 761 144 b 778 189 767 182 769 189 b 786 168 785 189 786 183 b 765 29 786 153 776 69 b 678 -8 756 -3 751 -8 b 447 -4 578 -8 506 -6 b 306 0 389 -1 346 0 b 249 -1 300 0 276 -1 b 169 -4 221 -3 190 -4 b 147 7 154 -4 147 -1 b 158 15 147 11 150 15 b 200 21 171 15 188 18 b 240 97 228 26 235 57 b 247 399 247 156 247 265 l 247 476 l 124 413 b 111 417 119 411 115 410 l 97 447 b 100 458 96 451 96 457 l 247 535 l 247 643 b 244 943 247 860 247 899 b 185 1022 242 990 231 1013 b 138 1026 174 1025 150 1026 b 126 1035 132 1026 126 1029 b 149 1046 126 1043 133 1046 b 306 1042 211 1046 299 1042 b 456 1046 313 1042 414 1046 b 478 1035 471 1046 478 1043 b 467 1026 478 1029 472 1026 b 421 1022 457 1026 438 1025 b 367 943 381 1015 369 992 b 364 643 364 899 364 860 l 364 589 l 571 689 b 582 685 576 692 581 689 l 597 653 b 590 640 600 647 597 643 l 364 529 "},"Ø":{"ha":1271,"x_min":0,"x_max":0,"o":"m 160 -37 b 146 -37 156 -43 151 -43 l 118 -11 b 115 3 113 -6 111 -1 l 236 133 b 89 522 135 239 89 388 b 636 1065 89 747 253 1065 b 994 951 788 1065 901 1025 l 1108 1074 b 1128 1071 1114 1079 1119 1078 l 1156 1049 b 1156 1031 1163 1042 1161 1036 l 1043 910 b 1182 544 1131 821 1182 697 b 628 -24 1182 233 963 -24 b 281 92 481 -24 365 21 m 353 169 b 665 29 433 79 542 29 b 1049 506 790 29 1049 101 b 965 826 1049 638 1017 746 m 926 878 b 625 1018 847 971 738 1018 b 221 561 394 1018 221 865 b 315 218 221 424 256 307 "},"Œ":{"ha":1649,"x_min":0,"x_max":0,"o":"m 1165 594 b 1174 581 1165 585 1167 581 b 1394 583 1192 581 1363 581 b 1460 603 1428 586 1447 589 b 1481 621 1469 614 1475 621 b 1488 610 1485 621 1488 618 b 1476 532 1488 601 1481 578 b 1471 453 1474 504 1471 463 b 1461 431 1471 446 1471 431 b 1450 446 1454 431 1451 436 b 1446 479 1450 453 1450 464 b 1364 528 1440 499 1419 522 b 1175 531 1336 531 1199 531 b 1165 518 1167 531 1165 528 l 1165 456 b 1165 160 1165 351 1164 190 b 1326 47 1169 65 1190 47 b 1460 63 1363 47 1424 47 b 1522 161 1496 78 1513 104 b 1535 182 1525 176 1528 182 b 1543 161 1543 182 1543 171 b 1525 28 1543 150 1532 56 b 1450 -8 1515 -8 1504 -8 b 1215 -4 1346 -8 1269 -6 b 1107 0 1161 -1 1128 0 b 1079 -1 1096 0 1088 -1 b 1060 -4 1072 -3 1067 -4 b 1046 6 1051 -4 1046 0 b 1050 47 1046 17 1050 28 l 1053 169 l 1049 169 b 628 -24 1011 128 897 -24 b 89 521 249 -24 89 269 b 644 1065 89 751 256 1064 b 1044 892 865 1065 988 964 l 1050 892 l 1050 982 b 1047 1033 1050 1004 1047 1024 b 1061 1046 1047 1040 1053 1046 b 1076 1044 1065 1046 1069 1044 b 1104 1042 1085 1043 1093 1042 b 1425 1043 1117 1042 1393 1042 b 1485 1050 1451 1044 1474 1047 b 1504 1057 1492 1051 1497 1057 b 1510 1044 1508 1057 1510 1051 b 1499 982 1510 1035 1503 1018 b 1492 890 1497 968 1494 907 b 1482 875 1490 883 1488 875 b 1471 893 1474 875 1471 882 b 1463 943 1471 903 1469 926 b 1364 990 1453 965 1439 982 b 1174 994 1340 993 1189 994 b 1165 978 1168 994 1165 990 m 664 29 b 1049 506 789 29 1049 101 b 625 1018 1049 839 844 1018 b 221 561 394 1018 221 865 b 664 29 221 238 415 29 "},"º":{"ha":607,"x_min":0,"x_max":0,"o":"m 300 563 b 28 814 110 563 28 689 b 304 1065 28 926 117 1065 b 581 825 465 1065 581 975 b 300 563 581 681 471 563 m 319 600 b 482 807 369 600 482 631 b 292 1029 482 950 383 1029 b 126 829 213 1029 126 965 b 319 600 126 697 217 600 "},"æ":{"ha":1132,"x_min":0,"x_max":0,"o":"m 365 397 b 344 389 356 397 350 397 b 207 176 331 371 228 210 b 153 57 165 110 153 78 b 176 25 153 40 161 31 b 229 15 192 19 215 15 b 243 4 238 15 243 11 b 222 -4 243 0 233 -4 b 68 0 154 -4 81 0 b -69 -4 58 0 -11 -4 b -86 6 -82 -4 -86 0 b -72 13 -86 11 -81 13 b -21 25 -64 13 -40 15 b 107 151 33 51 60 90 b 556 822 147 203 332 485 b 583 872 578 856 581 864 b 599 889 586 882 590 889 b 638 886 607 889 625 886 l 932 886 b 985 893 956 886 975 890 b 1001 899 990 893 996 899 b 1007 888 1006 899 1007 893 b 997 832 1007 879 1000 865 b 990 754 996 821 993 768 b 982 742 989 749 986 742 b 969 757 975 742 969 747 b 963 799 969 765 968 785 b 878 835 953 818 944 826 b 706 839 857 838 718 839 b 697 826 700 839 697 835 l 697 458 b 706 446 697 450 699 446 b 906 449 721 446 876 446 b 963 464 935 451 953 451 b 981 479 969 474 974 479 b 986 469 985 479 986 476 b 976 404 986 463 979 443 b 972 336 974 381 972 344 b 964 318 972 331 972 318 b 951 336 957 318 951 325 b 947 358 951 340 951 346 b 878 396 943 375 926 392 b 706 399 854 399 726 399 b 697 388 699 399 697 396 l 697 339 b 697 132 697 299 696 157 b 844 44 701 51 725 44 b 963 57 876 44 931 44 b 1014 138 994 71 1006 89 b 1028 154 1017 150 1022 154 b 1036 138 1036 154 1036 146 b 1019 24 1036 128 1026 47 b 954 -7 1011 -7 1001 -7 b 740 -3 863 -7 792 -6 b 638 0 689 -1 656 0 b 590 -1 632 0 613 -1 b 524 -4 568 -3 542 -4 b 504 6 510 -4 504 -1 b 514 15 504 10 506 15 b 551 21 525 15 540 19 b 588 83 576 25 583 49 b 593 339 593 132 593 225 l 593 388 b 582 397 593 394 590 397 m 593 774 b 582 774 593 781 588 781 b 382 456 560 742 393 475 b 386 444 376 447 379 444 l 582 444 b 593 454 590 444 593 449 "},"ı":{"ha":540,"x_min":0,"x_max":0,"o":"m 326 339 b 332 83 326 225 326 132 b 376 21 336 49 340 26 b 432 15 394 18 421 15 b 442 6 439 15 442 10 b 422 -4 442 0 436 -4 b 269 0 354 -4 275 0 b 149 -4 263 0 186 -4 b 129 6 136 -4 129 -1 b 139 15 129 10 132 15 b 176 21 150 15 165 18 b 208 83 200 26 204 49 b 215 339 214 132 215 225 l 215 547 b 213 801 215 731 215 764 b 174 865 210 842 200 860 b 136 869 160 868 144 869 b 126 879 131 869 126 875 b 146 889 126 886 132 889 b 269 886 186 889 263 886 b 392 889 275 886 354 889 b 411 879 406 889 411 886 b 401 869 411 875 406 869 b 371 867 393 869 385 869 b 328 801 338 860 331 843 b 326 547 326 764 326 731 "},"ł":{"ha":743,"x_min":0,"x_max":0,"o":"m 326 336 b 353 71 326 178 329 93 b 513 43 372 51 417 43 b 657 75 576 43 628 40 b 689 146 672 93 685 122 b 700 161 690 154 693 161 b 710 143 706 161 710 156 b 692 25 710 131 701 60 b 614 -7 683 -3 679 -7 b 404 -3 526 -7 458 -6 b 272 0 350 -1 308 0 b 219 -1 267 0 246 0 b 149 -4 194 -1 168 -4 b 129 6 136 -4 129 -1 b 139 14 129 10 132 14 b 176 19 150 14 165 17 b 208 83 200 25 203 49 b 215 339 215 132 215 225 l 215 403 l 111 347 b 100 351 108 347 104 346 l 86 385 b 88 394 85 388 85 393 l 215 457 l 215 547 b 213 801 215 731 215 764 b 163 867 210 842 203 861 b 121 869 153 868 132 869 b 111 879 117 869 111 875 b 131 889 111 886 117 889 b 272 886 186 889 265 886 b 404 889 278 886 367 889 b 424 879 417 889 424 886 b 414 869 424 875 418 869 b 374 867 406 869 388 868 b 328 801 338 860 331 843 b 326 547 326 764 326 731 l 326 503 l 504 590 b 514 586 508 592 513 590 l 529 551 b 524 540 532 546 529 543 l 326 447 "},"ø":{"ha":1122,"x_min":0,"x_max":0,"o":"m 143 -33 b 131 -33 140 -37 136 -37 l 103 -10 b 100 3 97 -4 96 -1 l 207 113 b 76 444 117 201 76 329 b 560 906 76 635 222 906 b 876 808 693 906 794 871 l 978 917 b 996 914 982 922 988 922 l 1019 890 b 1019 875 1026 883 1025 881 l 921 774 b 1044 463 997 697 1044 593 b 556 -19 1044 199 850 -19 b 249 78 425 -19 322 18 m 315 146 b 588 29 386 68 478 29 b 918 429 700 29 918 90 b 849 701 918 542 893 632 m 814 744 b 551 861 744 824 650 861 b 201 476 349 861 201 732 b 282 186 201 360 229 263 "},"œ":{"ha":1468,"x_min":0,"x_max":0,"o":"m 1033 507 b 1042 494 1033 499 1035 494 b 1243 497 1057 494 1214 494 b 1300 513 1272 500 1289 500 b 1318 528 1308 522 1314 528 b 1324 518 1322 528 1324 525 b 1314 453 1324 511 1317 492 b 1310 385 1311 429 1310 393 b 1300 367 1310 379 1308 367 b 1289 379 1293 367 1289 371 b 1285 407 1289 385 1289 394 b 1215 446 1281 424 1264 442 b 1042 449 1192 449 1063 449 b 1033 438 1035 449 1033 446 l 1033 388 b 1033 133 1033 299 1032 158 b 1182 44 1038 53 1063 44 b 1299 57 1214 44 1268 42 b 1351 138 1326 71 1343 89 b 1364 154 1354 150 1358 154 b 1374 138 1372 154 1374 146 b 1357 24 1374 128 1364 47 b 1292 -7 1349 -7 1339 -7 b 1072 -3 1200 -7 1119 -4 b 974 0 1025 -1 993 0 b 938 -4 954 0 949 -4 b 926 4 931 -4 926 0 b 929 40 926 14 929 24 l 932 151 l 928 151 b 551 -19 890 108 788 -19 b 76 443 218 -19 76 229 b 565 906 76 639 224 904 b 925 751 761 906 869 819 l 929 751 l 929 835 b 928 878 929 854 928 869 b 939 889 928 885 932 889 b 972 886 946 889 953 886 l 1269 886 b 1322 893 1293 886 1313 892 b 1339 899 1328 894 1333 899 b 1344 888 1343 899 1344 893 b 1335 835 1344 879 1338 865 b 1328 756 1333 822 1331 769 b 1318 743 1326 750 1322 743 b 1307 758 1311 743 1307 749 b 1300 800 1307 767 1306 786 b 1215 838 1290 819 1274 829 b 1042 842 1194 840 1054 842 b 1033 826 1036 842 1033 838 m 586 29 b 929 429 696 29 929 93 b 551 861 929 704 744 861 b 201 476 349 861 201 732 b 586 29 201 208 367 29 "},"ß":{"ha":1456,"x_min":0,"x_max":0,"o":"m 290 -19 b 113 13 233 -19 163 -11 b 94 57 96 21 94 25 b 101 182 94 115 100 163 b 111 201 101 194 104 201 b 122 188 118 201 122 197 b 126 144 122 178 122 161 b 319 28 146 58 238 28 b 503 185 440 28 503 96 b 349 390 503 269 457 310 l 293 432 b 118 685 161 531 118 603 b 389 907 118 824 228 907 b 515 893 438 907 486 900 b 558 888 539 888 549 888 b 571 879 568 888 571 886 b 565 754 571 874 565 835 b 556 728 565 736 564 728 b 544 743 547 728 546 733 b 526 801 543 757 533 789 b 368 860 518 815 478 860 b 206 732 279 860 206 815 b 364 532 206 657 243 614 l 399 508 b 599 224 547 407 599 325 b 485 22 599 154 572 79 b 290 -19 433 -11 357 -19 m 1018 -19 b 840 13 961 -19 890 -11 b 822 57 824 21 822 25 b 829 182 822 115 828 163 b 839 201 829 194 832 201 b 850 188 846 201 850 197 b 854 144 850 178 850 161 b 1047 28 874 58 965 28 b 1231 185 1168 28 1231 96 b 1076 390 1231 269 1185 310 l 1021 432 b 846 685 889 531 846 603 b 1117 907 846 824 956 907 b 1243 893 1165 907 1214 900 b 1286 888 1267 888 1276 888 b 1299 879 1296 888 1299 886 b 1293 754 1299 874 1293 835 b 1283 728 1293 736 1292 728 b 1272 743 1275 728 1274 733 b 1254 801 1271 757 1261 789 b 1096 860 1246 815 1206 860 b 933 732 1007 860 933 815 b 1092 532 933 657 971 614 l 1126 508 b 1326 224 1275 407 1326 325 b 1213 22 1326 154 1300 79 b 1018 -19 1161 -11 1085 -19 "},"¹":{"ha":458,"x_min":0,"x_max":0,"o":"m 278 674 b 282 492 278 599 278 528 b 322 447 285 468 290 454 b 386 440 339 443 376 440 b 399 432 393 440 399 438 b 382 421 399 425 394 421 b 236 424 307 421 242 424 b 76 421 231 424 144 421 b 60 431 65 421 60 424 b 71 440 60 436 64 440 b 150 447 82 440 131 443 b 192 492 183 454 189 468 b 196 674 196 528 196 599 l 196 826 b 194 932 196 871 196 918 b 178 954 193 944 193 954 b 63 913 161 954 85 922 b 50 908 60 911 54 908 b 42 917 46 908 42 913 b 46 926 42 921 43 924 b 249 1053 51 932 240 1046 b 274 1065 256 1058 267 1065 b 282 1047 281 1065 282 1057 b 278 826 282 1040 278 963 "},"¬":{"ha":708,"x_min":0,"x_max":0,"o":"m 574 221 l 574 444 l 63 444 l 63 515 l 646 515 l 646 221 "},"µ":{"ha":800,"x_min":0,"x_max":0,"o":"m 97 625 l 201 625 l 201 313 b 389 69 201 139 271 69 b 569 278 472 69 569 104 l 569 625 l 674 625 l 674 126 b 718 49 674 71 692 49 b 765 94 740 49 754 67 l 786 85 b 681 -21 775 21 736 -21 b 576 139 625 -21 583 7 b 347 -21 535 49 472 -21 b 188 56 278 -21 222 0 b 222 -278 194 -69 208 -208 l 97 -347 l 81 -340 b 97 208 90 -139 97 0 "},"™":{"ha":390,"x_min":0,"x_max":0,"o":"m 128 1050 b 144 1051 136 1050 140 1051 b 153 1053 149 1051 151 1053 b 153 1044 154 1053 153 1050 b 153 1019 153 1043 153 1024 b 149 1013 153 1015 150 1013 b 146 1018 147 1013 147 1014 l 144 1024 b 119 1035 143 1031 142 1035 l 92 1035 l 92 940 l 92 893 b 103 879 92 883 96 881 l 110 878 b 117 875 115 878 117 876 b 110 872 117 874 115 872 b 78 874 100 872 81 874 b 44 872 75 874 56 872 b 39 875 39 872 39 874 b 44 878 39 876 40 878 l 51 878 b 64 893 63 879 64 888 b 65 940 64 901 65 915 l 65 1035 l 32 1035 b 7 1021 15 1035 8 1029 b 3 1015 6 1015 6 1015 b 0 1021 1 1015 0 1017 b 6 1050 0 1028 6 1049 b 7 1054 6 1053 7 1054 b 18 1051 10 1054 11 1051 b 38 1050 25 1051 35 1050 m 188 907 b 186 888 188 901 186 897 b 194 878 186 883 190 878 b 204 875 203 878 204 876 b 200 872 204 874 204 872 b 172 874 192 872 176 874 b 149 872 169 874 158 872 b 144 875 146 872 144 874 b 150 878 144 878 146 878 l 154 878 b 168 897 161 878 167 882 l 188 1046 b 194 1056 188 1050 192 1056 b 201 1049 197 1056 200 1053 l 267 913 l 332 1050 b 339 1056 333 1054 336 1056 b 343 1046 342 1056 343 1050 l 361 903 b 382 878 364 882 369 878 l 385 878 b 390 875 389 878 390 876 b 386 872 390 874 389 872 b 342 875 378 872 347 874 b 336 881 339 875 336 876 l 324 994 l 325 994 l 271 886 b 261 872 267 878 264 872 b 251 886 257 872 254 879 l 197 996 l 196 996 "},"Ð":{"ha":1274,"x_min":0,"x_max":0,"o":"m 247 643 b 244 943 247 860 247 899 b 185 1022 242 990 231 1013 b 138 1026 174 1025 150 1026 b 126 1035 132 1026 126 1029 b 149 1046 126 1043 133 1046 b 306 1042 211 1046 299 1042 b 493 1046 322 1042 410 1046 b 1050 888 631 1046 885 1058 b 1185 535 1119 815 1185 700 b 1035 143 1185 360 1113 225 b 614 -17 975 81 850 -17 b 421 -8 554 -17 481 -12 b 306 0 360 -4 313 0 b 250 -1 303 0 279 0 b 169 -4 222 -1 190 -4 b 147 7 154 -4 147 -1 b 158 15 147 11 150 15 b 200 21 171 15 188 18 b 240 97 228 26 235 57 b 247 399 247 156 247 265 l 247 501 l 125 501 b 115 517 114 501 114 507 l 119 539 b 138 551 122 549 126 551 l 247 551 m 364 426 b 367 192 364 308 365 214 b 382 86 368 157 371 101 b 618 31 400 60 454 31 b 949 160 747 31 867 78 b 1060 492 1021 231 1060 364 b 926 842 1060 668 983 782 b 471 999 796 979 639 999 b 382 989 439 999 393 994 b 365 961 369 983 365 976 l 364 553 l 649 553 b 658 538 658 553 660 547 l 653 511 b 635 500 651 501 643 500 l 364 500 "},"½":{"ha":1182,"x_min":0,"x_max":0,"o":"m 264 640 b 268 467 264 569 264 501 b 306 425 271 444 275 432 b 367 418 321 421 357 418 b 379 410 374 418 379 415 b 363 400 379 403 375 400 b 224 403 292 400 229 403 b 72 400 218 403 138 400 b 57 408 61 400 57 401 b 67 418 57 414 60 418 b 143 425 78 418 125 421 b 182 467 175 432 179 444 b 186 640 186 501 186 569 l 186 785 b 185 885 186 826 186 872 b 169 907 183 897 183 907 b 60 867 154 907 81 876 b 47 863 57 865 51 863 b 39 871 43 863 39 867 b 43 881 39 875 40 878 b 236 1000 49 886 228 993 b 260 1013 243 1006 253 1013 b 268 994 267 1013 268 1004 b 264 785 268 988 264 914 m 150 4 b 153 22 144 7 146 13 l 903 1001 b 921 1008 908 1008 913 1015 l 946 989 b 949 975 951 985 951 979 l 196 -15 b 178 -19 190 -24 183 -24 m 699 0 b 683 11 689 0 683 4 b 699 32 683 19 693 26 b 999 426 833 140 999 269 b 871 575 999 542 922 575 b 778 540 832 575 804 568 b 750 467 763 524 750 500 b 739 453 750 456 744 453 b 731 467 735 453 732 458 b 725 558 729 474 725 536 b 735 576 725 571 726 572 b 886 610 774 594 824 610 b 1086 453 1018 610 1086 533 b 793 60 1086 296 922 161 b 797 54 794 58 792 54 l 840 54 b 992 60 854 54 978 58 b 1093 126 1057 65 1081 85 b 1104 140 1097 138 1099 140 b 1111 128 1110 140 1111 135 b 1081 22 1111 114 1094 49 b 1032 0 1071 6 1053 0 "},"±":{"ha":708,"x_min":0,"x_max":0,"o":"m 390 728 l 390 468 l 650 468 l 650 397 l 392 397 l 392 135 l 319 135 l 319 397 l 58 397 l 58 468 l 319 468 l 319 728 m 650 0 l 58 0 l 58 69 l 650 69 "},"Þ":{"ha":899,"x_min":0,"x_max":0,"o":"m 247 643 b 244 943 247 860 247 899 b 185 1022 242 990 231 1013 b 138 1026 174 1025 150 1026 b 126 1035 132 1026 126 1029 b 149 1046 126 1043 133 1046 b 306 1042 211 1046 294 1042 b 469 1046 314 1042 401 1046 b 492 1036 485 1046 492 1043 b 481 1026 492 1031 486 1026 b 426 1021 468 1026 446 1024 b 364 947 382 1013 365 988 b 361 817 363 889 361 844 b 482 822 401 819 428 822 b 740 743 656 822 717 764 b 808 579 772 715 808 651 b 467 249 808 382 664 249 b 438 250 460 249 444 249 b 422 260 431 250 422 253 b 460 272 422 271 431 272 b 700 499 594 272 700 371 b 622 713 700 544 696 638 b 432 782 549 788 464 782 b 372 774 408 782 385 779 b 361 747 364 771 361 761 l 361 399 b 368 97 361 265 361 156 b 422 21 372 57 381 26 b 485 15 442 18 472 15 b 496 7 493 15 496 11 b 474 -4 496 0 489 -4 b 303 0 397 -4 310 0 b 169 -4 299 0 211 -4 b 147 7 154 -4 147 -1 b 158 15 147 11 150 15 b 200 21 171 15 188 18 b 240 97 228 26 235 57 b 247 399 247 156 247 265 "},"¼":{"ha":1101,"x_min":0,"x_max":0,"o":"m 985 222 b 1024 231 1008 222 1019 231 b 1032 222 1028 231 1032 226 b 1024 183 1032 218 1028 197 b 1007 172 1021 175 1017 172 l 917 172 b 918 63 917 153 915 99 b 956 19 921 39 928 22 b 993 17 968 18 983 17 b 1001 8 997 17 1001 13 b 989 -1 1001 4 999 -1 b 869 1 942 -1 876 1 b 765 -1 864 1 813 -1 b 754 7 756 -1 754 3 b 765 17 754 11 760 17 b 804 19 772 17 792 18 b 842 63 833 22 840 39 b 843 172 843 99 843 153 l 553 172 b 535 183 542 172 535 176 b 547 206 535 193 543 201 b 886 596 553 211 858 561 b 908 611 894 606 901 611 b 917 597 917 611 917 606 l 917 222 m 843 486 l 842 486 b 614 222 825 469 638 249 l 843 222 m 264 640 b 268 467 264 569 264 501 b 306 425 271 444 275 432 b 367 418 321 421 357 418 b 379 410 374 418 379 415 b 363 400 379 403 375 400 b 224 403 292 400 229 403 b 72 400 218 403 138 400 b 57 408 61 400 57 401 b 67 418 57 414 60 418 b 143 425 78 418 125 421 b 182 467 175 432 179 444 b 186 640 186 501 186 569 l 186 785 b 185 885 186 826 186 872 b 169 907 183 897 183 907 b 60 867 154 907 81 876 b 47 863 57 865 51 863 b 39 871 43 863 39 867 b 43 881 39 875 40 878 b 236 1000 49 886 228 993 b 260 1013 243 1006 253 1013 b 268 994 267 1013 268 1004 b 264 785 268 988 264 914 m 196 4 b 197 22 190 7 190 13 l 947 1001 b 965 1008 953 1008 957 1015 l 990 989 b 993 975 996 985 996 979 l 240 -15 b 224 -19 235 -24 229 -24 "},"÷":{"ha":708,"x_min":0,"x_max":0,"o":"m 356 513 b 289 582 317 513 289 543 b 356 653 289 624 317 653 b 426 585 396 653 426 624 b 357 514 428 544 399 514 m 650 338 l 58 338 l 58 408 l 650 408 m 356 92 b 289 161 317 92 289 122 b 356 232 289 203 317 232 b 426 164 396 232 426 203 b 356 93 428 124 399 93 "},"¦":{"ha":708,"x_min":0,"x_max":0,"o":"m 317 451 l 317 938 l 392 938 l 392 451 m 317 -243 l 317 243 l 392 243 l 392 -243 "},"°":{"ha":428,"x_min":0,"x_max":0,"o":"m 350 828 b 203 681 350 740 279 681 b 58 821 117 681 58 746 b 204 967 58 903 122 967 l 207 967 b 351 826 296 967 351 901 m 286 826 b 201 914 286 867 261 914 b 119 824 149 914 119 867 b 203 738 119 776 156 738 b 286 826 250 738 286 776 "},"þ":{"ha":814,"x_min":0,"x_max":0,"o":"m 215 547 b 213 801 215 731 215 764 b 163 867 210 842 200 861 b 121 869 153 868 132 869 b 111 879 117 869 111 875 b 131 889 111 886 117 889 b 269 886 186 889 260 886 b 415 889 276 886 356 889 b 436 881 429 889 436 886 b 425 869 436 876 431 869 b 378 865 415 869 394 868 b 326 806 342 860 326 839 b 324 694 325 756 324 718 b 429 699 356 697 382 699 b 672 631 582 699 643 656 b 736 486 700 607 736 549 b 417 211 736 319 590 211 b 388 213 410 211 394 211 b 375 221 382 213 375 215 b 407 235 375 231 382 235 b 628 438 526 235 628 321 b 560 606 628 468 621 546 b 383 661 499 667 411 661 b 333 653 363 661 346 657 b 324 631 326 650 324 643 l 324 339 b 329 83 324 225 324 132 b 376 21 333 49 339 26 b 429 15 393 18 418 15 b 439 6 436 15 439 10 b 419 -4 439 0 433 -4 b 267 0 353 -4 272 0 b 149 -4 263 0 186 -4 b 129 6 136 -4 129 -1 b 139 15 129 10 132 15 b 175 21 150 15 164 18 b 208 83 199 26 203 49 b 215 339 215 132 215 225 "},"¾":{"ha":1121,"x_min":0,"x_max":0,"o":"m 1003 222 b 1042 231 1026 222 1038 231 b 1050 222 1046 231 1050 226 b 1042 183 1050 218 1046 197 b 1025 172 1039 175 1035 172 l 936 172 b 936 63 936 153 933 99 b 974 19 939 39 946 22 b 1013 17 986 18 1003 17 b 1019 8 1017 17 1019 13 b 1007 -1 1019 4 1017 -1 b 888 1 960 -1 894 1 b 783 -1 882 1 831 -1 b 774 7 774 -1 774 3 b 783 17 774 11 778 17 b 822 19 790 17 810 18 b 860 63 851 22 858 39 b 861 172 861 99 861 153 l 571 172 b 553 183 560 172 553 176 b 567 206 553 193 563 201 b 906 596 572 211 878 561 b 926 611 914 606 919 611 b 936 597 935 611 936 606 l 936 222 m 861 486 l 860 486 b 632 222 843 469 656 249 l 861 222 m 307 753 b 464 601 356 744 464 699 b 208 397 464 492 353 397 b 92 414 163 397 110 403 b 78 450 78 422 78 426 b 82 535 78 472 79 518 b 90 546 83 544 86 546 b 97 536 94 546 96 544 b 233 436 103 483 132 436 b 376 581 313 436 376 488 b 221 719 376 671 288 711 b 194 731 200 722 194 725 b 218 746 194 739 201 743 b 350 881 256 751 350 796 b 235 978 350 908 326 978 b 119 892 174 978 119 940 b 114 875 119 879 119 875 b 104 889 108 875 106 878 b 96 967 100 913 96 949 b 108 988 96 974 96 982 b 257 1013 136 1000 182 1013 b 431 900 399 1013 431 939 b 307 756 431 822 343 769 m 193 4 b 196 22 188 7 189 13 l 944 1001 b 963 1008 950 1008 954 1015 l 989 989 b 990 975 994 985 993 979 l 238 -15 b 221 -19 232 -24 226 -24 "},"²":{"ha":617,"x_min":0,"x_max":0,"o":"m 88 424 b 72 435 78 424 72 428 b 89 457 72 443 83 451 b 404 872 231 571 404 707 b 269 1029 404 993 324 1029 b 172 992 229 1029 200 1021 b 142 915 156 974 142 950 b 131 900 142 904 136 900 b 122 915 126 900 124 907 b 117 1011 121 922 117 988 b 126 1031 117 1024 118 1026 b 286 1065 167 1050 221 1065 b 496 900 425 1065 496 985 b 188 486 496 735 324 593 b 192 481 189 485 186 481 l 238 481 b 397 486 253 481 382 485 b 503 557 465 492 489 513 b 515 571 507 568 510 571 b 522 558 521 571 522 565 b 490 447 522 543 506 475 b 439 424 481 429 461 424 "},"®":{"ha":286,"x_min":0,"x_max":0,"o":"m 143 822 b 15 943 69 822 15 875 b 143 1065 15 1014 69 1065 b 271 943 217 1065 271 1014 b 143 822 271 875 217 822 m 144 843 b 247 944 203 843 247 886 b 143 1044 247 1004 203 1044 b 39 944 83 1044 39 1004 b 144 843 39 886 83 843 m 96 964 b 94 1001 96 985 94 994 b 79 1011 94 1010 90 1011 b 75 1014 78 1011 75 1013 b 82 1018 75 1017 78 1018 l 89 1018 b 107 1017 92 1018 103 1017 b 136 1018 119 1017 125 1018 b 194 981 160 1018 194 1014 b 169 939 194 967 190 956 l 193 910 b 219 886 211 888 217 886 b 224 883 222 886 224 885 b 214 879 224 881 222 879 b 165 906 196 879 186 878 l 146 932 l 121 932 l 121 919 b 124 889 121 892 122 890 b 138 886 126 888 133 886 b 142 883 140 886 142 886 b 136 879 142 881 139 879 l 131 879 b 108 881 128 879 115 881 b 88 879 104 881 90 879 l 81 879 b 75 882 78 879 75 879 b 81 886 75 885 78 886 b 94 894 93 886 93 886 b 96 933 94 901 96 911 m 121 947 b 142 943 125 944 133 943 b 156 947 146 943 151 944 b 168 972 163 951 168 958 b 133 1006 168 992 156 1006 b 121 1003 132 1006 124 1006 "},"−":{"ha":708,"x_min":0,"x_max":0,"o":"m 650 338 l 58 338 l 58 408 l 650 408 "},"ð":{"ha":1124,"x_min":0,"x_max":0,"o":"m 215 547 b 213 801 215 731 215 764 b 163 867 210 842 203 861 b 121 869 153 868 132 869 b 111 879 117 869 111 875 b 131 889 111 886 117 889 b 269 886 186 889 263 886 b 436 889 283 886 364 889 b 926 754 558 889 782 900 b 1046 454 988 693 1046 594 b 914 122 1046 306 982 192 b 543 -14 861 68 751 -14 b 371 -7 490 -14 425 -10 b 269 0 317 -3 275 0 b 221 -1 267 0 246 -1 b 149 -4 196 -3 168 -4 b 129 6 136 -4 129 -1 b 139 15 129 10 132 15 b 176 21 150 15 165 18 b 208 83 200 26 203 49 b 215 339 215 132 215 225 l 215 424 l 110 424 b 101 436 100 424 100 428 l 106 460 b 121 469 107 468 111 469 l 215 469 m 326 360 b 328 163 326 260 326 182 b 342 78 329 133 332 90 b 544 31 357 56 400 31 b 832 139 657 31 760 69 b 926 418 896 199 926 310 b 813 713 926 568 863 663 b 414 844 697 829 561 844 b 342 836 386 844 349 842 b 326 813 331 832 326 826 l 326 471 l 574 471 b 582 458 582 471 585 467 l 578 432 b 561 422 576 424 568 422 l 326 422 "},"×":{"ha":708,"x_min":0,"x_max":0,"o":"m 128 649 l 353 417 l 579 649 l 632 597 l 406 365 l 632 135 l 581 83 l 354 314 l 129 83 l 76 135 l 303 365 l 78 597 "},"³":{"ha":574,"x_min":0,"x_max":0,"o":"m 219 418 b 97 436 171 418 117 425 b 82 474 82 444 82 449 b 86 563 82 497 83 544 b 94 575 88 572 90 575 b 103 564 99 575 101 572 b 246 460 108 508 139 460 b 396 611 329 460 396 513 b 232 757 396 706 303 749 b 204 769 210 760 204 764 b 229 785 204 778 211 782 b 368 926 268 790 368 838 b 247 1029 368 956 344 1029 b 126 939 183 1029 126 990 b 119 921 126 926 125 921 b 110 936 114 921 111 925 b 101 1018 106 961 101 999 b 114 1039 101 1025 101 1033 b 271 1065 143 1051 192 1065 b 453 947 419 1065 453 988 b 324 796 453 865 361 811 l 324 793 b 489 633 375 785 489 736 b 219 418 489 518 372 418 "},"©":{"ha":1258,"x_min":0,"x_max":0,"o":"m 631 -24 b 86 519 329 -24 86 218 b 631 1065 86 822 329 1065 b 1172 519 929 1065 1172 822 b 631 -24 1172 218 929 -24 m 631 38 b 1093 521 896 38 1093 257 b 631 1004 1093 786 896 1004 b 165 521 364 1004 165 786 b 631 38 165 257 364 36 m 663 208 b 313 533 457 208 313 336 b 407 758 313 650 372 725 b 644 842 463 813 540 842 b 758 831 664 842 710 839 b 842 814 779 828 839 814 b 857 815 847 814 853 815 b 860 808 860 815 860 813 b 851 674 860 803 856 699 b 838 663 850 665 847 663 b 825 678 831 663 825 669 b 803 743 824 699 824 721 b 632 792 793 754 746 792 b 417 565 493 792 417 711 b 672 265 417 368 542 265 b 796 300 750 265 779 283 b 828 365 815 318 822 343 b 843 379 831 374 836 379 b 856 367 854 379 856 374 b 842 268 856 356 851 311 b 811 225 835 238 833 231 b 663 208 750 208 685 208 "},"Á":{"ha":972,"x_min":0,"x_max":0,"o":"m 447 1011 b 478 1065 464 1057 469 1065 b 508 1015 486 1065 492 1058 b 832 178 529 963 747 389 b 951 24 882 54 922 32 b 1007 15 972 17 993 15 b 1021 7 1015 15 1021 14 b 993 -4 1021 -1 1008 -4 b 775 -1 972 -4 871 -4 b 733 8 749 0 733 0 b 743 18 733 14 738 17 b 751 56 751 21 760 33 l 622 397 b 610 406 619 403 617 406 l 311 406 b 297 394 304 406 300 401 l 214 149 b 194 56 201 114 194 81 b 247 15 194 28 224 15 l 261 15 b 275 7 271 15 275 13 b 254 -4 275 -1 267 -4 b 146 0 221 -4 161 0 b -11 -4 131 0 54 -4 b -37 7 -29 -4 -37 -1 b -25 15 -37 13 -32 15 b 15 18 -15 15 4 17 b 132 149 79 26 107 79 m 592 456 b 597 465 599 456 599 460 l 465 840 b 444 840 458 861 451 861 l 322 465 b 326 456 319 458 322 456 m 664 1296 b 699 1235 674 1282 683 1263 b 693 1218 706 1222 699 1218 b 651 1218 689 1218 675 1221 b 440 1160 583 1211 486 1179 b 419 1153 431 1156 422 1153 b 413 1161 417 1153 413 1156 b 422 1172 413 1165 415 1168 b 611 1290 472 1207 601 1285 b 650 1308 635 1304 643 1308 b 664 1296 654 1308 657 1306 "},"Â":{"ha":972,"x_min":0,"x_max":0,"o":"m 447 1011 b 478 1065 464 1057 469 1065 b 508 1015 486 1065 492 1058 b 832 178 529 963 747 389 b 951 24 882 54 922 32 b 1007 15 972 17 993 15 b 1021 7 1015 15 1021 14 b 993 -4 1021 -1 1008 -4 b 775 -1 972 -4 871 -4 b 733 8 749 0 733 0 b 743 18 733 14 738 17 b 751 56 751 21 760 33 l 622 397 b 610 406 619 403 617 406 l 311 406 b 297 394 304 406 300 401 l 214 149 b 194 56 201 114 194 81 b 247 15 194 28 224 15 l 261 15 b 275 7 271 15 275 13 b 254 -4 275 -1 267 -4 b 146 0 221 -4 161 0 b -11 -4 131 0 54 -4 b -37 7 -29 -4 -37 -1 b -25 15 -37 13 -32 15 b 15 18 -15 15 4 17 b 132 149 79 26 107 79 m 592 456 b 597 465 599 456 599 460 l 465 840 b 444 840 458 861 451 861 l 322 465 b 326 456 319 458 322 456 m 633 1143 b 621 1135 628 1138 625 1135 b 610 1142 617 1135 614 1136 b 493 1238 582 1172 510 1228 b 479 1243 488 1240 483 1243 b 457 1236 474 1243 468 1242 b 339 1149 425 1219 372 1176 b 314 1135 328 1139 318 1135 b 304 1146 308 1135 304 1140 b 313 1161 304 1151 308 1156 b 468 1306 326 1175 453 1292 b 490 1319 479 1315 486 1319 b 513 1306 496 1319 501 1314 b 653 1200 524 1297 635 1214 b 669 1186 665 1192 669 1189 b 663 1174 669 1182 665 1178 "},"Ä":{"ha":972,"x_min":0,"x_max":0,"o":"m 447 1011 b 478 1065 464 1057 469 1065 b 508 1015 486 1065 492 1058 b 832 178 529 963 747 389 b 951 24 882 54 922 32 b 1007 15 972 17 993 15 b 1021 7 1015 15 1021 14 b 993 -4 1021 -1 1008 -4 b 775 -1 972 -4 871 -4 b 733 8 749 0 733 0 b 743 18 733 14 738 17 b 751 56 751 21 760 33 l 622 397 b 610 406 619 403 617 406 l 311 406 b 297 394 304 406 300 401 l 214 149 b 194 56 201 114 194 81 b 247 15 194 28 224 15 l 261 15 b 275 7 271 15 275 13 b 254 -4 275 -1 267 -4 b 146 0 221 -4 161 0 b -11 -4 131 0 54 -4 b -37 7 -29 -4 -37 -1 b -25 15 -37 13 -32 15 b 15 18 -15 15 4 17 b 132 149 79 26 107 79 m 592 456 b 597 465 599 456 599 460 l 465 840 b 444 840 458 861 451 861 l 322 465 b 326 456 319 458 322 456 m 625 1153 b 567 1213 583 1153 567 1186 b 626 1272 567 1238 583 1272 b 686 1217 660 1272 686 1251 b 625 1153 686 1181 663 1153 m 346 1153 b 288 1213 304 1153 288 1186 b 347 1272 288 1238 304 1272 b 407 1217 381 1272 407 1251 b 346 1153 407 1181 383 1153 "},"À":{"ha":972,"x_min":0,"x_max":0,"o":"m 447 1011 b 478 1065 464 1057 469 1065 b 508 1015 486 1065 492 1058 b 832 178 529 963 747 389 b 951 24 882 54 922 32 b 1007 15 972 17 993 15 b 1021 7 1015 15 1021 14 b 993 -4 1021 -1 1008 -4 b 775 -1 972 -4 871 -4 b 733 8 749 0 733 0 b 743 18 733 14 738 17 b 751 56 751 21 760 33 l 622 397 b 610 406 619 403 617 406 l 311 406 b 297 394 304 406 300 401 l 214 149 b 194 56 201 114 194 81 b 247 15 194 28 224 15 l 261 15 b 275 7 271 15 275 13 b 254 -4 275 -1 267 -4 b 146 0 221 -4 161 0 b -11 -4 131 0 54 -4 b -37 7 -29 -4 -37 -1 b -25 15 -37 13 -32 15 b 15 18 -15 15 4 17 b 132 149 79 26 107 79 m 592 456 b 597 465 599 456 599 460 l 465 840 b 444 840 458 861 451 861 l 322 465 b 326 456 319 458 322 456 m 557 1153 b 306 1235 532 1153 328 1226 b 265 1258 276 1246 265 1251 b 281 1269 265 1265 271 1267 b 364 1296 310 1278 347 1289 b 386 1303 375 1300 381 1303 b 407 1281 393 1303 394 1293 b 543 1179 418 1269 486 1215 b 569 1160 557 1169 569 1165 b 557 1153 569 1156 564 1153 "},"Å":{"ha":972,"x_min":0,"x_max":0,"o":"m 447 1011 b 478 1065 464 1057 469 1065 b 508 1015 486 1065 492 1058 b 832 178 529 963 747 389 b 951 24 882 54 922 32 b 1007 15 972 17 993 15 b 1021 7 1015 15 1021 14 b 993 -4 1021 -1 1008 -4 b 775 -1 972 -4 871 -4 b 733 8 749 0 733 0 b 743 18 733 14 738 17 b 751 56 751 21 760 33 l 622 397 b 610 406 619 403 617 406 l 311 406 b 297 394 304 406 300 401 l 214 149 b 194 56 201 114 194 81 b 247 15 194 28 224 15 l 261 15 b 275 7 271 15 275 13 b 254 -4 275 -1 267 -4 b 146 0 221 -4 161 0 b -11 -4 131 0 54 -4 b -37 7 -29 -4 -37 -1 b -25 15 -37 13 -32 15 b 15 18 -15 15 4 17 b 132 149 79 26 107 79 m 592 456 b 597 465 599 456 599 460 l 465 840 b 444 840 458 861 451 861 l 322 465 b 326 456 319 458 322 456 m 457 1139 b 349 1221 388 1139 349 1174 b 513 1340 349 1283 417 1340 b 626 1261 583 1340 626 1308 b 457 1139 628 1185 538 1139 m 479 1172 b 561 1243 525 1172 561 1204 b 489 1307 561 1276 539 1307 b 410 1239 457 1307 410 1286 b 479 1172 410 1197 446 1172 "},"Ã":{"ha":972,"x_min":0,"x_max":0,"o":"m 447 1011 b 478 1065 464 1057 469 1065 b 508 1015 486 1065 492 1058 b 832 178 529 963 747 389 b 951 24 882 54 922 32 b 1007 15 972 17 993 15 b 1021 7 1015 15 1021 14 b 993 -4 1021 -1 1008 -4 b 775 -1 972 -4 871 -4 b 733 8 749 0 733 0 b 743 18 733 14 738 17 b 751 56 751 21 760 33 l 622 397 b 610 406 619 403 617 406 l 311 406 b 297 394 304 406 300 401 l 214 149 b 194 56 201 114 194 81 b 247 15 194 28 224 15 l 261 15 b 275 7 271 15 275 13 b 254 -4 275 -1 267 -4 b 146 0 221 -4 161 0 b -11 -4 131 0 54 -4 b -37 7 -29 -4 -37 -1 b -25 15 -37 13 -32 15 b 15 18 -15 15 4 17 b 132 149 79 26 107 79 m 592 456 b 597 465 599 456 599 460 l 465 840 b 444 840 458 861 451 861 l 322 465 b 326 456 319 458 322 456 m 585 1153 b 475 1189 539 1153 494 1179 b 381 1221 450 1200 424 1221 b 296 1171 332 1221 306 1182 b 276 1158 289 1163 282 1158 b 268 1167 271 1158 268 1163 b 278 1188 268 1174 272 1179 b 397 1286 297 1218 353 1286 b 514 1243 431 1286 471 1264 b 594 1219 533 1233 572 1219 b 679 1260 646 1219 675 1254 b 696 1275 685 1268 692 1275 b 706 1267 701 1275 706 1271 b 700 1249 706 1261 704 1257 b 585 1153 689 1226 628 1153 "},"Ç":{"ha":1118,"x_min":0,"x_max":0,"o":"m 214 549 b 715 40 214 283 418 40 b 957 110 819 40 901 53 b 1008 226 986 140 1004 201 b 1022 247 1011 242 1014 247 b 1032 226 1029 247 1032 238 b 1001 49 1032 217 1015 96 b 965 8 993 22 990 19 b 715 -24 910 -14 804 -24 b 685 -22 704 -24 694 -24 b 607 -94 661 -42 617 -85 b 746 -193 693 -103 746 -136 b 647 -307 746 -247 694 -287 b 539 -332 610 -324 565 -332 b 521 -321 529 -332 521 -328 b 549 -306 521 -308 533 -307 b 651 -221 597 -300 651 -271 b 551 -119 651 -181 633 -143 b 531 -107 536 -115 531 -112 b 549 -87 531 -103 536 -97 l 631 -19 b 257 126 468 -8 351 42 b 89 538 122 247 89 406 b 244 917 89 631 121 793 b 668 1065 328 1000 454 1065 b 869 1049 724 1065 801 1061 b 1011 1028 922 1039 967 1031 b 1029 1013 1026 1026 1029 1021 b 1022 935 1029 1001 1025 985 b 1018 792 1019 889 1019 813 b 1006 763 1017 771 1014 763 b 994 792 996 763 994 772 b 936 933 994 846 972 903 b 658 1013 888 975 781 1013 b 339 911 474 1013 388 958 b 214 549 238 814 214 690 "},"É":{"ha":847,"x_min":0,"x_max":0,"o":"m 247 643 b 244 943 247 860 247 899 b 185 1022 242 990 231 1013 b 138 1026 174 1025 150 1026 b 126 1035 132 1026 126 1029 b 149 1046 126 1043 133 1046 b 249 1044 181 1046 218 1046 l 306 1042 b 624 1043 315 1042 592 1042 b 683 1050 650 1044 672 1047 b 703 1057 690 1051 696 1057 b 708 1044 707 1057 708 1051 b 697 979 708 1035 701 1018 b 690 888 696 965 693 904 b 681 872 689 881 686 872 b 669 890 672 872 669 879 b 661 940 669 900 668 924 b 563 988 651 963 638 979 b 372 992 539 990 388 992 b 364 978 367 992 364 988 l 364 594 b 372 581 364 585 365 581 b 593 583 390 581 561 581 b 658 603 626 586 646 589 b 679 621 668 614 674 621 b 686 610 683 621 686 618 b 675 532 686 601 679 578 b 669 443 672 504 669 453 b 660 417 669 432 669 417 b 650 429 653 417 650 422 b 644 475 650 443 650 457 b 572 524 639 494 626 518 b 374 531 535 528 397 531 b 364 521 367 531 364 526 l 364 399 b 364 161 364 351 363 190 b 525 47 368 65 389 47 b 658 63 561 47 622 47 b 721 163 694 78 711 106 b 733 183 724 178 726 183 b 742 163 742 183 742 172 b 724 28 742 151 731 57 b 649 -8 714 -8 703 -8 b 414 -4 544 -8 468 -6 b 306 0 360 -1 326 0 b 250 -1 303 0 279 0 b 169 -4 222 -1 190 -4 b 147 7 154 -4 147 -1 b 158 15 147 11 150 15 b 200 21 171 15 188 18 b 240 97 228 26 235 57 b 247 399 247 156 247 265 m 614 1296 b 649 1235 624 1282 633 1263 b 643 1218 656 1222 649 1218 b 601 1218 639 1218 625 1221 b 390 1160 533 1211 436 1179 b 369 1153 381 1156 372 1153 b 363 1161 367 1153 363 1156 b 372 1172 363 1165 365 1168 b 561 1290 422 1207 551 1285 b 600 1308 585 1304 593 1308 b 614 1296 604 1308 607 1306 "},"Ê":{"ha":847,"x_min":0,"x_max":0,"o":"m 247 643 b 244 943 247 860 247 899 b 185 1022 242 990 231 1013 b 138 1026 174 1025 150 1026 b 126 1035 132 1026 126 1029 b 149 1046 126 1043 133 1046 b 249 1044 181 1046 218 1046 l 306 1042 b 624 1043 315 1042 592 1042 b 683 1050 650 1044 672 1047 b 703 1057 690 1051 696 1057 b 708 1044 707 1057 708 1051 b 697 979 708 1035 701 1018 b 690 888 696 965 693 904 b 681 872 689 881 686 872 b 669 890 672 872 669 879 b 661 940 669 900 668 924 b 563 988 651 963 638 979 b 372 992 539 990 388 992 b 364 978 367 992 364 988 l 364 594 b 372 581 364 585 365 581 b 593 583 390 581 561 581 b 658 603 626 586 646 589 b 679 621 668 614 674 621 b 686 610 683 621 686 618 b 675 532 686 601 679 578 b 669 443 672 504 669 453 b 660 417 669 432 669 417 b 650 429 653 417 650 422 b 644 475 650 443 650 457 b 572 524 639 494 626 518 b 374 531 535 528 397 531 b 364 521 367 531 364 526 l 364 399 b 364 161 364 351 363 190 b 525 47 368 65 389 47 b 658 63 561 47 622 47 b 721 163 694 78 711 106 b 733 183 724 178 726 183 b 742 163 742 183 742 172 b 724 28 742 151 731 57 b 649 -8 714 -8 703 -8 b 414 -4 544 -8 468 -6 b 306 0 360 -1 326 0 b 250 -1 303 0 279 0 b 169 -4 222 -1 190 -4 b 147 7 154 -4 147 -1 b 158 15 147 11 150 15 b 200 21 171 15 188 18 b 240 97 228 26 235 57 b 247 399 247 156 247 265 m 597 1143 b 585 1135 592 1138 589 1135 b 574 1142 581 1135 578 1136 b 457 1238 546 1172 474 1228 b 443 1243 451 1240 447 1243 b 421 1236 438 1243 432 1242 b 303 1149 389 1219 336 1176 b 278 1135 292 1139 282 1135 b 268 1146 272 1135 268 1140 b 276 1161 268 1151 272 1156 b 432 1306 290 1175 417 1292 b 454 1319 443 1315 450 1319 b 476 1306 460 1319 465 1314 b 617 1200 488 1297 599 1214 b 633 1186 629 1192 633 1189 b 626 1174 633 1182 629 1178 "},"Ë":{"ha":847,"x_min":0,"x_max":0,"o":"m 247 643 b 244 943 247 860 247 899 b 185 1022 242 990 231 1013 b 138 1026 174 1025 150 1026 b 126 1035 132 1026 126 1029 b 149 1046 126 1043 133 1046 b 249 1044 181 1046 218 1046 l 306 1042 b 624 1043 315 1042 592 1042 b 683 1050 650 1044 672 1047 b 703 1057 690 1051 696 1057 b 708 1044 707 1057 708 1051 b 697 979 708 1035 701 1018 b 690 888 696 965 693 904 b 681 872 689 881 686 872 b 669 890 672 872 669 879 b 661 940 669 900 668 924 b 563 988 651 963 638 979 b 372 992 539 990 388 992 b 364 978 367 992 364 988 l 364 594 b 372 581 364 585 365 581 b 593 583 390 581 561 581 b 658 603 626 586 646 589 b 679 621 668 614 674 621 b 686 610 683 621 686 618 b 675 532 686 601 679 578 b 669 443 672 504 669 453 b 660 417 669 432 669 417 b 650 429 653 417 650 422 b 644 475 650 443 650 457 b 572 524 639 494 626 518 b 374 531 535 528 397 531 b 364 521 367 531 364 526 l 364 399 b 364 161 364 351 363 190 b 525 47 368 65 389 47 b 658 63 561 47 622 47 b 721 163 694 78 711 106 b 733 183 724 178 726 183 b 742 163 742 183 742 172 b 724 28 742 151 731 57 b 649 -8 714 -8 703 -8 b 414 -4 544 -8 468 -6 b 306 0 360 -1 326 0 b 250 -1 303 0 279 0 b 169 -4 222 -1 190 -4 b 147 7 154 -4 147 -1 b 158 15 147 11 150 15 b 200 21 171 15 188 18 b 240 97 228 26 235 57 b 247 399 247 156 247 265 m 589 1153 b 531 1213 547 1153 531 1186 b 590 1272 531 1238 547 1272 b 650 1217 624 1272 650 1251 b 589 1153 650 1181 626 1153 m 310 1153 b 251 1213 268 1153 251 1186 b 311 1272 251 1238 268 1272 b 371 1217 344 1272 371 1251 b 310 1153 371 1181 347 1153 "},"È":{"ha":847,"x_min":0,"x_max":0,"o":"m 247 643 b 244 943 247 860 247 899 b 185 1022 242 990 231 1013 b 138 1026 174 1025 150 1026 b 126 1035 132 1026 126 1029 b 149 1046 126 1043 133 1046 b 249 1044 181 1046 218 1046 l 306 1042 b 624 1043 315 1042 592 1042 b 683 1050 650 1044 672 1047 b 703 1057 690 1051 696 1057 b 708 1044 707 1057 708 1051 b 697 979 708 1035 701 1018 b 690 888 696 965 693 904 b 681 872 689 881 686 872 b 669 890 672 872 669 879 b 661 940 669 900 668 924 b 563 988 651 963 638 979 b 372 992 539 990 388 992 b 364 978 367 992 364 988 l 364 594 b 372 581 364 585 365 581 b 593 583 390 581 561 581 b 658 603 626 586 646 589 b 679 621 668 614 674 621 b 686 610 683 621 686 618 b 675 532 686 601 679 578 b 669 443 672 504 669 453 b 660 417 669 432 669 417 b 650 429 653 417 650 422 b 644 475 650 443 650 457 b 572 524 639 494 626 518 b 374 531 535 528 397 531 b 364 521 367 531 364 526 l 364 399 b 364 161 364 351 363 190 b 525 47 368 65 389 47 b 658 63 561 47 622 47 b 721 163 694 78 711 106 b 733 183 724 178 726 183 b 742 163 742 183 742 172 b 724 28 742 151 731 57 b 649 -8 714 -8 703 -8 b 414 -4 544 -8 468 -6 b 306 0 360 -1 326 0 b 250 -1 303 0 279 0 b 169 -4 222 -1 190 -4 b 147 7 154 -4 147 -1 b 158 15 147 11 150 15 b 200 21 171 15 188 18 b 240 97 228 26 235 57 b 247 399 247 156 247 265 m 521 1153 b 269 1235 496 1153 292 1226 b 229 1258 240 1246 229 1251 b 244 1269 229 1265 235 1267 b 328 1296 274 1278 311 1289 b 350 1303 339 1300 344 1303 b 371 1281 357 1303 358 1293 b 507 1179 382 1269 450 1215 b 533 1160 521 1169 533 1165 b 521 1153 533 1156 528 1153 "},"Í":{"ha":611,"x_min":0,"x_max":0,"o":"m 364 399 b 371 97 364 265 364 156 b 425 21 375 57 383 26 b 488 15 444 18 475 15 b 499 7 496 15 499 11 b 476 -4 499 0 492 -4 b 306 0 400 -4 313 0 b 169 -4 299 0 211 -4 b 147 7 154 -4 147 -1 b 158 15 147 11 150 15 b 200 21 171 15 188 18 b 240 97 228 26 235 57 b 247 399 247 156 247 265 l 247 643 b 244 943 247 860 247 899 b 197 1021 242 990 228 1014 b 154 1026 182 1025 164 1026 b 143 1035 149 1026 143 1029 b 165 1046 143 1043 150 1046 b 306 1042 211 1046 299 1042 b 442 1046 313 1042 400 1046 b 464 1035 457 1046 464 1043 b 453 1026 464 1029 458 1026 b 418 1022 443 1026 435 1025 b 367 943 381 1015 369 992 b 364 643 364 899 364 860 m 483 1296 b 518 1235 493 1282 503 1263 b 513 1218 525 1222 518 1218 b 471 1218 508 1218 494 1221 b 260 1160 403 1211 306 1179 b 239 1153 250 1156 242 1153 b 232 1161 236 1153 232 1156 b 242 1172 232 1165 235 1168 b 431 1290 292 1207 421 1285 b 469 1308 454 1304 463 1308 b 483 1296 474 1308 476 1306 "},"Î":{"ha":611,"x_min":0,"x_max":0,"o":"m 364 399 b 371 97 364 265 364 156 b 425 21 375 57 383 26 b 488 15 444 18 475 15 b 499 7 496 15 499 11 b 476 -4 499 0 492 -4 b 306 0 400 -4 313 0 b 169 -4 299 0 211 -4 b 147 7 154 -4 147 -1 b 158 15 147 11 150 15 b 200 21 171 15 188 18 b 240 97 228 26 235 57 b 247 399 247 156 247 265 l 247 643 b 244 943 247 860 247 899 b 197 1021 242 990 228 1014 b 154 1026 182 1025 164 1026 b 143 1035 149 1026 143 1029 b 165 1046 143 1043 150 1046 b 306 1042 211 1046 299 1042 b 442 1046 313 1042 400 1046 b 464 1035 457 1046 464 1043 b 453 1026 464 1029 458 1026 b 418 1022 443 1026 435 1025 b 367 943 381 1015 369 992 b 364 643 364 899 364 860 m 453 1143 b 440 1135 447 1138 444 1135 b 429 1142 436 1135 433 1136 b 313 1238 401 1172 329 1228 b 299 1243 307 1240 303 1243 b 276 1236 293 1243 288 1242 b 158 1149 244 1219 192 1176 b 133 1135 147 1139 138 1135 b 124 1146 128 1135 124 1140 b 132 1161 124 1151 128 1156 b 288 1306 146 1175 272 1292 b 310 1319 299 1315 306 1319 b 332 1306 315 1319 321 1314 b 472 1200 343 1297 454 1214 b 489 1186 485 1192 489 1189 b 482 1174 489 1182 485 1178 "},"Ï":{"ha":611,"x_min":0,"x_max":0,"o":"m 364 399 b 371 97 364 265 364 156 b 425 21 375 57 383 26 b 488 15 444 18 475 15 b 499 7 496 15 499 11 b 476 -4 499 0 492 -4 b 306 0 400 -4 313 0 b 169 -4 299 0 211 -4 b 147 7 154 -4 147 -1 b 158 15 147 11 150 15 b 200 21 171 15 188 18 b 240 97 228 26 235 57 b 247 399 247 156 247 265 l 247 643 b 244 943 247 860 247 899 b 197 1021 242 990 228 1014 b 154 1026 182 1025 164 1026 b 143 1035 149 1026 143 1029 b 165 1046 143 1043 150 1046 b 306 1042 211 1046 299 1042 b 442 1046 313 1042 400 1046 b 464 1035 457 1046 464 1043 b 453 1026 464 1029 458 1026 b 418 1022 443 1026 435 1025 b 367 943 381 1015 369 992 b 364 643 364 899 364 860 m 444 1153 b 386 1213 403 1153 386 1186 b 446 1272 386 1238 403 1272 b 506 1217 479 1272 506 1251 b 444 1153 506 1181 482 1153 m 165 1153 b 107 1213 124 1153 107 1186 b 167 1272 107 1238 124 1272 b 226 1217 200 1272 226 1251 b 165 1153 226 1181 203 1153 "},"Ì":{"ha":611,"x_min":0,"x_max":0,"o":"m 364 399 b 371 97 364 265 364 156 b 425 21 375 57 383 26 b 488 15 444 18 475 15 b 499 7 496 15 499 11 b 476 -4 499 0 492 -4 b 306 0 400 -4 313 0 b 169 -4 299 0 211 -4 b 147 7 154 -4 147 -1 b 158 15 147 11 150 15 b 200 21 171 15 188 18 b 240 97 228 26 235 57 b 247 399 247 156 247 265 l 247 643 b 244 943 247 860 247 899 b 197 1021 242 990 228 1014 b 154 1026 182 1025 164 1026 b 143 1035 149 1026 143 1029 b 165 1046 143 1043 150 1046 b 306 1042 211 1046 299 1042 b 442 1046 313 1042 400 1046 b 464 1035 457 1046 464 1043 b 453 1026 464 1029 458 1026 b 418 1022 443 1026 435 1025 b 367 943 381 1015 369 992 b 364 643 364 899 364 860 m 376 1153 b 125 1235 351 1153 147 1226 b 85 1258 96 1246 85 1251 b 100 1269 85 1265 90 1267 b 183 1296 129 1278 167 1289 b 206 1303 194 1300 200 1303 b 226 1281 213 1303 214 1293 b 363 1179 238 1269 306 1215 b 389 1160 376 1169 389 1165 b 376 1153 389 1156 383 1153 "},"Ñ":{"ha":1315,"x_min":0,"x_max":0,"o":"m 285 185 b 339 24 288 71 301 35 b 408 15 365 17 396 15 b 419 7 415 15 419 13 b 394 -4 419 -1 411 -4 b 247 0 315 -4 260 0 b 114 -4 235 0 176 -4 b 92 7 100 -4 92 -3 b 103 15 92 13 96 15 b 160 24 114 15 139 17 b 201 200 194 33 201 74 l 203 996 b 218 1065 203 1050 207 1065 b 267 1021 229 1065 253 1035 b 708 544 288 997 494 774 b 1042 182 846 397 997 228 l 1026 888 b 972 1019 1025 978 1015 1008 b 904 1026 947 1025 915 1026 b 893 1036 894 1026 893 1031 b 921 1046 893 1044 904 1046 b 1065 1042 983 1046 1050 1042 b 1183 1046 1081 1042 1126 1046 b 1208 1036 1199 1046 1208 1044 b 1193 1026 1208 1031 1203 1026 b 1160 1022 1186 1026 1176 1026 b 1108 899 1114 1013 1108 982 l 1106 85 b 1093 -14 1106 -7 1103 -14 b 992 75 1082 -14 1065 1 b 629 451 976 89 776 293 b 267 850 468 625 311 800 m 769 1153 b 660 1189 724 1153 679 1179 b 565 1221 635 1200 608 1221 b 481 1171 517 1221 490 1182 b 461 1158 474 1163 467 1158 b 453 1167 456 1158 453 1163 b 463 1188 453 1174 457 1179 b 582 1286 482 1218 538 1286 b 699 1243 615 1286 656 1264 b 779 1219 718 1233 757 1219 b 864 1260 831 1219 860 1254 b 881 1275 869 1268 876 1275 b 890 1267 886 1275 890 1271 b 885 1249 890 1261 889 1257 b 769 1153 874 1226 813 1153 "},"Ó":{"ha":1271,"x_min":0,"x_max":0,"o":"m 89 522 b 636 1065 89 747 253 1065 b 1182 544 949 1065 1182 868 b 628 -24 1182 233 963 -24 b 89 522 247 -24 89 272 m 221 561 b 665 29 221 238 415 29 b 1049 506 790 29 1049 101 b 626 1018 1049 839 846 1018 b 221 561 394 1018 221 865 m 813 1296 b 847 1235 822 1282 832 1263 b 842 1218 854 1222 847 1218 b 800 1218 838 1218 824 1221 b 589 1160 732 1211 635 1179 b 568 1153 579 1156 571 1153 b 561 1161 565 1153 561 1156 b 571 1172 561 1165 564 1168 b 760 1290 621 1207 750 1285 b 799 1308 783 1304 792 1308 b 813 1296 803 1308 806 1306 "},"Ô":{"ha":1271,"x_min":0,"x_max":0,"o":"m 89 522 b 636 1065 89 747 253 1065 b 1182 544 949 1065 1182 868 b 628 -24 1182 233 963 -24 b 89 522 247 -24 89 272 m 221 561 b 665 29 221 238 415 29 b 1049 506 790 29 1049 101 b 626 1018 1049 839 846 1018 b 221 561 394 1018 221 865 m 782 1143 b 769 1135 776 1138 774 1135 b 758 1142 765 1135 763 1136 b 642 1238 731 1172 658 1228 b 628 1243 636 1240 632 1243 b 606 1236 622 1243 617 1242 b 488 1149 574 1219 521 1176 b 463 1135 476 1139 467 1135 b 453 1146 457 1135 453 1140 b 461 1161 453 1151 457 1156 b 617 1306 475 1175 601 1292 b 639 1319 628 1315 635 1319 b 661 1306 644 1319 650 1314 b 801 1200 672 1297 783 1214 b 818 1186 814 1192 818 1189 b 811 1174 818 1182 814 1178 "},"Ö":{"ha":1271,"x_min":0,"x_max":0,"o":"m 89 522 b 636 1065 89 747 253 1065 b 1182 544 949 1065 1182 868 b 628 -24 1182 233 963 -24 b 89 522 247 -24 89 272 m 221 561 b 665 29 221 238 415 29 b 1049 506 790 29 1049 101 b 626 1018 1049 839 846 1018 b 221 561 394 1018 221 865 m 774 1153 b 715 1213 732 1153 715 1186 b 775 1272 715 1238 732 1272 b 835 1217 808 1272 835 1251 b 774 1153 835 1181 811 1153 m 494 1153 b 436 1213 453 1153 436 1186 b 496 1272 436 1238 453 1272 b 556 1217 529 1272 556 1251 b 494 1153 556 1181 532 1153 "},"Ò":{"ha":1271,"x_min":0,"x_max":0,"o":"m 89 522 b 636 1065 89 747 253 1065 b 1182 544 949 1065 1182 868 b 628 -24 1182 233 963 -24 b 89 522 247 -24 89 272 m 221 561 b 665 29 221 238 415 29 b 1049 506 790 29 1049 101 b 626 1018 1049 839 846 1018 b 221 561 394 1018 221 865 m 706 1153 b 454 1235 681 1153 476 1226 b 414 1258 425 1246 414 1251 b 429 1269 414 1265 419 1267 b 513 1296 458 1278 496 1289 b 535 1303 524 1300 529 1303 b 556 1281 542 1303 543 1293 b 692 1179 567 1269 635 1215 b 718 1160 706 1169 718 1165 b 706 1153 718 1156 713 1153 "},"Õ":{"ha":1271,"x_min":0,"x_max":0,"o":"m 89 522 b 636 1065 89 747 253 1065 b 1182 544 949 1065 1182 868 b 628 -24 1182 233 963 -24 b 89 522 247 -24 89 272 m 221 561 b 665 29 221 238 415 29 b 1049 506 790 29 1049 101 b 626 1018 1049 839 846 1018 b 221 561 394 1018 221 865 m 733 1153 b 624 1189 688 1153 643 1179 b 529 1221 599 1200 572 1221 b 444 1171 481 1221 454 1182 b 425 1158 438 1163 431 1158 b 417 1167 419 1158 417 1163 b 426 1188 417 1174 421 1179 b 546 1286 446 1218 501 1286 b 663 1243 579 1286 619 1264 b 743 1219 682 1233 721 1219 b 828 1260 794 1219 824 1254 b 844 1275 833 1268 840 1275 b 854 1267 850 1275 854 1271 b 849 1249 854 1261 853 1257 b 733 1153 838 1226 776 1153 "},"Š":{"ha":792,"x_min":0,"x_max":0,"o":"m 344 -24 b 158 14 279 -24 215 -14 b 138 67 139 24 138 29 b 144 214 138 136 143 192 b 156 236 146 229 149 236 b 165 221 164 236 165 232 b 169 169 165 208 165 189 b 375 28 190 67 282 28 b 574 213 508 28 574 124 b 414 463 574 308 533 364 l 351 514 b 171 815 204 635 171 721 b 458 1065 171 964 282 1065 b 588 1051 513 1065 553 1060 b 636 1044 614 1046 625 1044 b 650 1035 647 1044 650 1042 b 644 888 650 1028 644 982 b 635 856 644 865 642 856 b 624 874 626 856 625 863 b 606 943 622 890 614 928 b 432 1017 597 958 560 1017 b 261 856 336 1017 261 957 b 431 622 261 776 297 726 l 469 592 b 672 265 633 463 672 376 b 554 35 672 208 650 103 b 344 -24 494 -7 419 -24 m 276 1308 b 289 1317 282 1314 285 1317 b 300 1310 293 1317 296 1315 b 417 1214 328 1279 399 1222 b 431 1208 422 1211 426 1208 b 453 1215 436 1208 442 1210 b 571 1303 485 1232 538 1275 b 596 1317 582 1313 592 1317 b 606 1306 601 1317 606 1311 b 597 1290 606 1300 601 1296 b 442 1146 583 1276 457 1160 b 418 1132 431 1136 424 1132 b 397 1146 414 1132 408 1136 b 257 1251 386 1154 275 1238 b 240 1265 244 1260 240 1263 b 247 1278 240 1269 244 1274 "},"Ú":{"ha":1153,"x_min":0,"x_max":0,"o":"m 167 643 b 164 943 167 860 167 899 b 104 1022 161 990 150 1013 b 57 1026 93 1025 69 1026 b 46 1035 51 1026 46 1029 b 68 1046 46 1043 53 1046 b 228 1042 131 1046 215 1042 b 365 1046 240 1042 324 1046 b 388 1035 381 1046 388 1043 b 376 1026 388 1029 382 1026 b 342 1022 367 1026 358 1025 b 290 943 304 1017 293 992 b 288 643 288 899 288 860 l 288 449 b 392 106 288 249 332 163 b 601 29 460 42 522 29 b 819 129 686 29 769 69 b 900 469 883 208 900 326 l 900 643 b 897 943 900 860 900 899 b 838 1022 894 990 883 1013 b 790 1026 826 1025 803 1026 b 779 1035 785 1026 779 1029 b 801 1046 779 1043 786 1046 b 949 1042 864 1046 940 1042 b 1065 1046 958 1042 1024 1046 b 1088 1035 1081 1046 1088 1043 b 1076 1026 1088 1029 1082 1026 b 1042 1022 1067 1026 1058 1025 b 990 943 1004 1014 993 992 b 988 643 988 899 988 860 l 988 494 b 860 79 988 344 971 178 b 574 -24 760 -10 656 -24 b 288 75 526 -24 386 -18 b 167 440 219 140 167 238 m 781 1296 b 815 1235 790 1282 800 1263 b 810 1218 822 1222 815 1218 b 768 1218 806 1218 792 1221 b 557 1160 700 1211 603 1179 b 536 1153 547 1156 539 1153 b 529 1161 533 1153 529 1156 b 539 1172 529 1165 532 1168 b 728 1290 589 1207 718 1285 b 767 1308 751 1304 760 1308 b 781 1296 771 1308 774 1306 "},"Û":{"ha":1153,"x_min":0,"x_max":0,"o":"m 167 643 b 164 943 167 860 167 899 b 104 1022 161 990 150 1013 b 57 1026 93 1025 69 1026 b 46 1035 51 1026 46 1029 b 68 1046 46 1043 53 1046 b 228 1042 131 1046 215 1042 b 365 1046 240 1042 324 1046 b 388 1035 381 1046 388 1043 b 376 1026 388 1029 382 1026 b 342 1022 367 1026 358 1025 b 290 943 304 1017 293 992 b 288 643 288 899 288 860 l 288 449 b 392 106 288 249 332 163 b 601 29 460 42 522 29 b 819 129 686 29 769 69 b 900 469 883 208 900 326 l 900 643 b 897 943 900 860 900 899 b 838 1022 894 990 883 1013 b 790 1026 826 1025 803 1026 b 779 1035 785 1026 779 1029 b 801 1046 779 1043 786 1046 b 949 1042 864 1046 940 1042 b 1065 1046 958 1042 1024 1046 b 1088 1035 1081 1046 1088 1043 b 1076 1026 1088 1029 1082 1026 b 1042 1022 1067 1026 1058 1025 b 990 943 1004 1014 993 992 b 988 643 988 899 988 860 l 988 494 b 860 79 988 344 971 178 b 574 -24 760 -10 656 -24 b 288 75 526 -24 386 -18 b 167 440 219 140 167 238 m 743 1143 b 731 1135 738 1138 735 1135 b 719 1142 726 1135 724 1136 b 603 1238 692 1172 619 1228 b 589 1243 597 1240 593 1243 b 567 1236 583 1243 578 1242 b 449 1149 535 1219 482 1176 b 424 1135 438 1139 428 1135 b 414 1146 418 1135 414 1140 b 422 1161 414 1151 418 1156 b 578 1306 436 1175 563 1292 b 600 1319 589 1315 596 1319 b 622 1306 606 1319 611 1314 b 763 1200 633 1297 744 1214 b 779 1186 775 1192 779 1189 b 772 1174 779 1182 775 1178 "},"Ü":{"ha":1153,"x_min":0,"x_max":0,"o":"m 167 643 b 164 943 167 860 167 899 b 104 1022 161 990 150 1013 b 57 1026 93 1025 69 1026 b 46 1035 51 1026 46 1029 b 68 1046 46 1043 53 1046 b 228 1042 131 1046 215 1042 b 365 1046 240 1042 324 1046 b 388 1035 381 1046 388 1043 b 376 1026 388 1029 382 1026 b 342 1022 367 1026 358 1025 b 290 943 304 1017 293 992 b 288 643 288 899 288 860 l 288 449 b 392 106 288 249 332 163 b 601 29 460 42 522 29 b 819 129 686 29 769 69 b 900 469 883 208 900 326 l 900 643 b 897 943 900 860 900 899 b 838 1022 894 990 883 1013 b 790 1026 826 1025 803 1026 b 779 1035 785 1026 779 1029 b 801 1046 779 1043 786 1046 b 949 1042 864 1046 940 1042 b 1065 1046 958 1042 1024 1046 b 1088 1035 1081 1046 1088 1043 b 1076 1026 1088 1029 1082 1026 b 1042 1022 1067 1026 1058 1025 b 990 943 1004 1014 993 992 b 988 643 988 899 988 860 l 988 494 b 860 79 988 344 971 178 b 574 -24 760 -10 656 -24 b 288 75 526 -24 386 -18 b 167 440 219 140 167 238 m 742 1153 b 683 1213 700 1153 683 1186 b 743 1272 683 1238 700 1272 b 803 1217 776 1272 803 1251 b 742 1153 803 1181 779 1153 m 463 1153 b 404 1213 421 1153 404 1186 b 464 1272 404 1238 421 1272 b 524 1217 497 1272 524 1251 b 463 1153 524 1181 500 1153 "},"Ù":{"ha":1153,"x_min":0,"x_max":0,"o":"m 167 643 b 164 943 167 860 167 899 b 104 1022 161 990 150 1013 b 57 1026 93 1025 69 1026 b 46 1035 51 1026 46 1029 b 68 1046 46 1043 53 1046 b 228 1042 131 1046 215 1042 b 365 1046 240 1042 324 1046 b 388 1035 381 1046 388 1043 b 376 1026 388 1029 382 1026 b 342 1022 367 1026 358 1025 b 290 943 304 1017 293 992 b 288 643 288 899 288 860 l 288 449 b 392 106 288 249 332 163 b 601 29 460 42 522 29 b 819 129 686 29 769 69 b 900 469 883 208 900 326 l 900 643 b 897 943 900 860 900 899 b 838 1022 894 990 883 1013 b 790 1026 826 1025 803 1026 b 779 1035 785 1026 779 1029 b 801 1046 779 1043 786 1046 b 949 1042 864 1046 940 1042 b 1065 1046 958 1042 1024 1046 b 1088 1035 1081 1046 1088 1043 b 1076 1026 1088 1029 1082 1026 b 1042 1022 1067 1026 1058 1025 b 990 943 1004 1014 993 992 b 988 643 988 899 988 860 l 988 494 b 860 79 988 344 971 178 b 574 -24 760 -10 656 -24 b 288 75 526 -24 386 -18 b 167 440 219 140 167 238 m 653 1153 b 401 1235 628 1153 424 1226 b 361 1258 372 1246 361 1251 b 376 1269 361 1265 367 1267 b 460 1296 406 1278 443 1289 b 482 1303 471 1300 476 1303 b 503 1281 489 1303 490 1293 b 639 1179 514 1269 582 1215 b 665 1160 653 1169 665 1165 b 653 1153 665 1156 660 1153 "},"Ý":{"ha":908,"x_min":0,"x_max":0,"o":"m 401 356 b 369 501 401 431 388 461 b 125 901 360 524 174 829 b 31 1004 90 953 56 988 b -29 1026 10 1018 -17 1026 b -43 1036 -36 1026 -43 1029 b -25 1046 -43 1042 -37 1046 b 113 1042 1 1046 106 1042 b 229 1046 122 1042 175 1046 b 247 1036 244 1046 247 1042 b 226 1024 247 1031 239 1029 b 208 999 215 1018 208 1010 b 226 944 208 982 215 965 b 482 506 249 904 457 546 b 713 914 508 564 685 868 b 736 985 731 943 736 967 b 714 1024 736 1004 731 1019 b 693 1038 701 1028 693 1031 b 715 1046 693 1043 701 1046 b 807 1042 751 1046 796 1042 b 942 1046 815 1042 915 1046 b 960 1038 951 1046 960 1043 b 942 1026 960 1031 953 1026 b 878 1007 926 1026 900 1021 b 804 936 850 990 835 974 b 539 494 758 881 564 554 b 518 356 518 444 518 401 l 518 236 b 522 97 518 214 518 156 b 579 21 525 57 538 26 b 642 15 599 18 629 15 b 653 7 650 15 653 11 b 631 -4 653 0 646 -4 b 460 0 554 -4 467 0 b 324 -4 453 0 365 -4 b 301 7 308 -4 301 -1 b 313 15 301 11 304 15 b 354 21 325 15 342 18 b 397 97 382 26 394 57 b 401 236 401 156 401 214 m 672 1296 b 707 1235 682 1282 692 1263 b 701 1218 714 1222 707 1218 b 660 1218 697 1218 683 1221 b 449 1160 592 1211 494 1179 b 428 1153 439 1156 431 1153 b 421 1161 425 1153 421 1156 b 431 1172 421 1165 424 1168 b 619 1290 481 1207 610 1285 b 658 1308 643 1304 651 1308 b 672 1296 663 1308 665 1306 "},"Ÿ":{"ha":908,"x_min":0,"x_max":0,"o":"m 401 356 b 369 501 401 431 388 461 b 125 901 360 524 174 829 b 31 1004 90 953 56 988 b -29 1026 10 1018 -17 1026 b -43 1036 -36 1026 -43 1029 b -25 1046 -43 1042 -37 1046 b 113 1042 1 1046 106 1042 b 229 1046 122 1042 175 1046 b 247 1036 244 1046 247 1042 b 226 1024 247 1031 239 1029 b 208 999 215 1018 208 1010 b 226 944 208 982 215 965 b 482 506 249 904 457 546 b 713 914 508 564 685 868 b 736 985 731 943 736 967 b 714 1024 736 1004 731 1019 b 693 1038 701 1028 693 1031 b 715 1046 693 1043 701 1046 b 807 1042 751 1046 796 1042 b 942 1046 815 1042 915 1046 b 960 1038 951 1046 960 1043 b 942 1026 960 1031 953 1026 b 878 1007 926 1026 900 1021 b 804 936 850 990 835 974 b 539 494 758 881 564 554 b 518 356 518 444 518 401 l 518 236 b 522 97 518 214 518 156 b 579 21 525 57 538 26 b 642 15 599 18 629 15 b 653 7 650 15 653 11 b 631 -4 653 0 646 -4 b 460 0 554 -4 467 0 b 324 -4 453 0 365 -4 b 301 7 308 -4 301 -1 b 313 15 301 11 304 15 b 354 21 325 15 342 18 b 397 97 382 26 394 57 b 401 236 401 156 401 214 m 626 1153 b 568 1213 585 1153 568 1186 b 628 1272 568 1238 585 1272 b 688 1217 661 1272 688 1251 b 626 1153 688 1181 664 1153 m 347 1153 b 289 1213 306 1153 289 1186 b 349 1272 289 1238 306 1272 b 408 1217 382 1272 408 1251 b 347 1153 408 1181 385 1153 "},"Ž":{"ha":961,"x_min":0,"x_max":0,"o":"m 633 56 b 853 124 779 56 824 82 b 881 199 865 142 878 179 b 893 221 883 213 886 221 b 904 189 901 221 904 215 b 876 29 904 146 885 64 b 835 -7 868 -4 867 -7 b 126 0 603 -7 369 0 b 101 11 110 0 101 1 b 121 50 101 18 104 25 b 731 989 328 363 538 675 l 429 989 b 229 961 358 989 274 985 b 150 851 179 935 154 883 b 135 826 147 831 142 826 b 126 844 128 826 126 833 b 154 1029 126 861 147 988 b 168 1056 157 1049 160 1056 b 226 1046 181 1056 189 1047 b 468 1042 358 1040 425 1042 l 856 1042 b 883 1031 876 1042 883 1039 b 878 1014 883 1025 883 1022 b 256 56 676 694 467 375 m 340 1308 b 353 1317 346 1314 349 1317 b 364 1310 357 1317 360 1315 b 481 1214 392 1279 463 1222 b 494 1208 486 1211 490 1208 b 517 1215 500 1208 506 1210 b 635 1303 549 1232 601 1275 b 660 1317 646 1313 656 1317 b 669 1306 665 1317 669 1311 b 661 1290 669 1300 665 1296 b 506 1146 647 1276 521 1160 b 482 1132 494 1136 488 1132 b 461 1146 478 1132 472 1136 b 321 1251 450 1154 339 1238 b 304 1265 308 1260 304 1263 b 311 1278 304 1269 308 1274 "},"á":{"ha":867,"x_min":0,"x_max":0,"o":"m 401 865 b 431 911 417 904 422 911 b 460 868 443 911 447 894 b 753 151 482 818 678 331 b 857 22 797 46 831 31 b 906 15 875 17 893 15 b 921 6 913 15 921 13 b 893 -4 921 -1 907 -4 b 700 -1 875 -4 785 -4 b 657 7 676 0 657 0 b 665 15 657 13 660 13 b 676 47 672 18 685 28 l 567 318 b 556 325 564 324 563 325 l 274 325 b 261 315 268 325 264 322 l 192 126 b 174 47 181 97 174 68 b 215 15 174 24 194 15 l 226 15 b 239 6 236 15 239 11 b 221 -4 239 -1 232 -4 b 111 0 192 -4 125 0 b -12 -4 99 0 38 -4 b -36 6 -28 -4 -36 -1 b -25 15 -36 11 -31 15 b 11 18 -17 15 1 17 b 114 126 67 25 90 67 m 538 374 b 542 382 543 374 543 376 l 421 706 b 400 706 414 724 407 724 l 286 382 b 290 374 285 376 286 374 m 611 1136 b 646 1075 621 1122 631 1103 b 640 1058 653 1063 646 1058 b 599 1058 636 1058 622 1061 b 388 1000 531 1051 433 1019 b 367 993 378 996 369 993 b 360 1001 364 993 360 996 b 369 1013 360 1006 363 1008 b 558 1131 419 1047 549 1125 b 597 1149 582 1144 590 1149 b 611 1136 601 1149 604 1146 "},"â":{"ha":867,"x_min":0,"x_max":0,"o":"m 401 865 b 431 911 417 904 422 911 b 460 868 443 911 447 894 b 753 151 482 818 678 331 b 857 22 797 46 831 31 b 906 15 875 17 893 15 b 921 6 913 15 921 13 b 893 -4 921 -1 907 -4 b 700 -1 875 -4 785 -4 b 657 7 676 0 657 0 b 665 15 657 13 660 13 b 676 47 672 18 685 28 l 567 318 b 556 325 564 324 563 325 l 274 325 b 261 315 268 325 264 322 l 192 126 b 174 47 181 97 174 68 b 215 15 174 24 194 15 l 226 15 b 239 6 236 15 239 11 b 221 -4 239 -1 232 -4 b 111 0 192 -4 125 0 b -12 -4 99 0 38 -4 b -36 6 -28 -4 -36 -1 b -25 15 -36 11 -31 15 b 11 18 -17 15 1 17 b 114 126 67 25 90 67 m 538 374 b 542 382 543 374 543 376 l 421 706 b 400 706 414 724 407 724 l 286 382 b 290 374 285 376 286 374 m 581 983 b 568 975 575 978 572 975 b 557 982 564 975 561 976 b 440 1078 529 1013 457 1068 b 426 1083 435 1081 431 1083 b 404 1076 421 1083 415 1082 b 286 989 372 1060 319 1017 b 261 975 275 979 265 975 b 251 986 256 975 251 981 b 260 1001 251 992 256 996 b 415 1146 274 1015 400 1132 b 438 1160 426 1156 433 1160 b 460 1146 443 1160 449 1154 b 600 1040 471 1138 582 1054 b 617 1026 613 1032 617 1029 b 610 1014 617 1022 613 1018 "},"ä":{"ha":867,"x_min":0,"x_max":0,"o":"m 401 865 b 431 911 417 904 422 911 b 460 868 443 911 447 894 b 753 151 482 818 678 331 b 857 22 797 46 831 31 b 906 15 875 17 893 15 b 921 6 913 15 921 13 b 893 -4 921 -1 907 -4 b 700 -1 875 -4 785 -4 b 657 7 676 0 657 0 b 665 15 657 13 660 13 b 676 47 672 18 685 28 l 567 318 b 556 325 564 324 563 325 l 274 325 b 261 315 268 325 264 322 l 192 126 b 174 47 181 97 174 68 b 215 15 174 24 194 15 l 226 15 b 239 6 236 15 239 11 b 221 -4 239 -1 232 -4 b 111 0 192 -4 125 0 b -12 -4 99 0 38 -4 b -36 6 -28 -4 -36 -1 b -25 15 -36 11 -31 15 b 11 18 -17 15 1 17 b 114 126 67 25 90 67 m 538 374 b 542 382 543 374 543 376 l 421 706 b 400 706 414 724 407 724 l 286 382 b 290 374 285 376 286 374 m 572 993 b 514 1053 531 993 514 1026 b 574 1113 514 1078 531 1113 b 633 1057 607 1113 633 1092 b 572 993 633 1021 610 993 m 293 993 b 235 1053 251 993 235 1026 b 294 1113 235 1078 251 1113 b 354 1057 328 1113 354 1092 b 293 993 354 1021 331 993 "},"à":{"ha":867,"x_min":0,"x_max":0,"o":"m 401 865 b 431 911 417 904 422 911 b 460 868 443 911 447 894 b 753 151 482 818 678 331 b 857 22 797 46 831 31 b 906 15 875 17 893 15 b 921 6 913 15 921 13 b 893 -4 921 -1 907 -4 b 700 -1 875 -4 785 -4 b 657 7 676 0 657 0 b 665 15 657 13 660 13 b 676 47 672 18 685 28 l 567 318 b 556 325 564 324 563 325 l 274 325 b 261 315 268 325 264 322 l 192 126 b 174 47 181 97 174 68 b 215 15 174 24 194 15 l 226 15 b 239 6 236 15 239 11 b 221 -4 239 -1 232 -4 b 111 0 192 -4 125 0 b -12 -4 99 0 38 -4 b -36 6 -28 -4 -36 -1 b -25 15 -36 11 -31 15 b 11 18 -17 15 1 17 b 114 126 67 25 90 67 m 538 374 b 542 382 543 374 543 376 l 421 706 b 400 706 414 724 407 724 l 286 382 b 290 374 285 376 286 374 m 504 993 b 253 1075 479 993 275 1067 b 213 1099 224 1086 213 1092 b 228 1110 213 1106 218 1107 b 311 1136 257 1118 294 1129 b 333 1143 322 1140 328 1143 b 354 1121 340 1143 342 1133 b 490 1019 365 1110 433 1056 b 517 1000 504 1010 517 1006 b 504 993 517 996 511 993 "},"å":{"ha":867,"x_min":0,"x_max":0,"o":"m 401 865 b 431 911 417 904 422 911 b 460 868 443 911 447 894 b 753 151 482 818 678 331 b 857 22 797 46 831 31 b 906 15 875 17 893 15 b 921 6 913 15 921 13 b 893 -4 921 -1 907 -4 b 700 -1 875 -4 785 -4 b 657 7 676 0 657 0 b 665 15 657 13 660 13 b 676 47 672 18 685 28 l 567 318 b 556 325 564 324 563 325 l 274 325 b 261 315 268 325 264 322 l 192 126 b 174 47 181 97 174 68 b 215 15 174 24 194 15 l 226 15 b 239 6 236 15 239 11 b 221 -4 239 -1 232 -4 b 111 0 192 -4 125 0 b -12 -4 99 0 38 -4 b -36 6 -28 -4 -36 -1 b -25 15 -36 11 -31 15 b 11 18 -17 15 1 17 b 114 126 67 25 90 67 m 538 374 b 542 382 543 374 543 376 l 421 706 b 400 706 414 724 407 724 l 286 382 b 290 374 285 376 286 374 m 404 979 b 296 1061 335 979 296 1014 b 460 1181 296 1124 364 1181 b 574 1101 531 1181 574 1149 b 404 979 575 1025 485 979 m 426 1013 b 508 1083 472 1013 508 1044 b 436 1147 508 1117 486 1147 b 357 1079 404 1147 357 1126 b 426 1013 357 1038 393 1013 "},"ã":{"ha":867,"x_min":0,"x_max":0,"o":"m 401 865 b 431 911 417 904 422 911 b 460 868 443 911 447 894 b 753 151 482 818 678 331 b 857 22 797 46 831 31 b 906 15 875 17 893 15 b 921 6 913 15 921 13 b 893 -4 921 -1 907 -4 b 700 -1 875 -4 785 -4 b 657 7 676 0 657 0 b 665 15 657 13 660 13 b 676 47 672 18 685 28 l 567 318 b 556 325 564 324 563 325 l 274 325 b 261 315 268 325 264 322 l 192 126 b 174 47 181 97 174 68 b 215 15 174 24 194 15 l 226 15 b 239 6 236 15 239 11 b 221 -4 239 -1 232 -4 b 111 0 192 -4 125 0 b -12 -4 99 0 38 -4 b -36 6 -28 -4 -36 -1 b -25 15 -36 11 -31 15 b 11 18 -17 15 1 17 b 114 126 67 25 90 67 m 538 374 b 542 382 543 374 543 376 l 421 706 b 400 706 414 724 407 724 l 286 382 b 290 374 285 376 286 374 m 532 993 b 422 1029 486 993 442 1019 b 328 1061 397 1040 371 1061 b 243 1011 279 1061 253 1022 b 224 999 236 1003 229 999 b 215 1007 218 999 215 1003 b 225 1028 215 1014 219 1019 b 344 1126 244 1058 300 1126 b 461 1083 378 1126 418 1104 b 542 1060 481 1074 519 1060 b 626 1100 593 1060 622 1094 b 643 1115 632 1108 639 1115 b 653 1107 649 1115 653 1111 b 647 1089 653 1101 651 1097 b 532 993 636 1067 575 993 "},"ç":{"ha":983,"x_min":0,"x_max":0,"o":"m 581 -18 b 499 -94 553 -43 508 -85 b 638 -193 585 -103 638 -136 b 539 -307 638 -247 586 -287 b 431 -332 501 -324 457 -332 b 413 -321 421 -332 413 -328 b 440 -306 413 -308 425 -307 b 543 -221 489 -300 543 -271 b 443 -119 543 -181 525 -143 b 422 -107 428 -115 422 -112 b 440 -87 422 -103 428 -97 l 529 -15 b 225 107 399 -1 303 40 b 76 457 106 210 76 344 b 214 779 76 536 106 674 b 586 906 288 850 399 906 b 764 893 635 906 704 903 b 889 874 810 886 849 875 b 904 861 901 874 904 868 b 899 794 904 851 901 838 b 896 674 897 756 897 690 b 882 649 894 656 889 649 b 872 674 874 649 872 657 b 821 792 872 719 853 767 b 581 857 778 828 689 857 b 306 775 424 857 349 815 b 196 467 215 692 196 586 b 636 39 196 240 375 39 b 838 94 728 39 789 46 b 885 193 864 121 881 171 b 897 210 888 206 889 210 b 908 193 903 210 908 201 b 879 42 908 185 892 82 b 849 7 872 19 869 15 b 628 -19 799 -12 707 -19 b 581 -18 611 -19 596 -19 "},"é":{"ha":765,"x_min":0,"x_max":0,"o":"m 215 547 b 213 801 215 731 215 764 b 163 867 210 842 203 861 b 121 869 153 868 132 869 b 111 879 117 869 111 875 b 131 889 111 886 117 889 b 272 886 186 889 265 886 b 564 886 281 886 536 885 b 619 893 588 888 610 892 b 636 899 625 894 631 899 b 642 888 640 899 642 893 b 632 832 642 879 635 865 b 625 754 631 821 628 768 b 614 742 624 749 619 742 b 604 757 607 742 604 747 b 597 799 604 765 603 785 b 510 835 589 818 576 826 b 333 839 489 838 347 839 b 326 826 328 839 326 835 l 326 506 b 333 493 326 497 326 493 b 538 496 349 493 510 493 b 597 513 567 499 585 500 b 615 528 606 521 611 528 b 622 518 619 528 622 525 b 613 453 622 511 615 492 b 607 376 610 429 607 385 b 596 354 607 367 604 354 b 588 365 590 354 588 358 b 582 404 588 376 588 389 b 519 440 578 421 567 435 b 335 446 486 444 356 446 b 326 438 328 446 326 442 l 326 339 b 326 138 326 299 325 161 b 472 43 329 58 351 43 b 594 56 504 43 563 43 b 650 138 626 69 643 90 b 663 156 653 151 656 156 b 671 138 669 156 671 146 b 654 24 671 129 661 49 b 586 -7 646 -7 633 -7 b 374 -3 494 -7 424 -4 b 272 0 322 0 290 0 b 219 -1 269 0 246 0 b 149 -4 196 -3 168 -4 b 129 6 136 -4 129 -1 b 139 15 129 10 132 15 b 176 21 150 15 165 19 b 208 83 200 25 203 49 b 215 339 215 132 215 225 m 560 1136 b 594 1075 569 1122 579 1103 b 589 1058 601 1063 594 1058 b 547 1058 585 1058 571 1061 b 336 1000 479 1051 382 1019 b 315 993 326 996 318 993 b 308 1001 313 993 308 996 b 318 1013 308 1006 311 1008 b 507 1131 368 1047 497 1125 b 546 1149 531 1144 539 1149 b 560 1136 550 1149 553 1146 "},"ê":{"ha":765,"x_min":0,"x_max":0,"o":"m 215 547 b 213 801 215 731 215 764 b 163 867 210 842 203 861 b 121 869 153 868 132 869 b 111 879 117 869 111 875 b 131 889 111 886 117 889 b 272 886 186 889 265 886 b 564 886 281 886 536 885 b 619 893 588 888 610 892 b 636 899 625 894 631 899 b 642 888 640 899 642 893 b 632 832 642 879 635 865 b 625 754 631 821 628 768 b 614 742 624 749 619 742 b 604 757 607 742 604 747 b 597 799 604 765 603 785 b 510 835 589 818 576 826 b 333 839 489 838 347 839 b 326 826 328 839 326 835 l 326 506 b 333 493 326 497 326 493 b 538 496 349 493 510 493 b 597 513 567 499 585 500 b 615 528 606 521 611 528 b 622 518 619 528 622 525 b 613 453 622 511 615 492 b 607 376 610 429 607 385 b 596 354 607 367 604 354 b 588 365 590 354 588 358 b 582 404 588 376 588 389 b 519 440 578 421 567 435 b 335 446 486 444 356 446 b 326 438 328 446 326 442 l 326 339 b 326 138 326 299 325 161 b 472 43 329 58 351 43 b 594 56 504 43 563 43 b 650 138 626 69 643 90 b 663 156 653 151 656 156 b 671 138 669 156 671 146 b 654 24 671 129 661 49 b 586 -7 646 -7 633 -7 b 374 -3 494 -7 424 -4 b 272 0 322 0 290 0 b 219 -1 269 0 246 0 b 149 -4 196 -3 168 -4 b 129 6 136 -4 129 -1 b 139 15 129 10 132 15 b 176 21 150 15 165 19 b 208 83 200 25 203 49 b 215 339 215 132 215 225 m 543 983 b 531 975 538 978 535 975 b 519 982 526 975 524 976 b 403 1078 492 1013 419 1068 b 389 1083 397 1081 393 1083 b 367 1076 383 1083 378 1082 b 249 989 335 1060 282 1017 b 224 975 238 979 228 975 b 214 986 218 975 214 981 b 222 1001 214 992 218 996 b 378 1146 236 1015 363 1132 b 400 1160 389 1156 396 1160 b 422 1146 406 1160 411 1154 b 563 1040 433 1138 544 1054 b 579 1026 575 1032 579 1029 b 572 1014 579 1022 575 1018 "},"ë":{"ha":765,"x_min":0,"x_max":0,"o":"m 215 547 b 213 801 215 731 215 764 b 163 867 210 842 203 861 b 121 869 153 868 132 869 b 111 879 117 869 111 875 b 131 889 111 886 117 889 b 272 886 186 889 265 886 b 564 886 281 886 536 885 b 619 893 588 888 610 892 b 636 899 625 894 631 899 b 642 888 640 899 642 893 b 632 832 642 879 635 865 b 625 754 631 821 628 768 b 614 742 624 749 619 742 b 604 757 607 742 604 747 b 597 799 604 765 603 785 b 510 835 589 818 576 826 b 333 839 489 838 347 839 b 326 826 328 839 326 835 l 326 506 b 333 493 326 497 326 493 b 538 496 349 493 510 493 b 597 513 567 499 585 500 b 615 528 606 521 611 528 b 622 518 619 528 622 525 b 613 453 622 511 615 492 b 607 376 610 429 607 385 b 596 354 607 367 604 354 b 588 365 590 354 588 358 b 582 404 588 376 588 389 b 519 440 578 421 567 435 b 335 446 486 444 356 446 b 326 438 328 446 326 442 l 326 339 b 326 138 326 299 325 161 b 472 43 329 58 351 43 b 594 56 504 43 563 43 b 650 138 626 69 643 90 b 663 156 653 151 656 156 b 671 138 669 156 671 146 b 654 24 671 129 661 49 b 586 -7 646 -7 633 -7 b 374 -3 494 -7 424 -4 b 272 0 322 0 290 0 b 219 -1 269 0 246 0 b 149 -4 196 -3 168 -4 b 129 6 136 -4 129 -1 b 139 15 129 10 132 15 b 176 21 150 15 165 19 b 208 83 200 25 203 49 b 215 339 215 132 215 225 m 521 993 b 463 1053 479 993 463 1026 b 522 1113 463 1078 479 1113 b 582 1057 556 1113 582 1092 b 521 993 582 1021 558 993 m 242 993 b 183 1053 200 993 183 1026 b 243 1113 183 1078 200 1113 b 303 1057 276 1113 303 1092 b 242 993 303 1021 279 993 "},"è":{"ha":765,"x_min":0,"x_max":0,"o":"m 215 547 b 213 801 215 731 215 764 b 163 867 210 842 203 861 b 121 869 153 868 132 869 b 111 879 117 869 111 875 b 131 889 111 886 117 889 b 272 886 186 889 265 886 b 564 886 281 886 536 885 b 619 893 588 888 610 892 b 636 899 625 894 631 899 b 642 888 640 899 642 893 b 632 832 642 879 635 865 b 625 754 631 821 628 768 b 614 742 624 749 619 742 b 604 757 607 742 604 747 b 597 799 604 765 603 785 b 510 835 589 818 576 826 b 333 839 489 838 347 839 b 326 826 328 839 326 835 l 326 506 b 333 493 326 497 326 493 b 538 496 349 493 510 493 b 597 513 567 499 585 500 b 615 528 606 521 611 528 b 622 518 619 528 622 525 b 613 453 622 511 615 492 b 607 376 610 429 607 385 b 596 354 607 367 604 354 b 588 365 590 354 588 358 b 582 404 588 376 588 389 b 519 440 578 421 567 435 b 335 446 486 444 356 446 b 326 438 328 446 326 442 l 326 339 b 326 138 326 299 325 161 b 472 43 329 58 351 43 b 594 56 504 43 563 43 b 650 138 626 69 643 90 b 663 156 653 151 656 156 b 671 138 669 156 671 146 b 654 24 671 129 661 49 b 586 -7 646 -7 633 -7 b 374 -3 494 -7 424 -4 b 272 0 322 0 290 0 b 219 -1 269 0 246 0 b 149 -4 196 -3 168 -4 b 129 6 136 -4 129 -1 b 139 15 129 10 132 15 b 176 21 150 15 165 19 b 208 83 200 25 203 49 b 215 339 215 132 215 225 m 481 993 b 229 1075 456 993 251 1067 b 189 1099 200 1086 189 1092 b 204 1110 189 1106 194 1107 b 288 1136 233 1118 271 1129 b 310 1143 299 1140 304 1143 b 331 1121 317 1143 318 1133 b 467 1019 342 1110 410 1056 b 493 1000 481 1010 493 1006 b 481 993 493 996 488 993 "},"í":{"ha":540,"x_min":0,"x_max":0,"o":"m 326 339 b 332 83 326 225 326 132 b 376 21 336 49 340 26 b 432 15 394 18 421 15 b 442 6 439 15 442 10 b 422 -4 442 0 436 -4 b 269 0 354 -4 275 0 b 149 -4 263 0 186 -4 b 129 6 136 -4 129 -1 b 139 15 129 10 132 15 b 176 21 150 15 165 18 b 208 83 200 26 204 49 b 215 339 214 132 215 225 l 215 547 b 213 801 215 731 215 764 b 174 865 210 842 200 860 b 136 869 160 868 144 869 b 126 879 131 869 126 875 b 146 889 126 886 132 889 b 269 886 186 889 263 886 b 392 889 275 886 354 889 b 411 879 406 889 411 886 b 401 869 411 875 406 869 b 371 867 393 869 385 869 b 328 801 338 860 331 843 b 326 547 326 764 326 731 m 447 1136 b 482 1075 457 1122 467 1103 b 476 1058 489 1063 482 1058 b 435 1058 472 1058 458 1061 b 224 1000 367 1051 269 1019 b 203 993 214 996 206 993 b 196 1001 200 993 196 996 b 206 1013 196 1006 199 1008 b 394 1131 256 1047 385 1125 b 433 1149 418 1144 426 1149 b 447 1136 438 1149 440 1146 "},"î":{"ha":540,"x_min":0,"x_max":0,"o":"m 326 339 b 332 83 326 225 326 132 b 376 21 336 49 340 26 b 432 15 394 18 421 15 b 442 6 439 15 442 10 b 422 -4 442 0 436 -4 b 269 0 354 -4 275 0 b 149 -4 263 0 186 -4 b 129 6 136 -4 129 -1 b 139 15 129 10 132 15 b 176 21 150 15 165 18 b 208 83 200 26 204 49 b 215 339 214 132 215 225 l 215 547 b 213 801 215 731 215 764 b 174 865 210 842 200 860 b 136 869 160 868 144 869 b 126 879 131 869 126 875 b 146 889 126 886 132 889 b 269 886 186 889 263 886 b 392 889 275 886 354 889 b 411 879 406 889 411 886 b 401 869 411 875 406 869 b 371 867 393 869 385 869 b 328 801 338 860 331 843 b 326 547 326 764 326 731 m 417 983 b 404 975 411 978 408 975 b 393 982 400 975 397 976 b 276 1078 365 1013 293 1068 b 263 1083 271 1081 267 1083 b 240 1076 257 1083 251 1082 b 122 989 208 1060 156 1017 b 97 975 111 979 101 975 b 88 986 92 975 88 981 b 96 1001 88 992 92 996 b 251 1146 110 1015 236 1132 b 274 1160 263 1156 269 1160 b 296 1146 279 1160 285 1154 b 436 1040 307 1138 418 1054 b 453 1026 449 1032 453 1029 b 446 1014 453 1022 449 1018 "},"ï":{"ha":540,"x_min":0,"x_max":0,"o":"m 326 339 b 332 83 326 225 326 132 b 376 21 336 49 340 26 b 432 15 394 18 421 15 b 442 6 439 15 442 10 b 422 -4 442 0 436 -4 b 269 0 354 -4 275 0 b 149 -4 263 0 186 -4 b 129 6 136 -4 129 -1 b 139 15 129 10 132 15 b 176 21 150 15 165 18 b 208 83 200 26 204 49 b 215 339 214 132 215 225 l 215 547 b 213 801 215 731 215 764 b 174 865 210 842 200 860 b 136 869 160 868 144 869 b 126 879 131 869 126 875 b 146 889 126 886 132 889 b 269 886 186 889 263 886 b 392 889 275 886 354 889 b 411 879 406 889 411 886 b 401 869 411 875 406 869 b 371 867 393 869 385 869 b 328 801 338 860 331 843 b 326 547 326 764 326 731 m 408 993 b 350 1053 367 993 350 1026 b 410 1113 350 1078 367 1113 b 469 1057 443 1113 469 1092 b 408 993 469 1021 446 993 m 129 993 b 71 1053 88 993 71 1026 b 131 1113 71 1078 88 1113 b 190 1057 164 1113 190 1092 b 129 993 190 1021 167 993 "},"ì":{"ha":540,"x_min":0,"x_max":0,"o":"m 326 339 b 332 83 326 225 326 132 b 376 21 336 49 340 26 b 432 15 394 18 421 15 b 442 6 439 15 442 10 b 422 -4 442 0 436 -4 b 269 0 354 -4 275 0 b 149 -4 263 0 186 -4 b 129 6 136 -4 129 -1 b 139 15 129 10 132 15 b 176 21 150 15 165 18 b 208 83 200 26 204 49 b 215 339 214 132 215 225 l 215 547 b 213 801 215 731 215 764 b 174 865 210 842 200 860 b 136 869 160 868 144 869 b 126 879 131 869 126 875 b 146 889 126 886 132 889 b 269 886 186 889 263 886 b 392 889 275 886 354 889 b 411 879 406 889 411 886 b 401 869 411 875 406 869 b 371 867 393 869 385 869 b 328 801 338 860 331 843 b 326 547 326 764 326 731 m 340 993 b 89 1075 315 993 111 1067 b 49 1099 60 1086 49 1092 b 64 1110 49 1106 54 1107 b 147 1136 93 1118 131 1129 b 169 1143 158 1140 164 1143 b 190 1121 176 1143 178 1133 b 326 1019 201 1110 269 1056 b 353 1000 340 1010 353 1006 b 340 993 353 996 347 993 "},"ñ":{"ha":1157,"x_min":0,"x_max":0,"o":"m 267 157 b 314 22 269 60 281 31 b 375 15 336 17 364 15 b 385 6 381 15 385 11 b 363 -4 385 -1 376 -4 b 233 0 293 -4 244 0 b 115 -4 222 0 171 -4 b 96 6 103 -4 96 -3 b 106 15 96 11 100 15 b 156 22 115 15 138 17 b 190 169 186 31 190 63 l 190 846 b 207 906 190 893 197 906 b 254 869 221 906 242 882 b 640 467 274 850 451 661 b 929 163 761 342 892 201 l 917 754 b 871 864 915 831 908 857 b 811 869 849 868 821 869 b 801 881 803 869 801 876 b 825 889 801 888 811 889 b 953 886 881 889 939 886 b 1057 889 967 886 1007 889 b 1079 881 1069 889 1079 888 b 1065 869 1079 876 1074 869 b 1036 867 1060 869 1050 869 b 993 764 996 858 993 835 l 990 72 b 981 -12 990 -6 989 -12 b 888 60 968 -12 956 -3 b 569 379 875 71 699 244 b 253 714 428 528 290 672 m 676 993 b 567 1029 631 993 586 1019 b 472 1061 542 1040 515 1061 b 388 1011 424 1061 397 1022 b 368 999 381 1003 374 999 b 360 1007 363 999 360 1003 b 369 1028 360 1014 364 1019 b 489 1126 389 1058 444 1126 b 606 1083 522 1126 563 1104 b 686 1060 625 1074 664 1060 b 771 1100 738 1060 767 1094 b 788 1115 776 1108 783 1115 b 797 1107 793 1115 797 1111 b 792 1089 797 1101 796 1097 b 676 993 781 1067 719 993 "},"ó":{"ha":1122,"x_min":0,"x_max":0,"o":"m 76 444 b 561 906 76 635 224 906 b 1044 463 836 906 1044 738 b 554 -19 1044 199 849 -19 b 76 444 219 -19 76 232 m 203 476 b 589 29 203 201 368 29 b 919 429 699 29 919 88 b 554 861 919 713 747 861 b 203 476 350 861 203 733 m 739 1136 b 774 1075 749 1122 758 1103 b 768 1058 781 1063 774 1058 b 726 1058 764 1058 750 1061 b 515 1000 658 1051 561 1019 b 494 993 506 996 497 993 b 488 1001 492 993 488 996 b 497 1013 488 1006 490 1008 b 686 1131 547 1047 676 1125 b 725 1149 710 1144 718 1149 b 739 1136 729 1149 732 1146 "},"ô":{"ha":1122,"x_min":0,"x_max":0,"o":"m 76 444 b 561 906 76 635 224 906 b 1044 463 836 906 1044 738 b 554 -19 1044 199 849 -19 b 76 444 219 -19 76 232 m 203 476 b 589 29 203 201 368 29 b 919 429 699 29 919 88 b 554 861 919 713 747 861 b 203 476 350 861 203 733 m 708 983 b 696 975 703 978 700 975 b 685 982 692 975 689 976 b 568 1078 657 1013 585 1068 b 554 1083 563 1081 558 1083 b 532 1076 549 1083 543 1082 b 414 989 500 1060 447 1017 b 389 975 403 979 393 975 b 379 986 383 975 379 981 b 388 1001 379 992 383 996 b 543 1146 401 1015 528 1132 b 565 1160 554 1156 561 1160 b 588 1146 571 1160 576 1154 b 728 1040 599 1138 710 1054 b 744 1026 740 1032 744 1029 b 738 1014 744 1022 740 1018 "},"ö":{"ha":1122,"x_min":0,"x_max":0,"o":"m 76 444 b 561 906 76 635 224 906 b 1044 463 836 906 1044 738 b 554 -19 1044 199 849 -19 b 76 444 219 -19 76 232 m 203 476 b 589 29 203 201 368 29 b 919 429 699 29 919 88 b 554 861 919 713 747 861 b 203 476 350 861 203 733 m 700 993 b 642 1053 658 993 642 1026 b 701 1113 642 1078 658 1113 b 761 1057 735 1113 761 1092 b 700 993 761 1021 738 993 m 421 993 b 363 1053 379 993 363 1026 b 422 1113 363 1078 379 1113 b 482 1057 456 1113 482 1092 b 421 993 482 1021 458 993 "},"ò":{"ha":1122,"x_min":0,"x_max":0,"o":"m 76 444 b 561 906 76 635 224 906 b 1044 463 836 906 1044 738 b 554 -19 1044 199 849 -19 b 76 444 219 -19 76 232 m 203 476 b 589 29 203 201 368 29 b 919 429 699 29 919 88 b 554 861 919 713 747 861 b 203 476 350 861 203 733 m 632 993 b 381 1075 607 993 403 1067 b 340 1099 351 1086 340 1092 b 356 1110 340 1106 346 1107 b 439 1136 385 1118 422 1129 b 461 1143 450 1140 456 1143 b 482 1121 468 1143 469 1133 b 618 1019 493 1110 561 1056 b 644 1000 632 1010 644 1006 b 632 993 644 996 639 993 "},"õ":{"ha":1122,"x_min":0,"x_max":0,"o":"m 76 444 b 561 906 76 635 224 906 b 1044 463 836 906 1044 738 b 554 -19 1044 199 849 -19 b 76 444 219 -19 76 232 m 203 476 b 589 29 203 201 368 29 b 919 429 699 29 919 88 b 554 861 919 713 747 861 b 203 476 350 861 203 733 m 672 993 b 563 1029 626 993 582 1019 b 468 1061 538 1040 511 1061 b 383 1011 419 1061 393 1022 b 364 999 376 1003 369 999 b 356 1007 358 999 356 1003 b 365 1028 356 1014 360 1019 b 485 1126 385 1058 440 1126 b 601 1083 518 1126 558 1104 b 682 1060 621 1074 660 1060 b 767 1100 733 1060 763 1094 b 783 1115 772 1108 779 1115 b 793 1107 789 1115 793 1111 b 788 1089 793 1101 792 1097 b 672 993 776 1067 715 993 "},"š":{"ha":728,"x_min":0,"x_max":0,"o":"m 290 -19 b 113 13 233 -19 163 -11 b 94 57 96 21 94 25 b 101 182 94 115 100 163 b 111 201 101 194 104 201 b 122 188 118 201 122 197 b 126 144 122 178 122 161 b 319 28 146 58 238 28 b 503 185 440 28 503 96 b 349 390 503 269 457 310 l 293 432 b 118 685 161 531 118 603 b 389 907 118 824 228 907 b 515 893 438 907 486 900 b 558 888 539 888 549 888 b 571 879 568 888 571 886 b 565 754 571 874 565 835 b 556 728 565 736 564 728 b 544 743 547 728 546 733 b 526 801 543 757 533 789 b 368 860 518 815 478 860 b 206 732 279 860 206 815 b 364 532 206 657 243 614 l 399 508 b 599 224 547 407 599 325 b 485 22 599 154 572 79 b 290 -19 433 -11 357 -19 m 231 1149 b 243 1157 236 1154 239 1157 b 254 1150 247 1157 250 1156 b 371 1054 282 1119 353 1063 b 385 1049 376 1051 381 1049 b 407 1056 390 1049 396 1050 b 525 1143 439 1072 492 1115 b 550 1157 536 1153 546 1157 b 560 1146 556 1157 560 1151 b 551 1131 560 1140 556 1136 b 396 986 538 1117 411 1000 b 372 972 385 976 378 972 b 351 986 368 972 363 976 b 211 1092 340 994 229 1078 b 194 1106 199 1100 194 1103 b 201 1118 194 1110 199 1114 "},"ú":{"ha":1017,"x_min":0,"x_max":0,"o":"m 153 547 b 150 801 153 731 153 764 b 100 867 147 839 140 861 b 58 869 90 868 69 869 b 49 879 54 869 49 875 b 68 889 49 886 54 889 b 208 886 124 889 197 886 b 332 889 219 886 296 889 b 353 879 346 889 353 886 b 342 869 353 875 347 869 b 311 867 333 869 326 869 b 269 801 279 861 272 840 b 267 547 267 764 267 731 l 267 382 b 357 93 267 211 304 140 b 539 29 417 39 469 29 b 728 113 614 29 686 63 b 797 399 785 181 797 278 l 797 547 b 794 801 797 731 796 764 b 746 867 793 839 786 861 b 704 869 736 868 715 869 b 694 879 699 869 694 875 b 714 889 694 886 700 889 b 846 886 768 889 839 886 b 949 889 854 886 913 889 b 968 879 963 889 968 886 b 958 869 968 875 964 869 b 928 867 950 869 943 869 b 885 801 894 860 888 840 b 883 547 882 764 883 731 l 883 421 b 769 67 883 293 867 150 b 514 -19 681 -10 586 -19 b 260 64 474 -19 346 -17 b 153 374 200 119 153 201 m 686 1136 b 721 1075 696 1122 706 1103 b 715 1058 728 1063 721 1058 b 674 1058 711 1058 697 1061 b 463 1000 606 1051 508 1019 b 442 993 453 996 444 993 b 435 1001 439 993 435 996 b 444 1013 435 1006 438 1008 b 633 1131 494 1047 624 1125 b 672 1149 657 1144 665 1149 b 686 1136 676 1149 679 1146 "},"û":{"ha":1017,"x_min":0,"x_max":0,"o":"m 153 547 b 150 801 153 731 153 764 b 100 867 147 839 140 861 b 58 869 90 868 69 869 b 49 879 54 869 49 875 b 68 889 49 886 54 889 b 208 886 124 889 197 886 b 332 889 219 886 296 889 b 353 879 346 889 353 886 b 342 869 353 875 347 869 b 311 867 333 869 326 869 b 269 801 279 861 272 840 b 267 547 267 764 267 731 l 267 382 b 357 93 267 211 304 140 b 539 29 417 39 469 29 b 728 113 614 29 686 63 b 797 399 785 181 797 278 l 797 547 b 794 801 797 731 796 764 b 746 867 793 839 786 861 b 704 869 736 868 715 869 b 694 879 699 869 694 875 b 714 889 694 886 700 889 b 846 886 768 889 839 886 b 949 889 854 886 913 889 b 968 879 963 889 968 886 b 958 869 968 875 964 869 b 928 867 950 869 943 869 b 885 801 894 860 888 840 b 883 547 882 764 883 731 l 883 421 b 769 67 883 293 867 150 b 514 -19 681 -10 586 -19 b 260 64 474 -19 346 -17 b 153 374 200 119 153 201 m 656 983 b 643 975 650 978 647 975 b 632 982 639 975 636 976 b 515 1078 604 1013 532 1068 b 501 1083 510 1081 506 1083 b 479 1076 496 1083 490 1082 b 361 989 447 1060 394 1017 b 336 975 350 979 340 975 b 326 986 331 975 326 981 b 335 1001 326 992 331 996 b 490 1146 349 1015 475 1132 b 513 1160 501 1156 508 1160 b 535 1146 518 1160 524 1154 b 675 1040 546 1138 657 1054 b 692 1026 688 1032 692 1029 b 685 1014 692 1022 688 1018 "},"ü":{"ha":1017,"x_min":0,"x_max":0,"o":"m 153 547 b 150 801 153 731 153 764 b 100 867 147 839 140 861 b 58 869 90 868 69 869 b 49 879 54 869 49 875 b 68 889 49 886 54 889 b 208 886 124 889 197 886 b 332 889 219 886 296 889 b 353 879 346 889 353 886 b 342 869 353 875 347 869 b 311 867 333 869 326 869 b 269 801 279 861 272 840 b 267 547 267 764 267 731 l 267 382 b 357 93 267 211 304 140 b 539 29 417 39 469 29 b 728 113 614 29 686 63 b 797 399 785 181 797 278 l 797 547 b 794 801 797 731 796 764 b 746 867 793 839 786 861 b 704 869 736 868 715 869 b 694 879 699 869 694 875 b 714 889 694 886 700 889 b 846 886 768 889 839 886 b 949 889 854 886 913 889 b 968 879 963 889 968 886 b 958 869 968 875 964 869 b 928 867 950 869 943 869 b 885 801 894 860 888 840 b 883 547 882 764 883 731 l 883 421 b 769 67 883 293 867 150 b 514 -19 681 -10 586 -19 b 260 64 474 -19 346 -17 b 153 374 200 119 153 201 m 674 993 b 615 1053 632 993 615 1026 b 675 1113 615 1078 632 1113 b 735 1057 708 1113 735 1092 b 674 993 735 1021 711 993 m 394 993 b 336 1053 353 993 336 1026 b 396 1113 336 1078 353 1113 b 456 1057 429 1113 456 1092 b 394 993 456 1021 432 993 "},"ù":{"ha":1017,"x_min":0,"x_max":0,"o":"m 153 547 b 150 801 153 731 153 764 b 100 867 147 839 140 861 b 58 869 90 868 69 869 b 49 879 54 869 49 875 b 68 889 49 886 54 889 b 208 886 124 889 197 886 b 332 889 219 886 296 889 b 353 879 346 889 353 886 b 342 869 353 875 347 869 b 311 867 333 869 326 869 b 269 801 279 861 272 840 b 267 547 267 764 267 731 l 267 382 b 357 93 267 211 304 140 b 539 29 417 39 469 29 b 728 113 614 29 686 63 b 797 399 785 181 797 278 l 797 547 b 794 801 797 731 796 764 b 746 867 793 839 786 861 b 704 869 736 868 715 869 b 694 879 699 869 694 875 b 714 889 694 886 700 889 b 846 886 768 889 839 886 b 949 889 854 886 913 889 b 968 879 963 889 968 886 b 958 869 968 875 964 869 b 928 867 950 869 943 869 b 885 801 894 860 888 840 b 883 547 882 764 883 731 l 883 421 b 769 67 883 293 867 150 b 514 -19 681 -10 586 -19 b 260 64 474 -19 346 -17 b 153 374 200 119 153 201 m 606 993 b 354 1075 581 993 376 1067 b 314 1099 325 1086 314 1092 b 329 1110 314 1106 319 1107 b 413 1136 358 1118 396 1129 b 435 1143 424 1140 429 1143 b 456 1121 442 1143 443 1133 b 592 1019 467 1110 535 1056 b 618 1000 606 1010 618 1006 b 606 993 618 996 613 993 "},"ý":{"ha":800,"x_min":0,"x_max":0,"o":"m 354 303 b 328 424 354 367 346 390 b 111 767 318 442 153 704 b 31 853 82 811 53 838 b -21 869 13 864 -11 869 b -33 881 -28 869 -33 875 b -18 889 -33 886 -29 889 b 103 886 6 889 97 886 b 208 889 111 886 161 889 b 225 881 222 889 225 886 b 206 868 225 876 217 872 b 190 849 196 864 190 858 b 207 803 190 832 199 818 l 429 435 b 629 776 454 485 607 738 b 650 838 644 803 650 822 b 631 868 650 854 644 864 b 613 882 619 871 613 876 b 632 889 613 886 619 889 b 717 886 664 889 707 886 b 836 889 725 886 813 889 b 851 882 844 889 851 886 b 836 869 851 876 846 869 b 779 854 822 869 799 865 b 718 796 756 840 744 828 b 481 421 678 749 506 471 b 465 303 460 379 465 342 l 465 201 b 469 83 465 182 465 132 b 517 21 472 49 481 26 b 572 15 533 18 561 15 b 582 6 579 15 582 10 b 563 -4 582 0 575 -4 b 408 0 494 -4 415 0 b 289 -4 403 0 325 -4 b 269 6 275 -4 269 -1 b 279 15 269 10 272 15 b 315 21 290 15 304 18 b 351 83 340 26 349 49 b 354 201 354 132 354 182 m 578 1136 b 613 1075 588 1122 597 1103 b 607 1058 619 1063 613 1058 b 565 1058 603 1058 589 1061 b 354 1000 497 1051 400 1019 b 333 993 344 996 336 993 b 326 1001 331 993 326 996 b 336 1013 326 1006 329 1008 b 525 1131 386 1047 515 1125 b 564 1149 549 1144 557 1149 b 578 1136 568 1149 571 1146 "},"ÿ":{"ha":800,"x_min":0,"x_max":0,"o":"m 354 303 b 328 424 354 367 346 390 b 111 767 318 442 153 704 b 31 853 82 811 53 838 b -21 869 13 864 -11 869 b -33 881 -28 869 -33 875 b -18 889 -33 886 -29 889 b 103 886 6 889 97 886 b 208 889 111 886 161 889 b 225 881 222 889 225 886 b 206 868 225 876 217 872 b 190 849 196 864 190 858 b 207 803 190 832 199 818 l 429 435 b 629 776 454 485 607 738 b 650 838 644 803 650 822 b 631 868 650 854 644 864 b 613 882 619 871 613 876 b 632 889 613 886 619 889 b 717 886 664 889 707 886 b 836 889 725 886 813 889 b 851 882 844 889 851 886 b 836 869 851 876 846 869 b 779 854 822 869 799 865 b 718 796 756 840 744 828 b 481 421 678 749 506 471 b 465 303 460 379 465 342 l 465 201 b 469 83 465 182 465 132 b 517 21 472 49 481 26 b 572 15 533 18 561 15 b 582 6 579 15 582 10 b 563 -4 582 0 575 -4 b 408 0 494 -4 415 0 b 289 -4 403 0 325 -4 b 269 6 275 -4 269 -1 b 279 15 269 10 272 15 b 315 21 290 15 304 18 b 351 83 340 26 349 49 b 354 201 354 132 354 182 m 551 993 b 493 1053 510 993 493 1026 b 553 1113 493 1078 510 1113 b 613 1057 586 1113 613 1092 b 551 993 613 1021 589 993 m 272 993 b 214 1053 231 993 214 1026 b 274 1113 214 1078 231 1113 b 333 1057 307 1113 333 1092 b 272 993 333 1021 310 993 "},"ž":{"ha":846,"x_min":0,"x_max":0,"o":"m 564 51 b 754 106 693 51 726 72 b 779 169 767 121 775 153 b 793 188 782 181 786 188 b 803 161 800 188 803 183 b 778 25 803 124 786 54 b 742 -6 771 -4 769 -6 b 117 0 538 -6 331 0 b 94 10 103 0 94 1 b 111 46 94 15 96 24 b 643 836 294 311 475 574 l 385 836 b 211 817 322 836 250 838 b 142 724 168 794 146 751 b 125 703 139 706 132 703 b 118 718 119 703 118 708 b 143 875 118 732 136 839 b 154 897 144 892 147 897 b 206 889 165 897 174 890 b 419 886 322 885 381 886 l 761 886 b 786 876 779 886 786 883 b 779 856 786 871 785 863 b 239 51 601 583 424 319 m 304 1149 b 317 1157 310 1154 313 1157 b 328 1150 321 1157 324 1156 b 444 1054 356 1119 426 1063 b 458 1049 450 1051 454 1049 b 481 1056 464 1049 469 1050 b 599 1143 513 1072 565 1115 b 624 1157 610 1153 619 1157 b 633 1146 629 1157 633 1151 b 625 1131 633 1140 629 1136 b 469 986 611 1117 485 1000 b 446 972 458 976 451 972 b 425 986 442 972 436 976 b 285 1092 414 994 303 1078 b 268 1106 272 1100 268 1103 b 275 1118 268 1110 272 1114 "},"":{"ha":444,"x_min":0,"x_max":0,"o":"m 176 656 b 156 918 175 676 167 875 b 150 944 153 929 150 938 b 157 964 150 951 153 957 b 260 1058 176 997 221 1039 b 281 1065 271 1064 275 1065 b 289 1051 286 1065 289 1063 b 268 868 289 1042 275 971 b 236 258 267 843 239 292 b 219 214 235 239 233 214 b 199 286 206 214 201 232 m 222 -24 b 153 47 174 -24 153 15 b 224 118 153 76 174 118 b 294 51 264 118 294 92 b 222 -24 294 10 265 -24 "},"":{"ha":990,"x_min":0,"x_max":0,"o":"m 375 -19 b 64 240 151 -19 64 138 b 260 525 64 378 160 471 b 197 689 213 586 197 636 b 471 906 197 782 300 906 b 626 876 536 906 592 894 b 643 846 642 868 643 860 b 633 711 643 810 638 729 b 621 690 629 693 626 690 b 614 713 614 690 614 694 b 571 811 614 743 603 781 b 446 861 543 839 501 861 b 289 711 369 861 289 822 b 486 408 289 619 353 542 b 726 197 529 365 686 229 b 792 393 763 242 792 321 b 768 451 792 411 788 433 b 706 469 751 467 725 469 b 690 478 697 469 690 472 b 711 486 690 483 701 486 b 864 478 742 486 792 486 b 886 454 883 476 886 467 b 760 176 886 358 815 240 b 936 60 844 110 900 79 b 1089 13 976 38 1043 13 b 1107 4 1100 13 1107 11 b 1085 -4 1107 0 1096 -4 l 960 -4 b 694 107 865 -4 835 4 b 375 -19 665 79 564 -19 m 419 46 b 661 131 539 46 618 89 b 429 329 589 185 463 296 b 279 494 396 363 315 446 b 169 296 213 454 169 390 b 419 46 169 149 276 46 "},"":{"ha":858,"x_min":0,"x_max":0,"o":"m 85 418 b 439 911 85 701 211 911 b 775 472 694 911 775 653 b 418 -24 775 189 643 -24 b 85 418 167 -24 85 238 m 196 467 b 444 19 196 260 268 19 b 664 422 575 19 664 176 b 413 868 664 626 586 868 b 196 467 282 868 196 714 "},"":{"ha":653,"x_min":0,"x_max":0,"o":"m 407 335 b 414 103 407 196 407 164 b 469 25 419 60 425 35 b 561 17 490 21 549 17 b 572 6 567 17 572 11 b 549 -4 572 -1 565 -4 b 349 0 444 -4 356 0 b 136 -4 342 0 225 -4 b 114 6 121 -4 114 -1 b 125 17 114 11 119 17 b 236 26 142 17 210 21 b 294 103 282 35 292 60 b 299 335 299 164 299 196 l 299 506 b 297 717 299 581 297 640 b 272 760 297 744 294 760 b 114 693 246 760 149 710 b 97 688 107 689 103 688 b 89 700 93 688 89 694 b 99 714 89 704 93 710 l 367 893 b 400 910 379 901 390 910 b 414 881 411 910 414 894 b 407 519 414 869 407 732 "},"":{"ha":771,"x_min":0,"x_max":0,"o":"m 53 0 b 33 18 43 0 33 8 b 58 49 33 28 47 40 b 546 656 276 213 546 397 b 322 861 546 839 415 861 b 176 814 256 861 217 850 b 125 693 143 785 125 743 b 113 674 125 682 119 674 b 101 690 107 674 103 679 b 93 847 100 701 93 807 b 107 865 93 854 94 858 b 351 911 158 886 239 911 b 667 679 561 911 667 815 b 183 90 667 392 378 218 b 186 83 176 85 179 83 l 286 83 b 524 90 310 83 474 86 b 686 211 625 100 669 143 b 703 231 690 225 694 231 b 711 211 710 231 711 218 b 669 39 711 188 683 83 b 579 0 658 6 638 0 "},"":{"ha":751,"x_min":0,"x_max":0,"o":"m 543 238 b 307 472 543 397 392 457 b 274 488 282 476 274 479 b 303 501 274 496 286 499 b 504 708 367 513 504 569 b 322 861 504 758 475 861 b 161 728 228 861 161 819 b 151 714 161 715 156 714 b 142 728 147 714 143 717 b 133 846 136 765 133 818 b 150 871 133 857 135 861 b 358 911 189 889 263 911 b 618 733 569 911 618 793 b 442 519 618 614 481 536 l 442 513 b 660 283 524 494 660 421 b 269 -24 660 118 499 -24 b 111 6 217 -24 139 -8 b 90 39 93 17 90 25 b 99 188 90 94 94 161 b 110 206 100 200 103 206 b 119 189 117 206 118 201 b 313 36 129 97 176 36 b 543 238 443 36 543 96 "},"":{"ha":799,"x_min":0,"x_max":0,"o":"m 571 342 l 665 342 b 717 354 699 342 711 354 b 724 340 724 354 724 347 b 713 285 724 333 718 300 b 686 268 706 272 701 268 l 571 268 b 572 97 571 225 567 154 b 626 21 576 58 586 31 b 682 17 644 17 669 17 b 693 6 689 17 693 11 b 674 -4 693 -1 688 -4 b 515 0 604 -4 524 0 b 369 -4 507 0 439 -4 b 350 6 356 -4 350 -1 b 360 17 350 11 353 17 b 418 19 371 17 399 17 b 472 97 460 26 468 58 b 475 268 478 154 475 225 l 82 268 b 56 283 67 268 56 272 b 68 310 56 293 63 303 b 533 889 75 318 493 832 b 560 911 543 903 551 911 b 572 890 568 911 572 903 b 571 699 572 871 571 769 m 475 742 l 472 742 b 150 342 453 710 174 374 l 475 342 "},"":{"ha":750,"x_min":0,"x_max":0,"o":"m 231 624 b 643 296 399 599 643 531 b 247 -24 643 125 514 -24 b 125 0 208 -24 158 -18 b 100 38 103 13 100 25 b 106 203 100 82 99 161 b 118 226 108 217 113 226 b 128 204 126 226 128 219 b 308 35 128 63 213 35 b 540 246 419 35 540 64 b 206 532 540 458 307 526 b 171 556 179 533 169 542 l 199 869 b 224 888 200 883 210 888 l 535 888 b 611 892 572 888 596 889 b 639 896 626 893 635 896 b 647 883 644 896 647 894 b 631 717 647 871 643 813 b 619 703 629 710 625 703 b 613 719 614 703 613 710 b 496 804 613 769 600 804 l 247 804 "},"":{"ha":775,"x_min":0,"x_max":0,"o":"m 578 213 b 389 465 578 390 465 465 b 294 447 357 465 324 461 b 278 442 290 446 282 442 b 274 451 274 442 274 444 b 285 468 274 458 278 463 b 431 513 310 486 360 513 b 682 271 604 513 682 385 b 592 61 682 171 647 117 b 375 -24 533 3 468 -24 b 81 310 200 -24 81 78 b 507 903 81 558 264 794 b 533 911 518 908 528 911 b 543 900 539 911 543 907 b 519 876 543 890 532 883 b 189 310 358 786 189 613 b 399 24 189 160 254 24 b 578 213 499 24 578 72 "},"":{"ha":764,"x_min":0,"x_max":0,"o":"m 660 886 b 683 874 676 886 683 881 b 675 851 683 869 682 861 b 331 89 568 710 350 242 b 331 47 328 69 331 60 b 201 -24 331 24 228 -24 b 190 -12 193 -24 190 -21 b 197 28 190 0 193 17 b 592 811 249 182 393 501 l 267 811 b 144 782 228 811 176 806 b 93 690 117 761 97 724 b 82 674 92 679 89 674 b 74 693 75 674 74 681 b 93 881 74 731 93 869 b 107 897 93 893 99 897 b 232 886 115 897 146 886 "},"":{"ha":810,"x_min":0,"x_max":0,"o":"m 103 207 b 333 472 103 340 215 429 b 153 697 232 528 153 593 b 428 911 153 788 239 911 b 665 728 563 911 665 844 b 479 497 665 603 551 529 b 704 236 564 456 704 382 b 397 -24 704 97 582 -24 b 103 207 236 -24 103 64 m 407 21 b 606 210 526 21 606 106 b 378 453 606 339 494 397 b 203 218 282 410 203 338 b 407 21 203 114 286 21 m 413 871 b 244 719 296 871 244 786 b 436 515 244 619 331 568 b 574 714 486 543 574 592 b 413 871 574 804 513 871 "},"":{"ha":819,"x_min":0,"x_max":0,"o":"m 211 671 b 403 417 211 492 325 417 b 497 433 436 417 468 419 b 514 438 501 435 510 438 b 519 428 518 438 519 435 b 508 413 519 421 515 418 b 361 368 483 394 432 368 b 107 613 185 368 107 499 b 197 825 107 714 142 769 b 417 911 257 883 324 911 b 714 572 594 911 714 807 b 283 -25 714 322 529 83 b 257 -35 272 -31 263 -35 b 246 -21 251 -35 246 -28 b 271 1 246 -11 258 -6 b 604 572 433 93 604 267 b 393 863 604 724 539 863 b 211 671 292 863 211 813 "},"":{"ha":678,"x_min":0,"x_max":0,"o":"m 310 1018 b 174 964 242 1018 196 992 b 125 835 140 924 129 882 b 114 811 124 821 121 811 b 103 825 107 811 104 815 b 97 988 99 844 97 933 b 113 1010 97 996 99 1001 b 343 1065 154 1035 236 1065 b 594 849 526 1065 594 949 b 356 450 594 686 489 615 b 299 339 304 385 299 363 b 325 268 299 318 306 294 b 338 244 335 256 338 249 b 322 232 338 239 328 232 b 264 281 310 232 281 260 b 224 363 236 315 224 338 b 254 432 224 382 233 406 b 350 547 286 474 319 508 b 472 839 447 671 472 747 b 310 1018 472 907 436 1018 m 311 -24 b 242 47 263 -24 242 15 b 313 118 242 76 263 118 b 383 51 353 118 383 92 b 311 -24 383 10 354 -24 "},"":{"ha":867,"x_min":0,"x_max":0,"o":"m 401 865 b 431 911 417 904 422 911 b 460 868 443 911 447 894 b 753 151 482 818 678 331 b 857 22 797 46 831 31 b 906 15 875 17 893 15 b 921 6 913 15 921 13 b 893 -4 921 -1 907 -4 b 700 -1 875 -4 785 -4 b 657 7 676 0 657 0 b 665 15 657 13 660 13 b 676 47 672 18 685 28 l 567 318 b 556 325 564 324 563 325 l 274 325 b 261 315 268 325 264 322 l 192 126 b 174 47 181 97 174 68 b 215 15 174 24 194 15 l 226 15 b 239 6 236 15 239 11 b 221 -4 239 -1 232 -4 b 111 0 192 -4 125 0 b -12 -4 99 0 38 -4 b -36 6 -28 -4 -36 -1 b -25 15 -36 11 -31 15 b 11 18 -17 15 1 17 b 114 126 67 25 90 67 m 538 374 b 542 382 543 374 543 376 l 421 706 b 400 706 414 724 407 724 l 286 382 b 290 374 285 376 286 374 "},"":{"ha":853,"x_min":0,"x_max":0,"o":"m 215 547 b 213 801 215 731 215 764 b 163 869 210 842 203 864 b 121 872 153 871 132 872 b 111 879 117 872 111 875 b 131 889 111 886 117 889 b 272 886 186 889 265 886 b 415 889 301 886 358 889 b 672 708 619 889 672 771 b 549 501 672 615 611 557 b 764 256 642 474 764 389 b 457 -7 764 124 665 -7 b 351 -3 435 -7 390 -6 b 272 0 313 -1 278 0 b 149 -4 265 0 186 -4 b 129 6 136 -4 129 -1 b 139 13 129 10 132 13 b 176 18 150 13 165 17 b 208 83 200 22 203 49 b 215 339 215 132 215 225 m 321 522 b 329 510 321 514 324 511 b 404 504 336 508 358 504 b 524 535 472 504 499 507 b 571 661 550 564 571 604 b 399 851 571 751 521 851 b 336 846 385 851 356 850 b 321 833 325 843 321 840 m 321 392 b 322 140 321 300 321 158 b 364 51 326 83 326 69 b 471 35 397 36 449 35 b 650 217 551 35 650 65 b 533 432 650 269 629 371 b 424 463 492 458 453 457 b 328 465 408 465 347 465 b 321 457 324 465 321 463 "},"":{"ha":983,"x_min":0,"x_max":0,"o":"m 628 -19 b 225 107 444 -19 321 24 b 76 457 106 210 76 344 b 214 779 76 536 106 674 b 586 906 288 850 399 906 b 764 892 635 906 704 901 b 889 874 810 883 849 875 b 904 861 901 874 904 868 b 899 794 904 851 901 838 b 896 674 897 756 897 690 b 882 649 894 656 889 649 b 872 674 874 649 872 657 b 821 792 872 719 853 767 b 581 857 778 828 689 857 b 306 775 424 857 349 815 b 196 467 215 692 196 586 b 636 39 196 240 375 39 b 838 94 728 39 789 46 b 885 193 864 121 881 171 b 897 210 888 206 889 210 b 908 193 903 210 908 201 b 879 42 908 185 892 82 b 849 7 872 19 869 15 b 628 -19 799 -12 707 -19 "},"":{"ha":1124,"x_min":0,"x_max":0,"o":"m 215 547 b 213 801 215 731 215 764 b 163 867 210 842 203 861 b 121 869 153 868 132 869 b 111 879 117 869 111 875 b 131 889 111 886 117 889 b 272 886 186 889 265 886 b 436 889 286 886 364 889 b 926 754 558 889 782 900 b 1046 454 988 693 1046 594 b 914 122 1046 306 982 192 b 543 -14 861 68 751 -14 b 372 -7 490 -14 425 -10 b 272 0 319 -3 278 0 b 222 -1 269 0 247 -1 b 149 -4 197 -3 168 -4 b 129 6 136 -4 129 -1 b 139 15 129 10 132 15 b 176 21 150 15 165 18 b 208 83 200 26 203 49 b 215 339 215 132 215 225 m 326 419 b 328 163 326 294 326 185 b 342 78 329 133 332 90 b 544 31 357 56 400 31 b 831 138 657 31 757 68 b 926 418 894 197 926 310 b 811 714 926 568 861 664 b 415 846 696 831 561 846 b 342 838 392 846 353 842 b 326 814 331 833 326 828 "},"":{"ha":765,"x_min":0,"x_max":0,"o":"m 215 547 b 213 801 215 731 215 764 b 163 867 210 842 203 861 b 121 869 153 868 132 869 b 111 879 117 869 111 875 b 131 889 111 886 117 889 b 272 886 186 889 265 886 b 564 886 281 886 536 885 b 619 893 588 888 610 892 b 636 899 625 894 631 899 b 642 888 640 899 642 893 b 632 832 642 879 635 865 b 625 754 631 821 628 768 b 614 742 624 749 619 742 b 604 757 607 742 604 747 b 597 799 604 765 603 785 b 510 835 589 818 576 826 b 333 839 489 838 347 839 b 326 826 328 839 326 835 l 326 506 b 333 493 326 497 326 493 b 538 496 349 493 510 493 b 597 513 567 499 585 500 b 615 528 606 521 611 528 b 622 518 619 528 622 525 b 613 453 622 511 615 492 b 607 376 610 429 607 385 b 596 354 607 367 604 354 b 588 365 590 354 588 358 b 582 404 588 376 588 389 b 519 440 578 421 567 435 b 335 446 486 444 356 446 b 326 438 328 446 326 442 l 326 339 b 326 138 326 299 325 161 b 472 43 329 58 351 43 b 594 56 504 43 563 43 b 650 138 626 69 643 90 b 663 156 653 151 656 156 b 671 138 669 156 671 146 b 654 24 671 129 661 49 b 586 -7 646 -7 633 -7 b 374 -3 494 -7 424 -4 b 272 0 322 0 290 0 b 219 -1 269 0 246 0 b 149 -4 196 -3 168 -4 b 129 6 136 -4 129 -1 b 139 15 129 10 132 15 b 176 21 150 15 165 19 b 208 83 200 25 203 49 b 215 339 215 132 215 225 "},"":{"ha":743,"x_min":0,"x_max":0,"o":"m 215 547 b 213 801 215 731 215 764 b 163 867 210 842 203 861 b 121 869 153 868 132 869 b 111 879 117 869 111 875 b 131 889 111 886 117 889 b 269 886 186 889 263 886 b 586 886 293 886 558 885 b 642 892 610 888 631 888 b 658 899 649 893 654 899 b 667 888 664 899 667 893 b 657 832 667 879 661 865 b 651 754 656 821 654 768 b 640 742 650 749 646 742 b 631 756 635 742 631 747 b 619 800 631 765 626 785 b 536 835 613 815 583 835 l 336 838 b 326 825 329 838 326 835 l 326 503 b 335 492 326 496 326 492 l 501 493 b 557 494 522 493 540 493 b 614 515 586 497 603 501 b 629 528 619 522 625 528 b 636 518 635 528 636 524 b 625 453 636 511 628 492 b 621 374 622 429 621 382 b 610 350 621 363 618 350 b 601 361 603 350 601 356 b 593 404 600 374 599 390 b 531 442 588 421 568 436 b 335 444 500 446 356 444 b 326 433 328 444 326 442 l 326 339 b 332 83 326 222 326 129 b 376 21 336 49 343 26 b 432 15 394 18 421 15 b 442 6 439 15 442 10 b 422 -4 442 0 436 -4 b 269 0 354 -4 275 0 b 149 -4 263 0 186 -4 b 129 6 136 -4 129 -1 b 139 15 129 10 132 15 b 176 21 150 15 165 19 b 208 83 200 25 203 49 b 215 339 215 132 215 225 "},"":{"ha":1054,"x_min":0,"x_max":0,"o":"m 790 297 b 738 417 790 393 788 407 b 696 419 728 418 707 419 b 686 429 692 419 686 425 b 706 439 686 438 692 439 b 850 436 761 439 843 436 b 969 439 856 436 932 439 b 989 429 983 439 989 438 b 979 419 989 425 983 419 b 949 417 971 419 963 419 b 903 351 915 411 906 393 b 901 229 901 314 901 279 l 901 97 b 885 33 901 43 900 42 b 625 -19 807 -7 696 -19 b 222 107 532 -19 358 -8 b 76 443 147 169 76 296 b 281 831 76 632 172 765 b 606 906 390 897 513 906 b 793 886 683 906 769 892 b 892 874 818 881 861 874 b 907 863 904 874 907 868 b 900 696 907 846 900 814 b 886 671 900 676 894 671 b 878 689 879 671 878 678 b 850 767 876 704 869 739 b 568 858 819 811 726 858 b 313 782 494 858 406 853 b 192 485 242 728 192 622 b 321 158 192 318 278 199 b 633 35 418 68 521 35 b 765 57 676 35 733 39 b 790 93 781 65 790 71 "},"":{"ha":1176,"x_min":0,"x_max":0,"o":"m 961 339 b 968 83 961 225 963 132 b 1013 21 972 49 975 26 b 1067 15 1029 18 1057 15 b 1078 6 1075 15 1078 10 b 1057 -4 1078 0 1071 -4 b 906 0 990 -4 913 0 b 785 -4 900 0 821 -4 b 765 6 771 -4 765 -1 b 775 15 765 10 768 15 b 811 21 786 15 800 18 b 844 85 836 26 840 50 b 850 336 850 133 850 222 l 850 454 b 843 461 850 460 847 461 l 333 461 b 326 454 329 461 326 460 l 326 336 b 332 83 326 222 326 132 b 376 21 336 49 340 26 b 432 15 394 18 421 15 b 442 6 439 15 442 10 b 422 -4 442 0 436 -4 b 271 0 354 -4 276 0 b 149 -4 264 0 186 -4 b 129 6 136 -4 129 -1 b 139 15 129 10 132 15 b 176 21 150 15 165 18 b 208 83 200 26 203 49 b 215 339 215 132 215 225 l 215 547 b 213 801 215 731 215 764 b 163 867 210 842 203 861 b 121 869 153 868 132 869 b 111 879 117 869 111 875 b 131 889 111 886 117 889 b 271 886 186 889 264 886 b 392 889 276 886 354 889 b 411 879 406 889 411 886 b 401 869 411 875 406 869 b 371 867 393 869 385 869 b 328 801 338 860 331 843 b 326 544 326 764 326 728 l 326 519 b 333 513 326 513 329 513 l 843 513 b 850 519 847 513 850 513 l 850 544 b 847 801 850 728 849 764 b 799 867 844 842 839 861 b 757 869 789 868 768 869 b 747 879 751 869 747 875 b 767 889 747 886 753 889 b 906 886 821 889 900 886 b 1026 889 913 886 990 889 b 1047 879 1040 889 1047 886 b 1036 869 1047 875 1042 869 b 1006 867 1028 869 1021 869 b 964 801 974 860 967 843 b 961 547 961 764 961 731 "},"":{"ha":540,"x_min":0,"x_max":0,"o":"m 326 339 b 332 83 326 225 326 132 b 376 21 336 49 340 26 b 432 15 394 18 421 15 b 442 6 439 15 442 10 b 422 -4 442 0 436 -4 b 269 0 354 -4 275 0 b 149 -4 263 0 186 -4 b 129 6 136 -4 129 -1 b 139 15 129 10 132 15 b 176 21 150 15 165 18 b 208 83 200 26 204 49 b 215 339 214 132 215 225 l 215 547 b 213 801 215 731 215 764 b 174 865 210 842 200 860 b 136 869 160 868 144 869 b 126 879 131 869 126 875 b 146 889 126 886 132 889 b 269 886 186 889 263 886 b 392 889 275 886 354 889 b 411 879 406 889 411 886 b 401 869 411 875 406 869 b 371 867 393 869 385 869 b 328 801 338 860 331 843 b 326 547 326 764 326 731 "},"":{"ha":513,"x_min":0,"x_max":0,"o":"m 326 264 b 286 -85 326 72 322 -1 b 107 -265 260 -144 206 -200 b 57 -296 90 -276 69 -289 b 49 -297 56 -296 53 -297 b 40 -290 46 -297 40 -296 b 56 -271 40 -283 44 -278 b 99 -239 71 -262 88 -249 b 215 206 178 -160 215 -99 l 215 547 b 213 801 215 731 215 764 b 163 867 210 842 203 861 b 121 869 153 868 132 869 b 111 879 117 869 111 875 b 131 889 111 886 117 889 b 272 886 186 889 265 886 b 392 889 278 886 354 889 b 411 879 406 889 411 886 b 401 869 411 875 406 869 b 371 867 393 869 385 869 b 328 801 338 860 331 843 b 326 547 326 764 326 731 "},"":{"ha":925,"x_min":0,"x_max":0,"o":"m 215 547 b 213 801 215 731 215 764 b 163 867 210 842 203 861 b 121 869 153 868 132 869 b 111 879 117 869 111 875 b 131 889 111 886 117 889 b 268 886 186 889 261 886 b 389 889 279 886 353 889 b 408 879 403 889 408 886 b 399 869 408 875 404 869 b 368 867 390 869 383 869 b 325 801 336 860 328 843 b 322 547 322 764 322 731 l 322 476 l 328 476 b 611 761 347 499 565 714 b 678 846 646 796 678 826 b 663 869 678 861 672 868 b 651 881 656 871 651 876 b 665 889 651 886 657 889 b 757 886 690 889 728 886 b 875 889 764 886 844 889 b 893 881 888 889 893 886 b 881 871 893 875 890 871 b 813 854 863 871 836 864 b 685 754 763 832 739 806 b 419 497 654 726 446 526 b 756 163 451 463 706 208 b 931 32 858 71 872 56 b 1006 15 963 19 997 15 b 1021 6 1014 15 1021 11 b 994 -4 1021 0 1015 -4 l 932 -4 b 847 -1 897 -4 875 -4 b 699 71 783 4 751 31 b 328 454 643 114 386 385 l 322 454 l 322 339 b 328 83 322 225 322 132 b 375 21 332 49 338 26 b 422 15 392 18 411 15 b 432 6 429 15 432 10 b 413 -4 432 0 426 -4 b 269 0 353 -4 279 0 b 149 -4 260 0 186 -4 b 129 6 136 -4 129 -1 b 139 15 129 10 132 15 b 176 21 150 15 165 18 b 208 83 200 26 203 49 b 215 339 215 132 215 225 "},"":{"ha":743,"x_min":0,"x_max":0,"o":"m 326 336 b 351 71 326 163 329 92 b 514 43 371 51 418 43 b 661 79 578 43 632 44 b 690 146 676 97 686 122 b 703 161 692 154 696 161 b 711 143 708 161 711 156 b 693 25 711 131 703 60 b 615 -7 685 -3 681 -7 b 403 -3 528 -7 460 -6 b 269 0 347 -1 306 0 b 219 -1 264 0 243 0 b 149 -4 194 -3 168 -4 b 129 6 136 -4 129 -1 b 139 15 129 10 132 15 b 176 21 150 15 165 18 b 208 83 200 26 203 49 b 215 339 215 132 215 225 l 215 547 b 213 801 215 731 215 764 b 163 867 210 842 203 861 b 121 869 153 868 132 869 b 111 879 117 869 111 875 b 131 889 111 886 117 889 b 269 886 186 889 263 886 b 404 889 275 886 367 889 b 424 879 417 889 424 886 b 414 871 424 875 418 871 b 374 868 406 871 388 869 b 328 801 338 861 331 843 b 326 547 326 764 326 731 "},"":{"ha":1283,"x_min":0,"x_max":0,"o":"m 1131 149 b 1193 26 1135 107 1143 43 b 1272 15 1228 15 1260 15 b 1282 7 1278 15 1282 13 b 1257 -4 1282 0 1271 -4 b 1049 3 1229 -4 1093 -1 b 1014 15 1019 6 1014 10 b 1022 25 1014 19 1017 24 b 1028 67 1029 26 1031 44 l 969 664 l 967 664 l 672 61 b 629 -1 647 10 640 -1 b 588 53 618 -1 611 10 b 444 326 556 111 475 263 b 289 649 408 401 310 600 l 283 649 l 236 115 b 235 56 235 97 235 75 b 264 22 235 38 246 26 b 311 15 285 17 303 15 b 321 7 315 15 321 11 b 299 -4 321 -1 313 -4 b 185 0 253 -4 194 0 b 82 -4 174 0 115 -4 b 61 7 69 -4 61 -1 b 74 15 61 11 67 15 b 110 19 83 15 92 17 b 157 114 150 26 151 69 l 246 885 b 260 906 247 897 253 906 b 285 888 268 906 278 901 l 654 154 l 1010 886 b 1029 906 1015 897 1021 906 b 1047 874 1038 906 1044 896 "},"":{"ha":1157,"x_min":0,"x_max":0,"o":"m 267 157 b 314 22 269 60 281 31 b 375 15 336 17 364 15 b 385 6 381 15 385 11 b 363 -4 385 -1 376 -4 b 233 0 293 -4 244 0 b 115 -4 222 0 171 -4 b 96 6 103 -4 96 -3 b 106 15 96 11 100 15 b 156 22 115 15 138 17 b 190 169 186 31 190 63 l 190 846 b 207 906 190 893 197 906 b 254 869 221 906 242 882 b 640 467 274 850 451 661 b 929 163 761 342 892 201 l 917 754 b 871 864 915 831 908 857 b 811 869 849 868 821 869 b 801 881 803 869 801 876 b 825 889 801 888 811 889 b 953 886 881 889 939 886 b 1057 889 967 886 1007 889 b 1079 881 1069 889 1079 888 b 1065 869 1079 876 1074 869 b 1036 867 1060 869 1050 869 b 993 764 996 858 993 835 l 990 72 b 981 -12 990 -6 989 -12 b 888 60 968 -12 956 -3 b 569 379 875 71 699 244 b 253 714 428 528 290 672 "},"":{"ha":1122,"x_min":0,"x_max":0,"o":"m 76 444 b 561 906 76 635 224 906 b 1044 463 836 906 1044 738 b 554 -19 1044 199 849 -19 b 76 444 219 -19 76 232 m 203 476 b 589 29 203 201 368 29 b 919 429 699 29 919 88 b 554 861 919 713 747 861 b 203 476 350 861 203 733 "},"":{"ha":814,"x_min":0,"x_max":0,"o":"m 215 547 b 213 801 215 731 215 764 b 163 867 210 842 203 861 b 121 869 153 868 132 869 b 111 879 117 869 111 875 b 131 889 111 886 117 889 b 272 886 186 889 263 886 b 446 889 299 886 390 889 b 679 822 603 889 658 840 b 740 681 707 797 740 744 b 425 399 740 511 613 399 b 390 400 418 399 397 399 b 378 411 385 400 378 406 b 410 424 378 421 385 424 b 636 614 542 424 636 507 b 567 793 636 653 632 729 b 401 850 503 857 429 850 b 333 842 381 850 346 844 b 324 819 326 840 324 832 l 324 339 b 329 83 324 225 324 132 b 378 21 333 49 340 26 b 432 15 394 18 421 15 b 442 6 439 15 442 10 b 422 -4 442 0 436 -4 b 269 0 356 -4 275 0 b 149 -4 265 0 186 -4 b 129 6 136 -4 129 -1 b 139 15 129 10 132 15 b 176 21 150 15 165 18 b 208 83 200 26 203 49 b 215 339 215 132 215 225 "},"":{"ha":1125,"x_min":0,"x_max":0,"o":"m 747 17 b 554 -19 703 -6 619 -19 b 75 444 217 -19 75 232 b 560 906 75 635 222 906 b 1043 463 835 906 1043 736 b 828 67 1043 256 908 117 l 1078 -57 b 1590 -196 1344 -189 1529 -196 b 1829 -150 1651 -196 1744 -181 b 1847 -146 1838 -147 1843 -146 b 1854 -154 1851 -146 1854 -151 b 1844 -167 1854 -160 1851 -164 b 1456 -249 1775 -197 1636 -249 b 950 -93 1307 -249 1147 -200 m 200 476 b 586 29 200 204 365 29 b 918 429 696 29 918 89 b 551 861 918 710 744 861 b 200 476 347 861 200 735 "},"":{"ha":933,"x_min":0,"x_max":0,"o":"m 215 547 b 213 801 215 731 215 764 b 163 867 210 842 203 861 b 121 869 153 868 132 869 b 111 879 117 869 111 875 b 131 889 111 886 117 889 b 275 886 186 889 268 886 b 428 889 288 886 390 889 b 656 838 506 889 592 882 b 740 676 686 815 740 758 b 590 407 740 589 704 504 b 846 101 690 282 775 175 b 982 19 911 35 951 24 b 1025 15 1006 15 1018 15 b 1036 6 1032 15 1036 10 b 1007 -4 1036 -1 1029 -4 l 931 -4 b 800 19 861 -4 831 3 b 633 193 747 47 703 104 b 501 365 582 257 528 333 b 485 372 496 371 493 372 l 329 375 b 321 365 324 375 321 372 l 321 338 b 326 83 321 224 321 132 b 375 21 331 49 338 26 b 429 15 392 18 418 15 b 439 6 438 15 439 10 b 419 -4 439 0 433 -4 b 269 0 353 -4 275 0 b 149 -4 268 0 186 -4 b 129 6 136 -4 129 -1 b 139 15 129 10 132 15 b 176 21 150 15 165 18 b 208 83 200 26 203 49 b 215 339 215 132 215 225 m 321 447 b 329 432 321 440 324 436 b 464 414 347 422 410 414 b 556 435 493 414 526 415 b 629 615 597 463 629 525 b 418 847 629 763 549 847 b 331 840 382 847 343 843 b 321 826 325 838 321 833 "},"":{"ha":728,"x_min":0,"x_max":0,"o":"m 290 -19 b 113 13 233 -19 163 -11 b 94 57 96 21 94 25 b 101 182 94 115 100 163 b 111 201 101 194 104 201 b 122 188 118 201 122 197 b 126 144 122 178 122 161 b 319 28 146 58 238 28 b 503 185 440 28 503 96 b 349 390 503 269 457 310 l 293 432 b 118 685 161 531 118 603 b 389 907 118 824 228 907 b 515 893 438 907 486 900 b 558 888 539 888 549 888 b 571 879 568 888 571 886 b 565 754 571 874 565 835 b 556 728 565 736 564 728 b 544 743 547 728 546 733 b 526 801 543 757 533 789 b 368 860 518 815 478 860 b 206 732 279 860 206 815 b 364 532 206 657 243 614 l 399 508 b 599 224 547 407 599 325 b 485 22 599 154 572 79 b 290 -19 433 -11 357 -19 "}}}
